<?xml version="1.0" encoding="iso-8859-1"?>
<!-- Generator: Adobe Illustrator 19.0.0, SVG Export Plug-In . SVG Version: 6.00 Build 0)  -->
<svg version="1.1" id="Layer_1" xmlns="http://www.w3.org/2000/svg" xmlns:xlink="http://www.w3.org/1999/xlink" x="0px" y="0px"
	 viewBox="0 0 330 330" style="enable-background:new 0 0 330 330;" xml:space="preserve">
<path id="XMLID_28_" d="M315,10H15C6.716,10,0,16.716,0,25s6.716,15,15,15h116.557L85.403,140H55
	c-7.643,0-14.064,5.747-14.908,13.344l-10,90c-0.016,0.145-0.013,0.289-0.025,0.434c-0.021,0.262-0.038,0.523-0.045,0.786
	c-0.008,0.278-0.006,0.556,0.001,0.833c0.007,0.254,0.017,0.507,0.037,0.761c0.022,0.288,0.056,0.571,0.095,0.857
	c0.021,0.15,0.025,0.302,0.05,0.452l10,60C41.41,314.699,47.667,320,55,320h220c7.332,0,13.59-5.301,14.796-12.534l10-60
	c0.025-0.15,0.03-0.302,0.05-0.452c0.039-0.285,0.073-0.568,0.095-0.857c0.02-0.254,0.03-0.507,0.037-0.761
	c0.007-0.277,0.009-0.555,0.001-0.833c-0.008-0.263-0.024-0.524-0.045-0.786c-0.012-0.145-0.009-0.289-0.025-0.434l-10-90
	C289.064,145.747,282.643,140,275,140h-30.409L198.442,40H315c8.284,0,15-6.716,15-15S323.284,10,315,10z M140,230v-60h50v60H140z
	 M68.426,170h26.492c0.024,0,0.049,0.004,0.073,0.004c0.037,0,0.073-0.004,0.11-0.004H110v60H61.759L68.426,170z M262.293,290
	H67.707l-5-30h204.586L262.293,290z M268.241,230H220v-60h14.515c0.165,0.006,0.329,0.018,0.495,0.018c0.11,0,0.22-0.016,0.33-0.018
	h26.235L268.241,230z M211.551,140h-93.108l46.154-100h0.805L211.551,140z"/>
<g>
</g>
<g>
</g>
<g>
</g>
<g>
</g>
<g>
</g>
<g>
</g>
<g>
</g>
<g>
</g>
<g>
</g>
<g>
</g>
<g>
</g>
<g>
</g>
<g>
</g>
<g>
</g>
<g>
</g>
</svg>
