<svg width="1291" height="878" viewBox="0 0 1291 878" fill="none" xmlns="http://www.w3.org/2000/svg">
<rect width="1291" height="878" fill="#F0F9FC"/>
<path d="M1099.14 587.967C1103.43 588.196 1107.71 587.3 1111.64 585.349C1115.57 583.398 1119.04 580.446 1121.78 576.725C1124.52 573.004 1126.46 568.616 1127.44 563.908C1128.42 559.199 1128.42 554.298 1127.43 549.591C1126.45 544.884 1124.5 540.499 1121.76 536.783C1119.01 533.066 1115.53 530.12 1111.6 528.175C1107.67 526.231 1103.39 525.342 1099.1 525.578C1094.81 525.814 1090.63 527.169 1086.89 529.535L1091.79 544.654L1081.71 533.755C1076.31 539.32 1073.09 547.073 1072.76 555.311C1072.63 558.201 1072.86 561.097 1073.46 563.912C1074.84 570.522 1078.09 576.447 1082.72 580.787C1087.36 585.128 1093.12 587.649 1099.14 587.967V587.967Z" fill="#57B894"/>
<path d="M1180.15 754.835C1174.28 742.577 1180.95 727.551 1188.61 716.619C1196.28 705.686 1205.62 694.31 1205.42 680.38C1205.13 660.36 1186.27 648.538 1171.2 637.925C1160.02 630.048 1149.71 620.706 1140.48 610.094C1136.78 605.839 1133.2 601.288 1131.03 595.853C1127.92 588.026 1128 579.121 1128.2 570.546C1128.86 541.978 1130.11 513.438 1131.96 484.926" stroke="#3F3D56" stroke-miterlimit="10"/>
<path d="M1099.14 583.633C1103.43 583.862 1107.71 582.966 1111.64 581.015C1115.57 579.064 1119.04 576.112 1121.78 572.391C1124.52 568.67 1126.46 564.283 1127.44 559.574C1128.42 554.865 1128.42 549.964 1127.43 545.257C1126.45 540.55 1124.5 536.165 1121.76 532.449C1119.01 528.733 1115.53 525.786 1111.6 523.842C1107.67 521.897 1103.39 521.008 1099.1 521.244C1094.81 521.48 1090.63 522.835 1086.89 525.202L1091.79 540.32L1081.71 529.422C1076.31 534.986 1073.09 542.739 1072.76 550.978C1072.63 553.868 1072.86 556.763 1073.46 559.578C1074.84 566.189 1078.09 572.113 1082.72 576.454C1087.36 580.794 1093.12 583.315 1099.14 583.633V583.633Z" stroke="#3F3D56" stroke-miterlimit="10"/>
<path d="M1103.31 489.143C1103.53 483.913 1104.91 478.829 1107.33 474.358C1109.74 469.887 1113.12 466.174 1117.15 463.56L1123.35 477.39L1123.17 460.649C1128.8 458.778 1134.82 458.974 1140.35 461.208C1145.88 463.442 1150.64 467.598 1153.94 473.077C1157.24 478.556 1158.91 485.074 1158.7 491.69C1158.5 498.306 1156.43 504.678 1152.8 509.885C1149.17 515.092 1144.17 518.865 1138.51 520.66C1132.86 522.455 1126.84 522.178 1121.33 519.87C1115.83 517.562 1111.11 513.342 1107.87 507.819C1104.63 502.296 1103.04 495.756 1103.31 489.143V489.143Z" fill="#57B894"/>
<path d="M1103.31 483.365C1103.53 478.135 1104.91 473.051 1107.33 468.58C1109.74 464.109 1113.12 460.396 1117.15 457.782L1123.35 471.612L1123.17 454.871C1128.8 453 1134.82 453.196 1140.35 455.43C1145.88 457.664 1150.64 461.82 1153.94 467.299C1157.24 472.778 1158.91 479.296 1158.7 485.912C1158.5 492.528 1156.43 498.899 1152.8 504.107C1149.17 509.314 1144.17 513.087 1138.51 514.882C1132.86 516.677 1126.84 516.4 1121.33 514.092C1115.83 511.784 1111.11 507.563 1107.87 502.041C1104.63 496.518 1103.04 489.978 1103.31 483.365V483.365Z" stroke="#3F3D56" stroke-miterlimit="10"/>
<path d="M1166.64 639.848C1173.43 640.206 1180.11 637.732 1185.4 632.899C1190.68 628.066 1194.2 621.211 1195.29 613.64C1196.38 606.07 1194.95 598.314 1191.29 591.851C1187.63 585.387 1181.98 580.668 1175.43 578.593L1175.57 591.458L1169.3 577.464C1169.27 577.46 1169.25 577.458 1169.22 577.459C1165.59 577.268 1161.95 577.885 1158.53 579.276C1155.1 580.667 1151.95 582.804 1149.26 585.565C1146.57 588.327 1144.39 591.658 1142.84 595.37C1141.29 599.081 1140.41 603.1 1140.24 607.196C1140.07 611.293 1140.62 615.387 1141.85 619.245C1143.09 623.103 1144.98 626.649 1147.43 629.681C1149.89 632.713 1152.84 635.171 1156.14 636.916C1159.43 638.66 1163 639.657 1166.64 639.848V639.848Z" fill="#57B894"/>
<path d="M1166.42 634.07C1173.22 634.427 1179.9 631.954 1185.19 627.121C1190.47 622.287 1193.99 615.432 1195.08 607.862C1196.16 600.292 1194.74 592.536 1191.08 586.072C1187.41 579.609 1181.77 574.89 1175.22 572.815L1175.36 585.68L1169.08 571.686C1169.06 571.682 1169.03 571.68 1169.01 571.681C1165.37 571.489 1161.74 572.107 1158.31 573.498C1154.89 574.888 1151.74 577.026 1149.05 579.787C1146.36 582.548 1144.18 585.88 1142.63 589.591C1141.08 593.303 1140.2 597.321 1140.03 601.418C1139.86 605.515 1140.4 609.609 1141.64 613.467C1142.87 617.325 1144.77 620.871 1147.22 623.903C1149.67 626.935 1152.63 629.393 1155.92 631.138C1159.22 632.882 1162.79 633.878 1166.42 634.07V634.07Z" stroke="#3F3D56" stroke-miterlimit="10"/>
<path d="M1152.74 699.024C1155.65 705.391 1160.41 710.438 1166.23 713.319C1172.05 716.199 1178.57 716.737 1184.7 714.843C1190.83 712.949 1196.2 708.738 1199.9 702.917C1203.6 697.095 1205.41 690.017 1205.03 682.868C1204.65 675.72 1202.1 668.937 1197.81 663.657C1193.51 658.376 1187.74 654.92 1181.45 653.867C1175.16 652.813 1168.74 654.228 1163.27 657.872C1157.8 661.517 1153.61 667.171 1151.4 673.885L1168.71 689.754L1149.66 684.782C1149.66 689.738 1150.72 694.623 1152.74 699.024V699.024Z" fill="#57B894"/>
<path d="M1152.74 694.69C1155.65 701.058 1160.41 706.105 1166.23 708.985C1172.05 711.865 1178.57 712.404 1184.7 710.51C1190.83 708.616 1196.2 704.405 1199.9 698.583C1203.6 692.761 1205.41 685.683 1205.03 678.535C1204.65 671.387 1202.1 664.603 1197.81 659.323C1193.51 654.043 1187.74 650.586 1181.45 649.533C1175.16 648.48 1168.74 649.894 1163.27 653.539C1157.8 657.183 1153.61 662.837 1151.4 669.551L1168.71 685.421L1149.66 680.448C1149.66 685.404 1150.72 690.289 1152.74 694.69V694.69Z" stroke="#3F3D56" stroke-miterlimit="10"/>
<path d="M941.29 220.607C944.631 235.429 942.087 251.369 936.432 265.27C930.776 279.172 922.185 291.289 913.094 302.644C908.519 308.357 903.569 314.43 902.599 322.046C901.305 332.201 907.383 341.39 911.465 350.56C915.034 358.591 917.199 367.321 917.843 376.273C918.391 383.961 917.538 392.433 912.758 397.954C908.15 403.278 901.073 404.566 894.501 405.254C876.401 407.147 858.166 406.651 840.168 403.775C845.211 396.218 843.317 391.53 842.842 382.091C841.912 363.573 829.95 346.808 827.627 328.447C825.781 313.849 834.359 300.447 842.466 288.872L879.642 235.792C885.802 226.997 891.938 217.937 896.361 207.854C899.522 200.648 900.115 187.119 908.068 184.716C923.052 180.189 938.376 207.68 941.29 220.607Z" fill="#47465A"/>
<path d="M758.853 264.358C758.853 264.358 733.207 349.588 720.384 355.366C707.562 361.145 797.321 465.154 797.321 465.154L862.718 429.04L865.282 359.7L839.637 358.255C839.637 358.255 835.79 329.364 848.613 314.918C861.435 300.472 758.853 264.358 758.853 264.358Z" fill="#FBBEBE"/>
<path opacity="0.1" d="M758.853 264.358C758.853 264.358 733.207 349.588 720.384 355.366C707.562 361.145 797.321 465.154 797.321 465.154L862.718 429.04L865.282 359.7L839.637 358.255C839.637 358.255 835.79 329.364 848.613 314.918C861.435 300.472 758.853 264.358 758.853 264.358Z" fill="black"/>
<path d="M788.345 408.816C788.345 408.816 733.207 366.923 730.643 332.253C730.643 332.253 689.61 362.589 676.787 361.145C663.964 359.7 629.342 368.367 629.342 374.146C629.342 379.924 661.399 543.161 661.399 543.161C661.399 543.161 638.318 612.501 649.859 634.17C661.399 655.838 667.811 756.959 667.811 756.959H934.525C934.525 756.959 898.622 686.174 917.856 635.614C937.09 585.054 944.784 372.701 944.784 372.701C944.784 372.701 930.679 361.145 916.574 364.034C902.468 366.923 885.799 355.366 875.54 353.922C865.282 352.477 842.034 358.39 842.034 358.39L788.345 408.816Z" fill="#1976D2"/>
<path d="M1291 755.41V818.972C1291 830.158 1287.09 840.893 1280.11 848.851C1273.13 856.809 1263.65 861.349 1253.72 861.487L66.5656 877.998C63.6967 878.038 60.8493 877.436 58.1885 876.227C55.5278 875.017 53.1066 873.225 51.0654 870.954C49.0241 868.682 47.4034 865.977 46.2973 862.995C45.1911 860.012 44.6216 856.812 44.6216 853.58V783.318C44.6216 777.028 46.7952 770.984 50.6821 766.468C54.569 761.952 59.8638 759.318 65.4448 759.124L1256.49 717.711C1260.97 717.555 1265.43 718.415 1269.61 720.239C1273.79 722.064 1277.61 724.816 1280.83 728.332C1284.04 731.848 1286.6 736.056 1288.35 740.708C1290.1 745.36 1291 750.359 1291 755.41V755.41Z" fill="#47465A"/>
<path opacity="0.1" d="M1291 801.741V818.972C1291 830.158 1287.09 840.893 1280.11 848.851C1273.13 856.809 1263.65 861.349 1253.72 861.487L66.5656 877.998C63.6967 878.038 60.8493 877.436 58.1885 876.227C55.5278 875.017 53.1066 873.225 51.0654 870.954C49.0241 868.682 47.4034 865.977 46.2973 862.995C45.1911 860.012 44.6216 856.812 44.6216 853.58V851.319L1291 801.741Z" fill="black"/>
<path d="M1057.63 756.959L907.419 735.002L640.323 745.98L737.055 780.072L1057.63 756.959Z" fill="#F2F2F2"/>
<path d="M658.835 746.847V764.182L512.655 801.741L498.371 798.028L495.986 797.407L390.838 733.845L658.835 746.847Z" fill="#9493B6"/>
<path opacity="0.1" d="M658.836 746.847V764.181L512.655 801.741L498.371 798.028L495.986 780.072L658.836 746.847Z" fill="black"/>
<path d="M490.856 774.294C493.42 772.849 547.276 761.293 547.276 761.293L449.823 751.18L490.856 774.294Z" fill="#47465A"/>
<path d="M828.096 338.031C874.128 338.031 911.444 295.992 911.444 244.134C911.444 192.276 874.128 150.236 828.096 150.236C782.064 150.236 744.748 192.276 744.748 244.134C744.748 295.992 782.064 338.031 828.096 338.031Z" fill="#FBBEBE"/>
<path d="M585.745 668.84C585.745 668.84 511.372 704.954 493.42 694.842C475.468 684.73 421.613 658.728 404.943 712.177C391.5 755.281 469.976 757.987 500.859 757.42C504.593 757.351 508.27 756.37 511.634 754.545C514.999 752.719 517.972 750.093 520.348 746.847V746.847L627.419 705.676C627.419 705.676 603.697 660.172 585.745 668.84Z" fill="#FBBEBE"/>
<path d="M796.039 602.389L805.015 611.057L721.667 743.958C721.667 743.958 708.844 745.402 712.691 738.179L796.039 602.389Z" fill="#47465A"/>
<path d="M801.169 611.056L810.145 598.055L806.298 595.166L797.322 606.723L801.169 611.056Z" fill="#47465A"/>
<path d="M649.218 364.756C649.218 364.756 605.62 373.423 606.902 410.982C608.185 448.542 597.285 491.157 587.027 511.381C576.769 531.605 584.462 547.495 587.027 574.942C589.592 602.389 574.204 631.281 581.898 645.726C589.592 660.172 498.55 670.284 498.55 684.73C498.55 699.176 556.252 726.623 545.994 745.402C538.614 758.913 590.635 736.16 620.406 722.33C628.158 718.808 635.042 713.231 640.473 706.072C645.904 698.914 649.722 690.384 651.602 681.209C652.504 676.604 652.744 672.451 651.782 669.562C647.935 658.005 693.456 642.837 694.739 613.946C696.021 585.054 688.327 556.163 681.916 527.271C675.505 498.379 649.218 364.756 649.218 364.756Z" fill="#1976D2"/>
<path d="M13.8186 515.946L389.834 519.955C392.434 519.983 394.972 520.845 397.152 522.44C399.332 524.036 401.063 526.298 402.143 528.962L503.478 779.091C504.446 781.478 504.855 784.105 504.669 786.721C504.482 789.337 503.705 791.855 502.412 794.038C501.118 796.221 499.352 797.995 497.279 799.192C495.206 800.39 492.896 800.971 490.568 800.88L113.232 786.176C110.72 786.078 108.28 785.201 106.181 783.642C104.081 782.084 102.404 779.903 101.334 777.34L1.31821 537.907C0.332939 535.548 -0.104838 532.947 0.0458838 530.345C0.196606 527.744 0.930894 525.228 2.17998 523.034C3.42906 520.84 5.15206 519.038 7.18764 517.799C9.22321 516.559 11.5047 515.922 13.8186 515.946Z" fill="#7A799C"/>
<path d="M901.186 668.84C901.186 668.84 826.814 704.954 808.862 694.842C790.91 684.73 737.054 658.728 720.384 712.177C706.941 755.281 785.417 757.987 816.3 757.42C820.035 757.351 823.711 756.37 827.076 754.545C830.441 752.719 833.414 750.093 835.79 746.847V746.847L944.784 733.846C944.784 733.846 919.138 660.172 901.186 668.84Z" fill="#FBBEBE"/>
<path opacity="0.1" d="M945.425 395.092C945.425 395.092 964.018 366.923 972.994 392.925C981.97 418.928 980.688 520.048 980.688 520.048C980.688 520.048 996.075 570.608 990.946 603.834C985.817 637.059 996.075 641.393 996.075 641.393C996.075 641.393 998.64 655.838 990.946 663.061C983.252 670.284 978.123 702.065 980.688 706.399C983.252 710.732 976.841 738.179 971.712 738.179C966.583 738.179 955.683 736.012 955.683 736.012C955.683 736.012 929.396 681.841 874.258 677.507C874.258 677.507 883.234 663.061 878.105 634.17C872.976 605.278 945.425 395.092 945.425 395.092Z" fill="black"/>
<path d="M942.219 374.146C942.219 374.146 963.377 364.756 972.353 390.758C981.329 416.761 989.664 520.048 989.664 520.048C989.664 520.048 1005.05 570.608 999.922 603.834C994.793 637.059 1005.05 641.393 1005.05 641.393C1005.05 641.393 1007.62 655.838 999.922 663.061C992.228 670.284 987.099 702.065 989.664 706.399C992.228 710.732 985.817 738.179 980.688 738.179C975.559 738.179 928.114 746.847 928.114 746.847C928.114 746.847 938.372 681.841 883.234 677.507C883.234 677.507 892.21 663.061 887.081 634.17C881.952 605.278 942.219 374.146 942.219 374.146Z" fill="#1976D2"/>
<path d="M856.017 111.626C843.23 102.616 828.761 97.075 813.749 95.441C798.737 93.807 783.593 96.1241 769.512 102.21C754.416 108.899 741.082 119.79 728.611 131.477C718.607 140.853 708.851 151.08 702.705 164.002C693.386 183.594 693.413 206.916 693.666 229.142C693.885 248.492 694.109 267.902 696.45 287.073C699.66 313.368 706.853 339.401 705.201 365.879C703.55 392.356 689.737 420.605 666.648 425.886C688.127 427.717 709.717 427.016 731.067 423.796C744.523 421.764 758.649 418.293 768.487 407.753C775.672 400.055 779.733 389.443 783.267 379.005C786.818 368.516 790.069 357.615 789.944 346.389C789.685 323.031 775.287 303.438 765.891 282.614C763.254 276.769 760.939 270.485 761.03 263.929C761.122 257.373 764.16 250.491 769.569 248.07C776.243 245.083 783.971 249.539 790.909 247.451C802.057 244.096 804.95 226.656 815.185 220.653C822.758 216.212 832.423 219.542 838.791 225.949C841.638 228.815 844.077 232.278 847.38 234.436C851.858 237.362 857.297 237.504 862.474 237.568C872.137 237.689 905.121 220.624 912.086 213.075C918.88 252.444 969.401 218.182 940.407 160.098C930.312 139.875 916.922 121.091 899.11 109.444C881.298 97.7957 858.571 94.183 839.872 103.908" fill="#47465A"/>
<path d="M769.752 289.638C776.126 289.638 781.293 279.29 781.293 266.525C781.293 253.76 776.126 243.412 769.752 243.412C763.379 243.412 758.212 253.76 758.212 266.525C758.212 279.29 763.379 289.638 769.752 289.638Z" fill="#FBBEBE"/>
<path d="M883.234 356.115C883.234 356.115 954.401 367.645 958.248 373.423C962.095 379.202 954.401 413.872 954.401 413.872L903.11 423.984L863.642 414.395L883.234 356.115Z" fill="#1976D2"/>
<path opacity="0.1" d="M665.093 412.682C654.375 410.601 643.922 421.529 638.372 435.937C632.823 450.345 631.316 467.61 630.77 484.383C630.228 501.053 630.548 518.078 633.918 533.926C640.837 566.471 659.413 589.48 670.164 619.405C678.421 643.149 681.76 668.703 679.927 694.12" fill="black"/>
<path d="M672.787 412.682C662.069 410.601 651.616 421.529 646.066 435.937C640.516 450.345 639.009 467.61 638.464 484.383C637.921 501.053 638.242 518.078 641.611 533.926C648.531 566.471 667.107 589.48 677.858 619.405C686.115 643.149 689.454 668.703 687.621 694.12" fill="#1976D2"/>
<path d="M1084.94 735.462L1208.98 791.36L1286.51 775.638L1279.75 713.12L1278.76 704.019L1148.51 658.602L1139.21 669.082L1084.94 735.462Z" fill="#1976D2"/>
<path opacity="0.1" d="M1156.26 669.729V730.221L1286.51 775.638L1279.75 713.12L1156.26 669.729Z" fill="black"/>
<path d="M1036.36 748.525L1045.14 752.187L1149.84 795.867L1157.97 799.261C1158.23 799.369 1158.5 799.407 1158.78 799.371C1159.05 799.335 1159.31 799.226 1159.53 799.054L1169.12 791.812L1268.85 716.432L1278.28 709.314C1278.55 709.109 1278.76 708.82 1278.9 708.483C1279.03 708.145 1279.07 707.773 1279.02 707.408C1278.98 707.043 1278.84 706.7 1278.62 706.421C1278.41 706.141 1278.13 705.935 1277.82 705.828L1262.79 700.644L1157.18 664.196L1147.96 661.01C1147.72 660.923 1147.45 660.901 1147.2 660.944C1146.94 660.987 1146.7 661.094 1146.48 661.258L1139.22 666.772L1045.13 738.158L1036.01 745.08C1035.74 745.279 1035.53 745.557 1035.4 745.883C1035.27 746.209 1035.21 746.569 1035.25 746.925C1035.29 747.282 1035.41 747.619 1035.61 747.901C1035.81 748.184 1036.07 748.399 1036.36 748.525V748.525Z" fill="#7A799C"/>
<path d="M1252.38 715.815L1158.92 787.416C1158.47 787.762 1157.96 787.982 1157.41 788.058C1156.87 788.133 1156.32 788.063 1155.81 787.852L1056.6 747.048C1056 746.798 1055.47 746.364 1055.07 745.794C1054.67 745.224 1054.42 744.542 1054.35 743.822C1054.28 743.102 1054.38 742.373 1054.66 741.718C1054.93 741.062 1055.36 740.505 1055.9 740.108L1146.35 673.61C1146.77 673.299 1147.25 673.096 1147.75 673.017C1148.26 672.938 1148.77 672.985 1149.25 673.153L1251.46 708.854C1252.08 709.074 1252.64 709.486 1253.06 710.045C1253.48 710.603 1253.76 711.284 1253.85 712.011C1253.95 712.737 1253.86 713.479 1253.6 714.152C1253.34 714.825 1252.91 715.401 1252.38 715.815Z" fill="#F2F2F2"/>
<path d="M1262.79 700.644V716.432H1268.85L1278.28 709.314C1278.55 709.109 1278.76 708.82 1278.9 708.483C1279.03 708.145 1279.07 707.773 1279.02 707.408C1278.98 707.043 1278.84 706.7 1278.62 706.421C1278.41 706.141 1278.13 705.935 1277.82 705.828L1262.79 700.644Z" fill="#6C63FF"/>
<path d="M1149.84 790.922V795.868L1157.97 799.261C1158.23 799.369 1158.5 799.407 1158.78 799.371C1159.05 799.335 1159.31 799.226 1159.53 799.054L1169.12 791.812V790.922H1149.84Z" fill="#6C63FF"/>
<path d="M1036.36 748.525L1045.14 752.188V738.158H1045.13L1036.01 745.08C1035.74 745.28 1035.53 745.558 1035.4 745.883C1035.27 746.209 1035.21 746.569 1035.25 746.926C1035.29 747.282 1035.41 747.619 1035.61 747.902C1035.81 748.184 1036.07 748.399 1036.36 748.525V748.525Z" fill="#6C63FF"/>
<path d="M1139.22 666.772H1157.18V664.196L1147.96 661.01C1147.72 660.923 1147.45 660.901 1147.2 660.944C1146.94 660.987 1146.7 661.094 1146.48 661.258L1139.22 666.772Z" fill="#6C63FF"/>
<path d="M1099.94 702.065C1100.65 702.065 1101.22 701.418 1101.22 700.62C1101.22 699.822 1100.65 699.176 1099.94 699.176C1099.23 699.176 1098.66 699.822 1098.66 700.62C1098.66 701.418 1099.23 702.065 1099.94 702.065Z" fill="#F2F2F2"/>
<path d="M554.804 37.559H44.4556V329.364H554.804V37.559Z" fill="#F2F2F2"/>
<path d="M134.033 302.639L249.621 85.2301L369.514 302.639" fill="#1976D2"/>
<path d="M309.247 191.407L332.328 123.511L463.121 302.639H308.606L309.247 191.407Z" fill="#1976D2"/>
<path d="M284.946 164.43C288.54 161.954 291.665 158.704 294.143 154.866C296.621 151.028 298.403 146.677 299.387 142.063C300.372 137.448 300.539 132.66 299.88 127.973C299.222 123.286 297.749 118.79 295.547 114.745C293.345 110.699 290.457 107.181 287.048 104.394C283.638 101.606 279.775 99.6025 275.678 98.498C271.581 97.3935 267.331 97.2094 263.171 97.9564C259.011 98.7034 255.022 100.367 251.433 102.851" fill="#6C63FF"/>
<path d="M584.938 0.72229H74.5891V292.527H584.938V0.72229Z" stroke="#3F3D56" stroke-miterlimit="10"/>
<path d="M140.445 292.527L256.032 75.118L375.925 292.527" stroke="#3F3D56" stroke-miterlimit="10"/>
<path d="M313.094 178.405L336.175 110.51L466.968 292.527" stroke="#3F3D56" stroke-miterlimit="10"/>
<path d="M293.922 144.206C297.516 141.73 300.641 138.479 303.119 134.641C305.597 130.803 307.379 126.453 308.363 121.839C309.348 117.224 309.515 112.436 308.857 107.749C308.198 103.062 306.725 98.5663 304.523 94.5204C302.321 90.4745 299.433 86.9572 296.024 84.1695C292.615 81.3818 288.751 79.3784 284.654 78.2739C280.557 77.1694 276.307 76.9854 272.147 77.7324C267.987 78.4794 263.998 80.1427 260.409 82.6274" stroke="#3F3D56" stroke-miterlimit="10"/>
</svg>
