<svg width="492" height="389" viewBox="0 0 492 389" fill="none" xmlns="http://www.w3.org/2000/svg">
<path fill-rule="evenodd" clip-rule="evenodd" d="M293.026 15.1256C432.263 58.9572 374.975 98.7251 443.544 172.082C512.114 245.439 499.527 316.211 455.117 345.246C410.708 374.283 259.506 344.687 198.142 366.584C136.779 388.482 136.779 399.239 51.4648 375.847C-33.8516 352.455 4.35306 149.829 51.4648 90.3322C98.5734 30.8367 153.789 -28.7059 293.025 15.1256H293.026Z" fill="#F0F9FC"/>
<path d="M106.425 152.022L117.625 169.707C120.636 174.571 127.621 176.339 132.92 173.576L134.846 172.581L140.386 181.534C141.831 183.855 145.083 184.629 147.973 183.303L152.67 180.76C155.199 179.434 156.042 176.45 154.597 173.797L149.057 164.844L209.032 132.789C214.331 130.026 216.257 123.615 213.247 118.752L202.047 101.067C199.758 97.5297 195.062 95.4296 190.606 96.2033L165.918 72.4389C161.702 68.3492 153.874 67.3545 148.576 70.1178L103.414 94.1032C98.1151 96.8665 95.3452 103.83 97.0313 109.246L107.027 140.527C104.257 143.843 103.655 148.485 106.425 152.022ZM180.128 121.847C177.84 118.31 179.285 113.446 183.139 111.346C186.993 109.246 192.292 110.573 194.58 114.11C196.868 117.647 195.423 122.51 191.569 124.61C187.595 126.71 182.296 125.384 180.128 121.847ZM116.782 134.669L107.87 106.704C107.629 105.709 108.472 103.941 109.315 103.388L154.477 79.2919C155.32 78.7393 157.487 79.0709 158.09 79.8446L180.128 100.846L116.782 134.669ZM121.72 152.575C119.431 149.038 120.877 144.174 124.73 142.074C128.584 139.974 133.883 141.3 136.171 144.837C138.459 148.374 137.014 153.238 133.16 155.338C129.307 157.659 124.008 156.112 121.72 152.575Z" fill="#247FFB"/>
<path d="M309.101 173.35V167H292.854V173.35H269.615V167H253.368V173.35H240V222.309H320V173.35H309.101ZM296.143 169.674H305.808V172.57H296.143V169.674ZM256.657 169.674H266.322V172.57H256.657V169.674ZM316.708 219.636H243.291V176.023H316.71V219.636H316.708V219.636Z" fill="#247FFB"/>
<path d="M307.453 188.891H294.497V191.564H307.453V188.891Z" fill="#247FFB"/>
<path d="M259.845 195.49H263.136V191.564H267.969V188.891H263.136V184.964H259.845V188.891H255.011V191.564H259.845V195.49Z" fill="#247FFB"/>
<path d="M394.5 268.97H324.5C322.567 268.97 321 270.293 321 271.924C321 273.556 322.567 274.879 324.5 274.879H351.697L340.927 294.576H333.833C332.05 294.576 330.552 295.708 330.355 297.204L328.021 314.931C328.018 314.96 328.018 314.988 328.016 315.017C328.011 315.069 328.007 315.12 328.005 315.172C328.003 315.226 328.004 315.281 328.005 315.336C328.007 315.386 328.009 315.436 328.014 315.486C328.019 315.542 328.027 315.598 328.036 315.655C328.041 315.684 328.042 315.714 328.048 315.744L330.381 327.562C330.662 328.986 332.122 330.03 333.833 330.03H385.167C386.877 330.03 388.338 328.986 388.619 327.562L390.952 315.743C390.958 315.714 390.959 315.684 390.964 315.654C390.973 315.598 390.981 315.542 390.986 315.486C390.991 315.435 390.993 315.386 390.995 315.336C390.996 315.281 390.997 315.226 390.995 315.172C390.993 315.12 390.989 315.068 390.985 315.017C390.982 314.988 390.982 314.96 390.979 314.931L388.645 297.204C388.448 295.708 386.95 294.576 385.167 294.576H378.071L367.303 274.879H394.5C396.433 274.879 398 273.556 398 271.924C398 270.293 396.433 268.97 394.5 268.97ZM353.667 312.303V300.485H365.333V312.303H353.667ZM336.966 300.485H343.148C343.153 300.485 343.159 300.486 343.165 300.486C343.173 300.486 343.182 300.485 343.19 300.485H346.667V312.303H335.41L336.966 300.485ZM382.202 324.121H336.798L335.632 318.212H383.368L382.202 324.121ZM383.59 312.303H372.333V300.485H375.72C375.759 300.486 375.797 300.488 375.836 300.488C375.861 300.488 375.887 300.485 375.913 300.485H382.034L383.59 312.303ZM370.362 294.576H348.637L359.406 274.879H359.594L370.362 294.576Z" fill="#247FFB"/>
<path d="M147.134 238.472C147.134 237.091 146.09 235.972 144.801 235.972C143.5 235.972 141.828 235.972 141.195 235.972V234H141.993C143.281 234 144.326 232.881 144.326 231.5C144.326 230.119 143.281 229 141.993 229H135.73C134.442 229 133.397 230.119 133.397 231.5C133.397 232.881 134.442 234 135.73 234H136.528V235.972C135.518 235.972 135.177 235.972 132.922 235.972C131.633 235.972 130.589 237.091 130.589 238.472C130.589 239.797 131.551 240.878 132.768 240.964V243.495C136.784 242.474 140.943 242.456 144.955 243.452V240.964C146.172 240.878 147.134 239.797 147.134 238.472Z" fill="#1976D2"/>
<path d="M191.978 235.972C190.631 235.972 189.709 235.972 188.371 235.972V231.5C188.371 230.119 187.327 229 186.038 229C184.749 229 183.705 230.119 183.705 231.5V235.972C182.367 235.972 181.444 235.972 180.098 235.972C178.81 235.972 177.765 237.091 177.765 238.472C177.765 239.797 178.728 240.878 179.944 240.964V251.964C179.944 253.345 180.989 254.464 182.277 254.464H183.705V293.076C183.705 296.343 181.224 299 178.175 299C175.126 299 172.646 296.343 172.646 293.076V267.407C172.646 261.383 168.072 256.482 162.45 256.482C156.828 256.482 152.254 261.383 152.254 267.407V293.076C152.254 296.342 149.773 299 146.724 299C143.675 299 141.195 296.342 141.195 293.076V254.465H142.622C143.91 254.465 144.956 253.345 144.956 251.965V248.61C146.43 249.057 147.861 249.67 149.218 250.438C150.358 251.083 151.769 250.617 152.371 249.397C152.975 248.175 152.539 246.663 151.399 246.018C149.366 244.867 147.194 244.005 144.956 243.452V248.61C140.936 247.387 136.715 247.435 132.768 248.662V251.965C132.768 253.345 133.813 254.465 135.101 254.465H136.529V293.076C136.529 299.1 141.102 304 146.725 304C152.347 304 156.921 299.1 156.921 293.076V267.407C156.921 264.14 159.401 261.482 162.45 261.482C165.499 261.482 167.979 264.14 167.979 267.407V293.076C167.979 299.1 172.553 304 178.175 304C183.798 304 188.371 299.1 188.371 293.076V254.464H189.799C191.087 254.464 192.132 253.345 192.132 251.964V240.964C193.348 240.878 194.311 239.797 194.311 238.472C194.311 237.091 193.266 235.972 191.978 235.972Z" fill="#1976D2"/>
<path d="M125.284 249.562C125.895 250.766 127.302 251.227 128.448 250.565C129.817 249.767 131.268 249.13 132.768 248.662V243.495C130.484 244.075 128.277 244.975 126.22 246.172C125.088 246.83 124.668 248.348 125.284 249.562Z" fill="#1976D2"/>
<path d="M266.043 81.5985C266.043 81.9839 265.906 82.3535 265.663 82.626C265.42 82.8985 265.09 83.0516 264.746 83.0516H258.364C258.02 83.0516 257.69 82.8985 257.446 82.626C257.203 82.3535 257.067 81.9839 257.067 81.5985C257.067 81.2131 257.203 80.8435 257.446 80.571C257.69 80.2985 258.02 80.1454 258.364 80.1454H264.746C265.09 80.1454 265.42 80.2985 265.663 80.571C265.906 80.8435 266.043 81.2131 266.043 81.5985ZM251.981 80.1454H245.599C245.255 80.1454 244.925 80.2985 244.682 80.571C244.439 80.8435 244.302 81.2131 244.302 81.5985C244.302 81.9839 244.439 82.3535 244.682 82.626C244.925 82.8985 245.255 83.0516 245.599 83.0516H251.981C252.325 83.0516 252.655 82.8985 252.898 82.626C253.142 82.3535 253.278 81.9839 253.278 81.5985C253.278 81.2131 253.142 80.8435 252.898 80.571C252.655 80.2985 252.325 80.1454 251.981 80.1454ZM277.51 80.1454H271.128C270.784 80.1454 270.454 80.2985 270.211 80.571C269.968 80.8435 269.831 81.2131 269.831 81.5985C269.831 81.9839 269.968 82.3535 270.211 82.626C270.454 82.8985 270.784 83.0516 271.128 83.0516H277.513C277.857 83.0516 278.187 82.8985 278.431 82.626C278.674 82.3535 278.81 81.9839 278.81 81.5985C278.81 81.2131 278.674 80.8435 278.431 80.571C278.187 80.2985 277.857 80.1454 277.513 80.1454H277.51ZM245.612 75.9567C244.722 75.9557 243.853 75.659 243.113 75.1043C242.374 74.5496 241.798 73.7617 241.458 72.8402C241.118 71.9188 241.03 70.9051 241.204 69.9273C241.378 68.9496 241.807 68.0516 242.436 67.347C243.066 66.6424 243.868 66.1627 244.741 65.9685C245.614 65.7744 246.518 65.8746 247.34 66.2564C248.162 66.6382 248.865 67.2845 249.359 68.1136C249.853 68.9427 250.117 69.9173 250.117 70.9144C250.115 72.2521 249.64 73.5343 248.795 74.4797C247.951 75.425 246.806 75.9563 245.612 75.9567V75.9567ZM245.612 73.0505C245.989 73.0501 246.357 72.9245 246.671 72.6896C246.984 72.4547 247.228 72.1209 247.372 71.7306C247.516 71.3402 247.554 70.9108 247.48 70.4965C247.406 70.0823 247.225 69.7019 246.958 69.4033C246.691 69.1047 246.351 68.9015 245.982 68.8192C245.612 68.7369 245.229 68.7793 244.88 68.9411C244.532 69.1028 244.235 69.3766 244.025 69.7278C243.816 70.0791 243.704 70.492 243.704 70.9144C243.704 71.4811 243.906 72.0244 244.263 72.4249C244.621 72.8255 245.106 73.0505 245.612 73.0505V73.0505ZM281.997 67.3252V74.4782C281.997 74.8636 281.861 75.2332 281.618 75.5057C281.374 75.7782 281.045 75.9313 280.701 75.9313H267.936C267.592 75.9313 267.262 75.7782 267.019 75.5057C266.776 75.2332 266.639 74.8636 266.639 74.4782V67.3252C266.639 66.9398 266.776 66.5702 267.019 66.2977C267.262 66.0251 267.592 65.872 267.936 65.872H280.701C281.045 65.872 281.374 66.0251 281.618 66.2977C281.861 66.5702 281.997 66.9398 281.997 67.3252V67.3252ZM279.404 68.7783H269.233V73.0251H279.404V68.7783ZM301.144 49.4481V92.3552C301.156 93.0237 301.048 93.6879 300.827 94.3092C300.607 94.9304 300.278 95.4962 299.86 95.9734C299.442 96.4506 298.944 96.8296 298.394 97.0884C297.843 97.3472 297.253 97.4805 296.656 97.4805C296.06 97.4805 295.469 97.3472 294.919 97.0884C294.369 96.8296 293.87 96.4506 293.452 95.9734C293.034 95.4962 292.705 94.9304 292.485 94.3092C292.265 93.6879 292.157 93.0237 292.168 92.3552V86.6481H288.24C287.998 87.6741 287.46 88.5816 286.709 89.2297C285.959 89.8777 285.039 90.23 284.092 90.2319H239.025C237.888 90.2304 236.798 89.7236 235.994 88.8226C235.19 87.9215 234.737 86.6999 234.736 85.4257V80.1581H231.93V86.57C231.93 86.9554 231.793 87.325 231.55 87.5975C231.307 87.87 230.977 88.0231 230.633 88.0231H227.297C226.953 88.0231 226.623 87.87 226.38 87.5975C226.137 87.325 226 86.9554 226 86.57V55.2061C226 54.8207 226.137 54.4511 226.38 54.1786C226.623 53.9061 226.953 53.753 227.297 53.753H230.633C230.977 53.753 231.307 53.9061 231.55 54.1786C231.793 54.4511 231.93 54.8207 231.93 55.2061V61.618H234.728V56.3777C234.73 55.1038 235.182 53.8826 235.986 52.982C236.79 52.0813 237.88 51.5747 239.017 51.5733H242.472V48.6816H241.284C240.94 48.6816 240.61 48.5285 240.367 48.256C240.123 47.9835 239.987 47.6138 239.987 47.2285V42.4531C239.987 42.0677 240.123 41.6981 240.367 41.4256C240.61 41.1531 240.94 41 241.284 41H249.914C250.258 41 250.588 41.1531 250.831 41.4256C251.075 41.6981 251.211 42.0677 251.211 42.4531V47.2285C251.211 47.6138 251.075 47.9835 250.831 48.256C250.588 48.5285 250.258 48.6816 249.914 48.6816H248.724V51.5733H258.428V48.6816H257.24C256.896 48.6816 256.566 48.5285 256.323 48.256C256.08 47.9835 255.943 47.6138 255.943 47.2285V42.4531C255.943 42.0677 256.08 41.6981 256.323 41.4256C256.566 41.1531 256.896 41 257.24 41H265.869C266.213 41 266.543 41.1531 266.786 41.4256C267.029 41.6981 267.166 42.0677 267.166 42.4531V47.2285C267.166 47.6138 267.029 47.9835 266.786 48.256C266.543 48.5285 266.213 48.6816 265.869 48.6816H264.681V51.5733H274.385V48.6816H273.195C272.851 48.6816 272.521 48.5285 272.278 48.256C272.035 47.9835 271.898 47.6138 271.898 47.2285V42.4531C271.898 42.0677 272.035 41.6981 272.278 41.4256C272.521 41.1531 272.851 41 273.195 41H281.826C282.17 41 282.499 41.1531 282.743 41.4256C282.986 41.6981 283.122 42.0677 283.122 42.4531V47.2285C283.122 47.6138 282.986 47.9835 282.743 48.256C282.499 48.5285 282.17 48.6816 281.826 48.6816H280.637V51.5733H284.092C285.038 51.5748 285.957 51.9259 286.706 52.5723C287.455 53.2186 287.994 54.124 288.237 55.148H292.168V49.4481C292.191 48.131 292.673 46.8762 293.512 45.9536C294.352 45.0309 295.48 44.5141 296.656 44.5141C297.832 44.5141 298.961 45.0309 299.8 45.9536C300.639 46.8762 301.122 48.131 301.144 49.4481V49.4481ZM294.762 80.1672H298.55V75.924H294.762V80.1672ZM298.55 73.0178V68.7765H294.762V73.0178H298.55ZM298.55 65.8702V61.6271H294.762V65.8702H298.55ZM298.55 58.7209V54.4795H294.762V58.7227L298.55 58.7209ZM294.762 87.3165H298.55V83.0734H294.762V87.3165ZM294.762 49.4481V51.5733H298.55V49.4481C298.536 48.8959 298.33 48.3718 297.976 47.987C297.623 47.6021 297.149 47.3868 296.656 47.3868C296.163 47.3868 295.69 47.6021 295.336 47.987C294.982 48.3718 294.776 48.8959 294.762 49.4481V49.4481ZM274.498 45.7753H280.529V43.9062H274.492L274.498 45.7753ZM276.979 51.5733H278.044V48.6816H276.979V51.5733ZM258.537 45.7753H264.572V43.9062H258.537V45.7753ZM261.022 51.5733H262.087V48.6816H261.022V51.5733ZM242.581 45.7753H248.617V43.9062H242.581V45.7753ZM245.066 51.5733H246.131V48.6816H245.066V51.5733ZM237.322 56.3777V58.7209H285.781V56.3777C285.78 55.8755 285.602 55.3941 285.286 55.0385C284.969 54.6829 284.54 54.4819 284.092 54.4795H239.025C238.802 54.4786 238.581 54.527 238.375 54.6219C238.168 54.7168 237.981 54.8564 237.822 55.0327C237.664 55.209 237.538 55.4186 237.452 55.6493C237.367 55.8801 237.322 56.1276 237.322 56.3777V56.3777ZM229.336 78.7068V56.6592H228.594V85.1187H229.336V78.7068ZM234.728 77.2536V64.517H231.93V77.2536H234.728ZM285.792 61.6326H237.322V85.4275C237.322 85.9312 237.501 86.4142 237.819 86.7704C238.137 87.1266 238.568 87.327 239.017 87.3274H284.084C284.534 87.3274 284.966 87.1271 285.284 86.7704C285.602 86.4138 285.781 85.93 285.781 85.4257L285.792 61.6326ZM292.168 83.7419V58.0524H288.375V83.7419H292.168ZM298.55 92.3552V90.2228H294.762V92.3552C294.755 92.6392 294.798 92.9219 294.89 93.1867C294.982 93.4515 295.12 93.6929 295.297 93.8967C295.473 94.1005 295.685 94.2625 295.918 94.3731C296.152 94.4837 296.403 94.5407 296.656 94.5407C296.91 94.5407 297.161 94.4837 297.394 94.3731C297.628 94.2625 297.839 94.1005 298.016 93.8967C298.192 93.6929 298.331 93.4515 298.422 93.1867C298.514 92.9219 298.558 92.6392 298.55 92.3552Z" fill="#247FFB"/>
</svg>
