<svg width="365" height="289" viewBox="0 0 365 289" fill="none" xmlns="http://www.w3.org/2000/svg">
<path fill-rule="evenodd" clip-rule="evenodd" d="M217.492 11.2158C320.738 43.7175 278.258 73.2059 329.103 127.601C379.949 181.996 370.615 234.475 337.685 256.005C304.755 277.535 192.636 255.59 147.135 271.827C101.633 288.064 101.633 296.041 38.3713 278.695C-24.8919 261.35 3.43732 111.1 38.3713 66.9825C73.3029 22.8658 114.246 -21.2858 217.491 11.2158H217.492Z" fill="#F0F9FC"/>
<path d="M79.1249 112.726L87.4299 125.84C89.6624 129.446 94.8418 130.758 98.7711 128.709L100.2 127.971L104.308 134.61C105.379 136.331 107.79 136.905 109.934 135.921L113.416 134.036C115.292 133.053 115.917 130.84 114.845 128.873L110.737 122.234L155.209 98.4651C159.138 96.4161 160.567 91.6623 158.335 88.056L150.03 74.9423C148.333 72.3195 144.85 70.7623 141.546 71.336L123.239 53.7144C120.114 50.6818 114.309 49.9442 110.38 51.9932L76.8924 69.7787C72.9631 71.8278 70.9092 76.9913 72.1594 81.0074L79.5714 104.202C77.5175 106.661 77.071 110.104 79.1249 112.726ZM133.777 90.3509C132.08 87.7282 133.152 84.1219 136.009 82.5647C138.867 81.0074 142.796 81.9909 144.493 84.6137C146.19 87.2364 145.118 90.8427 142.261 92.4C139.314 93.9572 135.384 92.9737 133.777 90.3509ZM86.8047 99.8584L80.1965 79.1223C80.0179 78.3846 80.643 77.0733 81.2681 76.6635L114.756 58.796C115.381 58.3862 116.988 58.6321 117.435 59.2058L133.777 74.7784L86.8047 99.8584ZM90.4661 113.136C88.7694 110.513 89.841 106.907 92.6986 105.35C95.5562 103.793 99.4855 104.776 101.182 107.399C102.879 110.022 101.807 113.628 98.9497 115.185C96.092 116.906 92.1628 115.759 90.4661 113.136Z" fill="#67A7FF"/>
<path d="M229.411 128.541V123.833H217.364V128.541H200.132V123.833H188.085V128.541H178.173V164.845H237.494V128.541H229.411ZM219.803 125.815H226.97V127.963H219.803V125.815ZM190.524 125.815H197.691V127.963H190.524V125.815ZM235.052 162.863H180.613V130.523H235.054V162.863H235.052V162.863Z" fill="#247FFB"/>
<path d="M228.19 140.065H218.583V142.047H228.19V140.065Z" fill="#247FFB"/>
<path d="M192.888 144.958H195.328V142.047H198.912V140.065H195.328V137.153H192.888V140.065H189.304V142.047H192.888V144.958Z" fill="#247FFB"/>
<g clip-path="url(#clip0_300_541)">
<path d="M292.736 199.444H240.83C239.397 199.444 238.235 200.425 238.235 201.635C238.235 202.845 239.397 203.826 240.83 203.826H260.997L253.012 218.432H247.751C246.429 218.432 245.318 219.271 245.172 220.381L243.442 233.526C243.439 233.547 243.439 233.568 243.437 233.589C243.434 233.627 243.431 233.665 243.43 233.704C243.428 233.744 243.428 233.785 243.43 233.825C243.431 233.863 243.433 233.9 243.436 233.937C243.44 233.979 243.446 234.02 243.453 234.062C243.456 234.084 243.457 234.106 243.461 234.128L245.191 242.891C245.4 243.947 246.482 244.722 247.751 244.722H285.816C287.084 244.722 288.167 243.947 288.376 242.891L290.106 234.128C290.11 234.106 290.111 234.084 290.114 234.062C290.121 234.02 290.127 233.979 290.131 233.936C290.134 233.899 290.136 233.862 290.137 233.825C290.138 233.785 290.139 233.744 290.137 233.704C290.136 233.665 290.133 233.627 290.13 233.589C290.128 233.568 290.128 233.547 290.125 233.525L288.395 220.38C288.249 219.271 287.138 218.432 285.816 218.432H280.554L272.569 203.826H292.736C294.17 203.826 295.332 202.845 295.332 201.635C295.332 200.425 294.17 199.444 292.736 199.444ZM262.458 231.577V222.813H271.109V231.577H262.458ZM250.074 222.813H254.658C254.662 222.813 254.666 222.814 254.67 222.814C254.677 222.814 254.683 222.813 254.689 222.813H257.267V231.577H248.921L250.074 222.813ZM283.617 240.34H249.95L249.085 235.958H284.482L283.617 240.34ZM284.646 231.577H276.299V222.813H278.811C278.839 222.814 278.868 222.816 278.896 222.816C278.915 222.816 278.935 222.814 278.954 222.813H283.493L284.646 231.577ZM274.838 218.432H258.728L266.714 203.826H266.853L274.838 218.432Z" fill="#FFA781"/>
</g>
<path d="M109.312 176.83C109.312 175.806 108.537 174.976 107.581 174.976C106.617 174.976 105.377 174.976 104.907 174.976V173.514H105.499C106.454 173.514 107.229 172.684 107.229 171.66C107.229 170.636 106.454 169.806 105.499 169.806H100.855C99.8997 169.806 99.125 170.636 99.125 171.66C99.125 172.684 99.8996 173.514 100.855 173.514H101.447V174.976C100.698 174.976 100.445 174.976 98.7728 174.976C97.8173 174.976 97.0425 175.806 97.0425 176.83C97.0425 177.812 97.7563 178.614 98.6583 178.678V180.555C101.637 179.798 104.721 179.784 107.696 180.523V178.678C108.598 178.614 109.312 177.812 109.312 176.83Z" fill="#575988"/>
<path d="M142.563 174.976C141.565 174.976 140.881 174.976 139.889 174.976V171.66C139.889 170.636 139.115 169.806 138.159 169.806C137.204 169.806 136.429 170.636 136.429 171.66V174.976C135.437 174.976 134.753 174.976 133.755 174.976C132.799 174.976 132.024 175.806 132.024 176.83C132.024 177.812 132.738 178.614 133.64 178.678V186.835C133.64 187.859 134.415 188.689 135.37 188.689H136.429V217.32C136.429 219.742 134.589 221.712 132.329 221.712C130.068 221.712 128.229 219.742 128.229 217.32V198.286C128.229 193.819 124.837 190.185 120.668 190.185C116.499 190.185 113.108 193.819 113.108 198.286V217.319C113.108 219.742 111.268 221.712 109.008 221.712C106.747 221.712 104.908 219.742 104.908 217.319V188.689H105.966C106.921 188.689 107.696 187.859 107.696 186.835V184.347C108.79 184.679 109.851 185.133 110.856 185.703C111.702 186.181 112.748 185.835 113.195 184.931C113.642 184.025 113.319 182.904 112.474 182.426C110.966 181.572 109.356 180.933 107.696 180.522V184.347C104.716 183.44 101.586 183.476 98.6586 184.386V186.835C98.6586 187.859 99.4338 188.689 100.389 188.689H101.447V217.319C101.447 221.786 104.839 225.42 109.008 225.42C113.177 225.42 116.568 221.786 116.568 217.319V198.286C116.568 195.863 118.408 193.892 120.668 193.892C122.929 193.892 124.768 195.863 124.768 198.286V217.319C124.768 221.786 128.16 225.42 132.329 225.42C136.498 225.42 139.889 221.786 139.889 217.319V188.688H140.948C141.903 188.688 142.678 187.858 142.678 186.835V178.678C143.58 178.614 144.294 177.812 144.294 176.83C144.294 175.806 143.519 174.976 142.563 174.976Z" fill="#575988"/>
<path d="M93.109 185.053C93.5623 185.946 94.6058 186.288 95.4551 185.797C96.4701 185.205 97.5464 184.733 98.6583 184.386V180.555C96.9649 180.985 95.3282 181.652 93.8033 182.54C92.9637 183.028 92.6523 184.154 93.109 185.053Z" fill="#575988"/>
<path d="M197.484 60.5063C197.484 60.7921 197.382 61.0661 197.202 61.2682C197.022 61.4703 196.777 61.5838 196.522 61.5838H191.789C191.534 61.5838 191.29 61.4703 191.109 61.2682C190.929 61.0661 190.828 60.7921 190.828 60.5063C190.828 60.2205 190.929 59.9464 191.109 59.7444C191.29 59.5423 191.534 59.4288 191.789 59.4288H196.522C196.777 59.4288 197.022 59.5423 197.202 59.7444C197.382 59.9464 197.484 60.2205 197.484 60.5063ZM187.057 59.4288H182.324C182.069 59.4288 181.825 59.5423 181.644 59.7444C181.464 59.9464 181.363 60.2205 181.363 60.5063C181.363 60.7921 181.464 61.0661 181.644 61.2682C181.825 61.4703 182.069 61.5838 182.324 61.5838H187.057C187.312 61.5838 187.556 61.4703 187.737 61.2682C187.917 61.0661 188.018 60.7921 188.018 60.5063C188.018 60.2205 187.917 59.9464 187.737 59.7444C187.556 59.5423 187.312 59.4288 187.057 59.4288ZM205.987 59.4288H201.254C200.999 59.4288 200.755 59.5423 200.574 59.7444C200.394 59.9464 200.293 60.2205 200.293 60.5063C200.293 60.7921 200.394 61.0661 200.574 61.2682C200.755 61.4703 200.999 61.5838 201.254 61.5838H205.989C206.244 61.5838 206.489 61.4703 206.669 61.2682C206.85 61.0661 206.951 60.7921 206.951 60.5063C206.951 60.2205 206.85 59.9464 206.669 59.7444C206.489 59.5423 206.244 59.4288 205.989 59.4288H205.987ZM182.334 56.3228C181.674 56.322 181.029 56.1021 180.481 55.6908C179.933 55.2794 179.506 54.6952 179.254 54.0119C179.002 53.3286 178.936 52.577 179.065 51.852C179.194 51.127 179.512 50.4611 179.979 49.9386C180.446 49.4161 181.041 49.0604 181.688 48.9165C182.335 48.7725 183.006 48.8468 183.615 49.1299C184.225 49.413 184.746 49.8923 185.112 50.507C185.479 51.1218 185.674 51.8446 185.674 52.5839C185.673 53.5758 185.321 54.5266 184.694 55.2276C184.068 55.9286 183.219 56.3225 182.334 56.3228V56.3228ZM182.334 54.1678C182.613 54.1676 182.887 54.0744 183.119 53.9002C183.351 53.726 183.532 53.4785 183.639 53.1891C183.746 52.8996 183.774 52.5812 183.719 52.274C183.664 51.9669 183.53 51.6848 183.332 51.4634C183.134 51.242 182.882 51.0913 182.608 51.0303C182.334 50.9693 182.05 51.0007 181.791 51.1206C181.533 51.2406 181.313 51.4436 181.157 51.704C181.002 51.9645 180.919 52.2707 180.919 52.5839C180.919 53.0041 181.069 53.407 181.334 53.704C181.599 54.001 181.959 54.1678 182.334 54.1678V54.1678ZM209.314 49.9224V55.2265C209.314 55.5123 209.213 55.7863 209.033 55.9884C208.852 56.1905 208.608 56.304 208.353 56.304H198.888C198.632 56.304 198.388 56.1905 198.208 55.9884C198.027 55.7863 197.926 55.5123 197.926 55.2265V49.9224C197.926 49.6367 198.027 49.3626 198.208 49.1605C198.388 48.9584 198.632 48.8449 198.888 48.8449H208.353C208.608 48.8449 208.852 48.9584 209.033 49.1605C209.213 49.3626 209.314 49.6367 209.314 49.9224V49.9224ZM207.391 50.9999H199.849V54.149H207.391V50.9999ZM223.512 36.6664V68.4826C223.52 68.9782 223.44 69.4707 223.277 69.9314C223.113 70.3921 222.87 70.8116 222.56 71.1654C222.25 71.5193 221.88 71.8004 221.472 71.9922C221.064 72.1841 220.626 72.283 220.184 72.283C219.741 72.283 219.303 72.1841 218.895 71.9922C218.488 71.8004 218.118 71.5193 217.808 71.1654C217.498 70.8116 217.254 70.3921 217.091 69.9314C216.927 69.4707 216.848 68.9782 216.856 68.4826V64.2506H213.943C213.764 65.0114 213.364 65.6843 212.808 66.1649C212.252 66.6454 211.57 66.9067 210.867 66.908H177.45C176.607 66.907 175.798 66.5312 175.202 65.863C174.606 65.1949 174.27 64.289 174.269 63.3442V59.4382H172.189V64.1927C172.189 64.4785 172.087 64.7526 171.907 64.9546C171.727 65.1567 171.482 65.2702 171.227 65.2702H168.753C168.498 65.2702 168.253 65.1567 168.073 64.9546C167.893 64.7526 167.791 64.4785 167.791 64.1927V40.936C167.791 40.6502 167.893 40.3761 168.073 40.1741C168.253 39.972 168.498 39.8585 168.753 39.8585H171.227C171.482 39.8585 171.727 39.972 171.907 40.1741C172.087 40.3761 172.189 40.6502 172.189 40.936V45.6905H174.263V41.8047C174.265 40.8601 174.6 39.9546 175.196 39.2868C175.793 38.6189 176.601 38.2433 177.444 38.2422H180.006V36.098H179.124C178.869 36.098 178.625 35.9844 178.444 35.7824C178.264 35.5803 178.163 35.3062 178.163 35.0205V31.4795C178.163 31.1937 178.264 30.9196 178.444 30.7176C178.625 30.5155 178.869 30.402 179.124 30.402H185.524C185.779 30.402 186.024 30.5155 186.204 30.7176C186.385 30.9196 186.486 31.1937 186.486 31.4795V35.0205C186.486 35.3062 186.385 35.5803 186.204 35.7824C186.024 35.9844 185.779 36.098 185.524 36.098H184.642V38.2422H191.837V36.098H190.956C190.701 36.098 190.457 35.9844 190.276 35.7824C190.096 35.5803 189.995 35.3062 189.995 35.0205V31.4795C189.995 31.1937 190.096 30.9196 190.276 30.7176C190.457 30.5155 190.701 30.402 190.956 30.402H197.355C197.61 30.402 197.855 30.5155 198.035 30.7176C198.215 30.9196 198.317 31.1937 198.317 31.4795V35.0205C198.317 35.3062 198.215 35.5803 198.035 35.7824C197.855 35.9844 197.61 36.098 197.355 36.098H196.474V38.2422H203.669V36.098H202.787C202.532 36.098 202.287 35.9844 202.107 35.7824C201.927 35.5803 201.825 35.3062 201.825 35.0205V31.4795C201.825 31.1937 201.927 30.9196 202.107 30.7176C202.287 30.5155 202.532 30.402 202.787 30.402H209.187C209.442 30.402 209.686 30.5155 209.867 30.7176C210.047 30.9196 210.148 31.1937 210.148 31.4795V35.0205C210.148 35.3062 210.047 35.5803 209.867 35.7824C209.686 35.9844 209.442 36.098 209.187 36.098H208.306V38.2422H210.867C211.569 38.2433 212.25 38.5037 212.806 38.983C213.361 39.4622 213.76 40.1336 213.941 40.8929H216.856V36.6664C216.872 35.6897 217.23 34.7593 217.853 34.0751C218.475 33.391 219.312 33.0077 220.184 33.0077C221.056 33.0077 221.893 33.391 222.515 34.0751C223.137 34.7593 223.495 35.6897 223.512 36.6664V36.6664ZM218.779 59.4449H221.588V56.2986H218.779V59.4449ZM221.588 54.1436V50.9986H218.779V54.1436H221.588ZM221.588 48.8436V45.6972H218.779V48.8436H221.588ZM221.588 43.5422V40.3972H218.779V43.5436L221.588 43.5422ZM218.779 64.7463H221.588V61.6H218.779V64.7463ZM218.779 36.6664V38.2422H221.588V36.6664C221.578 36.2569 221.425 35.8683 221.163 35.5829C220.901 35.2975 220.549 35.1379 220.184 35.1379C219.818 35.1379 219.467 35.2975 219.205 35.5829C218.943 35.8683 218.79 36.2569 218.779 36.6664V36.6664ZM203.753 33.9429H208.225V32.557H203.749L203.753 33.9429ZM205.593 38.2422H206.382V36.098H205.593V38.2422ZM191.918 33.9429H196.393V32.557H191.918V33.9429ZM193.761 38.2422H194.55V36.098H193.761V38.2422ZM180.086 33.9429H184.563V32.557H180.086V33.9429ZM181.929 38.2422H182.719V36.098H181.929V38.2422ZM176.187 41.8047V43.5422H212.12V41.8047C212.119 41.4324 211.987 41.0754 211.752 40.8117C211.518 40.548 211.2 40.399 210.867 40.3972H177.45C177.284 40.3965 177.12 40.4324 176.967 40.5028C176.814 40.5732 176.675 40.6767 176.558 40.8074C176.44 40.9381 176.347 41.0935 176.284 41.2647C176.22 41.4358 176.187 41.6193 176.187 41.8047V41.8047ZM170.265 58.362V42.0135H169.715V63.1166H170.265V58.362ZM174.263 57.2845V47.8401H172.189V57.2845H174.263ZM212.128 45.7013H176.187V63.3455C176.187 63.7191 176.319 64.0772 176.555 64.3413C176.791 64.6055 177.111 64.754 177.444 64.7544H210.861C211.195 64.7544 211.515 64.6058 211.751 64.3413C211.987 64.0769 212.12 63.7182 212.12 63.3442L212.128 45.7013ZM216.856 62.0956V43.0466H214.043V62.0956H216.856ZM221.588 68.4826V66.9013H218.779V68.4826C218.774 68.6931 218.806 68.9028 218.874 69.0991C218.942 69.2954 219.045 69.4744 219.176 69.6256C219.307 69.7767 219.463 69.8968 219.637 69.9788C219.81 70.0608 219.996 70.1031 220.184 70.1031C220.372 70.1031 220.558 70.0608 220.731 69.9788C220.904 69.8968 221.061 69.7767 221.192 69.6256C221.323 69.4744 221.425 69.2954 221.494 69.0991C221.562 68.9028 221.594 68.6931 221.588 68.4826Z" fill="black"/>
<defs>
<clipPath id="clip0_300_541">
<rect width="57.0965" height="48.1983" fill="white" transform="translate(238.235 197.984)"/>
</clipPath>
</defs>
</svg>
