<svg width="2030" height="1105" viewBox="0 0 2030 1105" fill="none" xmlns="http://www.w3.org/2000/svg">
<rect width="2030" height="1105" fill="white"/>
<path d="M438.798 1102.61H434.228C434.228 1044.98 411.594 989.717 371.306 948.968C331.018 908.219 276.375 885.326 219.399 885.326C162.423 885.326 107.781 908.219 67.4927 948.968C27.2045 989.717 4.57094 1044.98 4.57094 1102.61H0.00012207C0.000122937 1043.76 23.1153 987.315 64.2606 945.699C105.406 904.083 161.211 880.703 219.399 880.703C277.588 880.703 333.393 904.083 374.538 945.699C415.683 987.315 438.798 1043.76 438.798 1102.61V1102.61Z" fill="#3F3D56"/>
<path d="M2029.44 1102.61H2024.87C2024.87 1044.98 2002.24 989.717 1961.95 948.968C1921.66 908.219 1867.02 885.326 1810.04 885.326C1753.07 885.326 1698.42 908.219 1658.14 948.968C1617.85 989.717 1595.21 1044.98 1595.21 1102.61H1590.64C1590.64 1043.76 1613.76 987.315 1654.9 945.699C1696.05 904.083 1751.85 880.703 1810.04 880.703C1868.23 880.703 1924.04 904.083 1965.18 945.699C2006.33 987.315 2029.44 1043.76 2029.44 1102.61V1102.61Z" fill="#3F3D56"/>
<path d="M1492.37 573.266H1487.8C1487.8 354.035 1311.46 175.678 1094.71 175.678C877.959 175.678 701.62 354.035 701.62 573.266H697.049C697.049 351.486 875.44 171.055 1094.71 171.055C1313.98 171.055 1492.37 351.486 1492.37 573.266Z" fill="#3F3D56"/>
<path d="M332.527 182.613C382.384 182.613 422.8 141.734 422.8 91.3065C422.8 40.8793 382.384 0 332.527 0C282.67 0 242.253 40.8793 242.253 91.3065C242.253 141.734 282.67 182.613 332.527 182.613Z" fill="#FF6584"/>
<path d="M351.704 719.782L506.794 532.969H811.711L998.049 716.543L994.285 718.991H995.629V1100.83H351.916V718.991L351.704 719.782Z" fill="#3F3D56"/>
<path d="M445.013 638.564H480.169V515.477H445.013V638.564Z" fill="#3F3D56"/>
<path d="M504.376 530.521L695.552 757.222V1100.83H351.916V714.095L504.376 530.521Z" fill="#1976D2"/>
<path d="M651.372 802.211H581.193V874.79H651.372V802.211Z" fill="#3F3D56"/>
<path d="M651.372 900.968H581.193V973.547H651.372V900.968Z" fill="#3F3D56"/>
<path d="M651.372 802.211H581.193V874.79H651.372V802.211Z" fill="white"/>
<path d="M651.372 900.968H581.193V973.547H651.372V900.968Z" fill="white"/>
<path d="M554.315 802.211H484.136V874.79H554.315V802.211Z" fill="#3F3D56"/>
<path d="M554.315 900.968H484.136V973.547H554.315V900.968Z" fill="#3F3D56"/>
<path d="M554.315 802.211H484.136V874.79H554.315V802.211Z" fill="white"/>
<path d="M554.315 900.968H484.136V973.547H554.315V900.968Z" fill="white"/>
<path d="M457.257 802.211H387.078V874.79H457.257V802.211Z" fill="#3F3D56"/>
<path d="M457.257 900.968H387.078V973.547H457.257V900.968Z" fill="#3F3D56"/>
<path d="M457.257 802.211H387.078V874.79H457.257V802.211Z" fill="white"/>
<path d="M457.257 900.968H387.078V973.547H457.257V900.968Z" fill="white"/>
<path d="M1140.42 92.4622H1108.42V173.367H1140.42V92.4622Z" fill="#1976D2"/>
<path d="M1138.13 166.432H866.17V1102.61H1138.13V166.432Z" fill="#1976D2"/>
<path d="M1247.83 166.432H1138.13V1102.61H1247.83V166.432Z" fill="#3F3D56"/>
<path d="M956.443 247.337H915.306V288.945H956.443V247.337Z" fill="white"/>
<path d="M1022.72 247.337H981.583V288.945H1022.72V247.337Z" fill="white"/>
<path d="M1089 247.337H1047.86V288.945H1089V247.337Z" fill="white"/>
<path d="M957.586 342.11H916.449V383.718H957.586V342.11Z" fill="white"/>
<path d="M1023.86 342.11H982.725V383.718H1023.86V342.11Z" fill="white"/>
<path d="M1090.14 342.11H1049V383.718H1090.14V342.11Z" fill="white"/>
<path d="M958.729 436.884H917.591V478.492H958.729V436.884Z" fill="white"/>
<path d="M1025.01 436.884H983.868V478.492H1025.01V436.884Z" fill="white"/>
<path d="M1091.28 436.884H1050.14V478.492H1091.28V436.884Z" fill="white"/>
<path d="M959.871 531.658H918.734V573.266H959.871V531.658Z" fill="white"/>
<path d="M1026.15 531.658H985.011V573.266H1026.15V531.658Z" fill="white"/>
<path d="M1092.42 531.658H1051.29V573.266H1092.42V531.658Z" fill="white"/>
<path d="M961.014 626.432H919.877V668.04H961.014V626.432Z" fill="white"/>
<path d="M1027.29 626.432H986.154V668.04H1027.29V626.432Z" fill="white"/>
<path d="M1093.57 626.432H1052.43V668.04H1093.57V626.432Z" fill="white"/>
<path d="M962.157 721.206H921.019V762.814H962.157V721.206Z" fill="white"/>
<path d="M1028.43 721.206H987.296V762.814H1028.43V721.206Z" fill="white"/>
<path d="M1094.71 721.206H1053.57V762.814H1094.71V721.206Z" fill="white"/>
<path d="M963.299 815.979H922.162V857.587H963.299V815.979Z" fill="white"/>
<path d="M1029.58 815.979H988.439V857.587H1029.58V815.979Z" fill="white"/>
<path d="M1095.85 815.979H1054.72V857.587H1095.85V815.979Z" fill="white"/>
<path d="M964.442 910.753H923.305V952.361H964.442V910.753Z" fill="white"/>
<path d="M1030.72 910.753H989.582V952.361H1030.72V910.753Z" fill="white"/>
<path d="M1030.72 1021.71H989.582V1100.3H1030.72V1021.71Z" fill="white"/>
<path d="M1097 910.753H1055.86V952.361H1097V910.753Z" fill="white"/>
<path d="M1156.42 92.4622H1138.13V171.055H1156.42V92.4622Z" fill="#3F3D56"/>
<path d="M1483.23 503.919H1451.23V551.87H1483.23V503.919Z" fill="#1976D2"/>
<path d="M1480.94 547.76H1208.98V1102.61H1480.94V547.76Z" fill="#1976D2"/>
<path d="M1590.64 547.76H1480.94V1102.61H1590.64V547.76Z" fill="#3F3D56"/>
<path d="M1303.83 626.432H1262.69V668.04H1303.83V626.432Z" fill="white"/>
<path d="M1370.1 626.432H1328.96V668.04H1370.1V626.432Z" fill="white"/>
<path d="M1436.38 626.432H1395.24V668.04H1436.38V626.432Z" fill="white"/>
<path d="M1304.97 721.206H1263.83V762.814H1304.97V721.206Z" fill="white"/>
<path d="M1371.24 721.206H1330.11V762.814H1371.24V721.206Z" fill="white"/>
<path d="M1437.52 721.206H1396.38V762.814H1437.52V721.206Z" fill="white"/>
<path d="M1306.11 815.979H1264.97V857.587H1306.11V815.979Z" fill="white"/>
<path d="M1372.39 815.979H1331.25V857.587H1372.39V815.979Z" fill="white"/>
<path d="M1438.66 815.979H1397.53V857.587H1438.66V815.979Z" fill="white"/>
<path d="M1307.25 910.753H1266.12V952.361H1307.25V910.753Z" fill="white"/>
<path d="M1373.53 910.753H1332.39V952.361H1373.53V910.753Z" fill="white"/>
<path d="M1373.53 1021.71H1332.39V1100.3H1373.53V1021.71Z" fill="white"/>
<path d="M1439.81 910.753H1398.67V952.361H1439.81V910.753Z" fill="white"/>
<path d="M1499.23 503.919H1480.94V550.5H1499.23V503.919Z" fill="#3F3D56"/>
<path d="M2030 1099.82H0.557861V1105H2030V1099.82Z" fill="#3F3D56"/>
<path d="M1674.43 994.157C1707.29 994.157 1733.94 967.207 1733.94 933.963C1733.94 900.718 1707.29 873.768 1674.43 873.768C1641.56 873.768 1614.91 900.718 1614.91 933.963C1614.91 967.207 1641.56 994.157 1674.43 994.157Z" fill="#1976D2"/>
<path opacity="0.2" d="M1718.7 893.758C1724.25 906.891 1725 921.594 1720.82 935.238C1716.64 948.882 1707.8 960.578 1695.88 968.236C1683.96 975.894 1669.73 979.016 1655.75 977.043C1641.76 975.07 1628.92 968.13 1619.53 957.465C1622.92 965.49 1628 972.672 1634.4 978.516C1640.81 984.359 1648.4 988.723 1656.64 991.306C1664.88 993.889 1673.58 994.629 1682.13 993.475C1690.68 992.32 1698.89 989.299 1706.17 984.62C1713.45 979.941 1719.64 973.717 1724.31 966.378C1728.98 959.039 1732.01 950.762 1733.21 942.119C1734.4 933.476 1733.72 924.674 1731.21 916.324C1728.71 907.973 1724.44 900.273 1718.7 893.758V893.758Z" fill="black"/>
<path d="M1674.59 933.964H1674.75L1677.7 1104.62H1671.48L1674.59 933.964Z" fill="#3F3D56"/>
<path d="M1685.43 1026.92L1684.06 1024.29L1674.22 1029.53L1675.59 1032.16L1685.43 1026.92Z" fill="#3F3D56"/>
<path d="M1849.39 936.639C1899.38 936.639 1939.89 895.657 1939.89 845.103C1939.89 794.549 1899.38 753.567 1849.39 753.567C1799.41 753.567 1758.89 794.549 1758.89 845.103C1758.89 895.657 1799.41 936.639 1849.39 936.639Z" fill="#1976D2"/>
<path opacity="0.2" d="M1916.71 783.965C1925.16 803.937 1926.3 826.295 1919.95 847.043C1913.59 867.791 1900.15 885.577 1882.02 897.223C1863.89 908.868 1842.26 913.615 1820.99 910.615C1799.72 907.614 1780.2 897.062 1765.91 880.844C1771.07 893.046 1778.79 903.968 1788.53 912.854C1798.28 921.74 1809.82 928.377 1822.35 932.305C1834.88 936.233 1848.11 937.358 1861.11 935.602C1874.12 933.847 1886.59 929.252 1897.66 922.137C1908.74 915.022 1918.15 905.557 1925.25 894.397C1932.35 883.237 1936.97 870.65 1938.78 857.506C1940.59 844.363 1939.56 830.979 1935.75 818.28C1931.94 805.582 1925.44 793.873 1916.71 783.965V783.965Z" fill="black"/>
<path d="M1849.64 845.103H1849.89L1854.37 1104.62H1844.92L1849.64 845.103Z" fill="#3F3D56"/>
<path d="M1866.12 986.462L1864.04 982.457L1849.08 990.423L1851.16 994.429L1866.12 986.462Z" fill="#3F3D56"/>
<path d="M60.9282 991.845C93.7965 991.845 120.442 964.895 120.442 931.651C120.442 898.407 93.7965 871.457 60.9282 871.457C28.0599 871.457 1.41492 898.407 1.41492 931.651C1.41492 964.895 28.0599 991.845 60.9282 991.845Z" fill="#1976D2"/>
<path opacity="0.2" d="M105.198 891.446C110.749 904.58 111.502 919.282 107.322 932.926C103.143 946.57 94.3027 958.266 82.3819 965.924C70.4611 973.583 56.2364 976.704 42.2496 974.731C28.2629 972.758 15.4254 965.819 6.03131 955.154C9.42243 963.178 14.4979 970.361 20.906 976.204C27.314 982.048 34.9016 986.412 43.1429 988.995C51.3841 991.578 60.0822 992.318 68.6342 991.163C77.1863 990.009 85.3879 986.987 92.6709 982.309C99.9539 977.63 106.144 971.405 110.813 964.067C115.481 956.728 118.516 948.45 119.708 939.807C120.899 931.164 120.219 922.363 117.714 914.012C115.208 905.661 110.938 897.961 105.198 891.446H105.198Z" fill="black"/>
<path d="M61.0912 931.652H61.2558L64.1971 1102.31H57.9854L61.0912 931.652Z" fill="#3F3D56"/>
<path d="M71.9281 1024.61L70.5571 1021.97L60.7193 1027.21L62.0903 1029.85L71.9281 1024.61Z" fill="#3F3D56"/>
<path d="M1385.9 86.3038L1406.94 69.2842C1390.6 67.4604 1383.88 76.4761 1381.13 83.6121C1368.36 78.2493 1354.46 85.2775 1354.46 85.2775L1396.56 100.734C1394.44 94.9972 1390.74 89.9914 1385.9 86.3038V86.3038Z" fill="#3F3D56"/>
<path d="M330.044 171.831L351.082 154.812C334.738 152.988 328.023 162.004 325.274 169.14C312.506 163.777 298.606 170.805 298.606 170.805L340.7 186.262C338.577 180.525 334.88 175.519 330.044 171.831V171.831Z" fill="#3F3D56"/>
<path d="M1705.86 259.67L1726.9 242.651C1710.55 240.827 1703.84 249.843 1701.09 256.979C1688.32 251.616 1674.42 258.644 1674.42 258.644L1716.52 274.101C1714.39 268.364 1710.7 263.358 1705.86 259.67V259.67Z" fill="#3F3D56"/>
<path d="M503.735 125.6L524.773 108.581C508.429 106.757 501.714 115.773 498.965 122.909C486.197 117.546 472.297 124.574 472.297 124.574L514.391 140.031C512.268 134.294 508.571 129.288 503.735 125.6V125.6Z" fill="#3F3D56"/>
<path d="M542.587 310.525L563.625 293.505C547.281 291.681 540.566 300.697 537.817 307.833C525.049 302.47 511.148 309.498 511.148 309.498L553.243 324.955C551.12 319.218 547.423 314.212 542.587 310.525V310.525Z" fill="#3F3D56"/>
<path d="M1360.76 407.61L1381.8 390.591C1365.46 388.767 1358.74 397.782 1355.99 404.918C1343.22 399.556 1329.32 406.584 1329.32 406.584L1371.42 422.041C1369.3 416.304 1365.6 411.298 1360.76 407.61Z" fill="#3F3D56"/>
<path d="M242.253 1054.07H100.558V1058.69H122.656V1102.61H127.226V1058.69H213.299V1102.61H217.87V1058.69H242.253V1054.07Z" fill="#3F3D56"/>
<path d="M386.234 1072.56C380.641 1072.56 375.147 1074.05 370.306 1076.88C365.389 1072.39 359.287 1069.43 352.741 1068.37C346.195 1067.31 339.486 1068.2 333.429 1070.93C327.371 1073.65 322.226 1078.09 318.618 1083.72C315.009 1089.34 313.093 1095.91 313.101 1102.61H418.114C417.542 1094.45 413.935 1086.82 408.02 1081.24C402.104 1075.67 394.32 1072.57 386.234 1072.56V1072.56Z" fill="#3F3D56"/>
<path d="M927.876 1072.56C922.283 1072.56 916.789 1074.05 911.947 1076.88C907.031 1072.39 900.929 1069.43 894.383 1068.37C887.836 1067.31 881.128 1068.2 875.07 1070.93C869.013 1073.65 863.868 1078.09 860.259 1083.72C856.651 1089.34 854.735 1095.91 854.743 1102.61H959.756C959.184 1094.45 955.577 1086.82 949.661 1081.24C943.746 1075.67 935.962 1072.57 927.876 1072.56V1072.56Z" fill="#3F3D56"/>
<path d="M1282.11 1072.56C1276.52 1072.56 1271.03 1074.05 1266.19 1076.88C1261.27 1072.39 1255.17 1069.43 1248.62 1068.37C1242.07 1067.31 1235.37 1068.2 1229.31 1070.93C1223.25 1073.65 1218.11 1078.09 1214.5 1083.72C1210.89 1089.34 1208.97 1095.91 1208.98 1102.61H1313.99C1313.42 1094.45 1309.81 1086.82 1303.9 1081.24C1297.98 1075.67 1290.2 1072.57 1282.11 1072.56V1072.56Z" fill="#3F3D56"/>
<path d="M1748.34 1072.56C1742.74 1072.56 1737.25 1074.05 1732.41 1076.88C1727.49 1072.39 1721.39 1069.43 1714.84 1068.37C1708.3 1067.31 1701.59 1068.2 1695.53 1070.93C1689.47 1073.65 1684.33 1078.09 1680.72 1083.72C1677.11 1089.34 1675.2 1095.91 1675.2 1102.61H1780.22C1779.65 1094.45 1776.04 1086.82 1770.12 1081.24C1764.21 1075.67 1756.42 1072.57 1748.34 1072.56V1072.56Z" fill="#3F3D56"/>
<path d="M1972.31 1072.56C1966.71 1072.56 1961.22 1074.05 1956.38 1076.88C1951.46 1072.39 1945.36 1069.43 1938.81 1068.37C1932.27 1067.31 1925.56 1068.2 1919.5 1070.93C1913.44 1073.65 1908.3 1078.09 1904.69 1083.72C1901.08 1089.34 1899.17 1095.91 1899.17 1102.61H2004.19C2003.62 1094.45 2000.01 1086.82 1994.09 1081.24C1988.18 1075.67 1980.39 1072.57 1972.31 1072.56V1072.56Z" fill="#3F3D56"/>
<path d="M294.818 940.803H258.251V977.788H275.202V1102.41H279.773V977.788H294.818V940.803Z" fill="#3F3D56"/>
<path d="M242.532 1040.24H100.837V1044.86H242.532V1040.24Z" fill="#3F3D56"/>
<path d="M242.532 1028.68H100.837V1033.3H242.532V1028.68Z" fill="#3F3D56"/>
<path d="M242.532 1017.12H100.837V1021.75H242.532V1017.12Z" fill="#3F3D56"/>
</svg>
