<svg width="298" height="75" viewBox="0 0 298 75" fill="none" xmlns="http://www.w3.org/2000/svg">
<g clip-path="url(#clip0_294_324)">
<path d="M73.0276 12.8506C74.4258 12.7472 75.418 13.8017 74.11 14.0291C65.3151 15.5798 46.1015 16.9445 31.3981 21.3072C11.1472 27.3033 15.5672 32.9066 26.7977 33.0099C54.0395 33.2787 82.048 15.2697 86.6485 16.0968C91.2489 16.9238 66.2171 33.0513 86.4681 35.1603C112.267 37.8482 211.762 8.57058 210.996 9.00478C191.06 20.2527 46.8231 61.6673 72.5766 25.4424C72.7119 25.2357 69.6449 26.2902 69.3292 26.4556C49.2587 36.4009 16.9654 40.3294 11.2825 33.3821C7.13309 28.3164 13.6278 24.3879 22.513 20.9764C37.7576 15.1456 66.0367 13.4295 73.0276 12.8506Z" fill="white"/>
<path d="M179.831 8.98947C177.168 8.72076 175.814 10.457 178.342 10.9531C187.278 12.7306 204.338 12.5859 225.686 7.93532C266.531 -0.952545 205.151 32.8834 199.509 40.2624C196.485 44.1896 202.352 47.7447 220.902 41.9572C244.642 34.5576 269.33 31.4572 286.254 32.8213C295.416 33.5655 268.066 24.3675 214.719 40.2624C185.473 48.9642 257.776 8.47273 248.253 5.10361C235.615 0.597665 205.467 11.5111 179.831 8.98947Z" fill="white"/>
<path d="M44.7598 66.3091L50.7217 71.0303L48.627 72.9639L42.7617 68.3071L44.7598 66.3091ZM50.6411 56.5283V58.0107C50.6411 59.7725 50.4209 61.3516 49.9805 62.748C49.54 64.1445 48.9062 65.3315 48.0791 66.3091C47.252 67.2866 46.2583 68.0332 45.0981 68.5488C43.9487 69.0645 42.6597 69.3223 41.231 69.3223C39.8452 69.3223 38.5723 69.0645 37.4121 68.5488C36.2627 68.0332 35.2637 67.2866 34.415 66.3091C33.5771 65.3315 32.9272 64.1445 32.4653 62.748C32.0034 61.3516 31.7725 59.7725 31.7725 58.0107V56.5283C31.7725 54.7666 31.998 53.1929 32.4492 51.8071C32.9111 50.4106 33.561 49.2236 34.3989 48.2461C35.2368 47.2578 36.2305 46.5059 37.3799 45.9902C38.54 45.4746 39.813 45.2168 41.1987 45.2168C42.6274 45.2168 43.9219 45.4746 45.082 45.9902C46.2422 46.5059 47.2358 47.2578 48.063 48.2461C48.8901 49.2236 49.5239 50.4106 49.9644 51.8071C50.4155 53.1929 50.6411 54.7666 50.6411 56.5283ZM47.5635 58.0107V56.4961C47.5635 55.0996 47.4185 53.8643 47.1284 52.79C46.8491 51.7158 46.4355 50.8135 45.8877 50.083C45.3398 49.3525 44.6738 48.7993 43.8896 48.4233C43.1055 48.0474 42.2085 47.8594 41.1987 47.8594C40.2427 47.8594 39.3726 48.0474 38.5884 48.4233C37.8149 48.7993 37.1489 49.3525 36.5903 50.083C36.0317 50.8135 35.6021 51.7158 35.3013 52.79C35.0005 53.8643 34.8501 55.0996 34.8501 56.4961V58.0107C34.8501 59.418 35.0005 60.6641 35.3013 61.749C35.6021 62.8232 36.0317 63.731 36.5903 64.4722C37.1597 65.2026 37.8364 65.7559 38.6206 66.1318C39.4048 66.5078 40.2749 66.6958 41.231 66.6958C42.2407 66.6958 43.1377 66.5078 43.9219 66.1318C44.7061 65.7559 45.3667 65.2026 45.9038 64.4722C46.4517 63.731 46.8652 62.8232 47.1445 61.749C47.4238 60.6641 47.5635 59.418 47.5635 58.0107ZM65.6587 64.9717V51.5654H68.6558V69H65.8037L65.6587 64.9717ZM66.2227 61.2979L67.4634 61.2656C67.4634 62.4258 67.3398 63.5 67.0928 64.4883C66.8564 65.4658 66.4697 66.3145 65.9326 67.0342C65.3955 67.7539 64.6919 68.3179 63.8218 68.7261C62.9517 69.1235 61.8936 69.3223 60.6475 69.3223C59.7988 69.3223 59.02 69.1987 58.311 68.9517C57.6128 68.7046 57.0112 68.3232 56.5063 67.8076C56.0015 67.292 55.6094 66.6206 55.3301 65.7935C55.0615 64.9663 54.9272 63.9727 54.9272 62.8125V51.5654H57.9082V62.8447C57.9082 63.6289 57.9941 64.2788 58.166 64.7944C58.3486 65.2993 58.5903 65.7021 58.8911 66.0029C59.2026 66.293 59.5464 66.4971 59.9224 66.6152C60.3091 66.7334 60.7065 66.7925 61.1147 66.7925C62.3823 66.7925 63.3867 66.5508 64.1279 66.0674C64.8691 65.5732 65.4009 64.9126 65.7231 64.0854C66.0562 63.2476 66.2227 62.3184 66.2227 61.2979ZM83.48 66.019V57.0439C83.48 56.3564 83.3403 55.7603 83.061 55.2554C82.7925 54.7397 82.3843 54.3423 81.8364 54.063C81.2886 53.7837 80.6118 53.644 79.8062 53.644C79.0542 53.644 78.3936 53.7729 77.8242 54.0308C77.2656 54.2886 76.8252 54.627 76.5029 55.0459C76.1914 55.4648 76.0356 55.916 76.0356 56.3994H73.0547C73.0547 55.7764 73.2158 55.1587 73.5381 54.5464C73.8604 53.9341 74.3223 53.3809 74.9238 52.8867C75.5361 52.3818 76.2666 51.9844 77.1152 51.6943C77.9746 51.3936 78.9307 51.2432 79.9834 51.2432C81.251 51.2432 82.3682 51.458 83.335 51.8877C84.3125 52.3174 85.0752 52.9673 85.623 53.8374C86.1816 54.6968 86.4609 55.7764 86.4609 57.0762V65.1973C86.4609 65.7773 86.5093 66.395 86.606 67.0503C86.7134 67.7056 86.8691 68.2695 87.0732 68.7422V69H83.9634C83.813 68.6562 83.6948 68.1997 83.6089 67.6304C83.5229 67.0503 83.48 66.5132 83.48 66.019ZM83.9956 58.4297L84.0278 60.5244H81.0146C80.166 60.5244 79.4087 60.5942 78.7427 60.7339C78.0767 60.8628 77.5181 61.0615 77.0669 61.3301C76.6157 61.5986 76.272 61.937 76.0356 62.3452C75.7993 62.7427 75.6812 63.21 75.6812 63.7471C75.6812 64.2949 75.8047 64.7944 76.0518 65.2456C76.2988 65.6968 76.6694 66.0566 77.1636 66.3252C77.6685 66.583 78.2861 66.7119 79.0166 66.7119C79.9297 66.7119 80.7354 66.5186 81.4336 66.1318C82.1318 65.7451 82.6851 65.2725 83.0933 64.7139C83.5122 64.1553 83.7378 63.6128 83.77 63.0864L85.043 64.5205C84.9678 64.9717 84.7637 65.4712 84.4307 66.019C84.0977 66.5669 83.6519 67.0933 83.0933 67.5981C82.5454 68.0923 81.8901 68.5059 81.1274 68.8389C80.3755 69.1611 79.5269 69.3223 78.5815 69.3223C77.3999 69.3223 76.3633 69.0913 75.4717 68.6294C74.5908 68.1675 73.9033 67.5498 73.4092 66.7764C72.9258 65.9922 72.6841 65.1167 72.6841 64.1499C72.6841 63.2153 72.8667 62.3936 73.2319 61.6846C73.5972 60.9648 74.1235 60.3687 74.811 59.896C75.4985 59.4126 76.3257 59.0474 77.2925 58.8003C78.2593 58.5532 79.3389 58.4297 80.5312 58.4297H83.9956ZM94.3887 44.25V69H91.3916V44.25H94.3887ZM102.413 51.5654V69H99.416V51.5654H102.413ZM99.1904 46.9409C99.1904 46.4575 99.3354 46.0493 99.6255 45.7163C99.9263 45.3833 100.367 45.2168 100.947 45.2168C101.516 45.2168 101.951 45.3833 102.252 45.7163C102.563 46.0493 102.719 46.4575 102.719 46.9409C102.719 47.4028 102.563 47.8003 102.252 48.1333C101.951 48.4556 101.516 48.6167 100.947 48.6167C100.367 48.6167 99.9263 48.4556 99.6255 48.1333C99.3354 47.8003 99.1904 47.4028 99.1904 46.9409ZM114.498 51.5654V53.8535H105.072V51.5654H114.498ZM108.262 47.3276H111.243V64.6816C111.243 65.2725 111.334 65.7183 111.517 66.019C111.7 66.3198 111.936 66.5186 112.226 66.6152C112.516 66.7119 112.828 66.7603 113.161 66.7603C113.408 66.7603 113.666 66.7388 113.934 66.6958C114.213 66.6421 114.423 66.5991 114.562 66.5669L114.579 69C114.342 69.0752 114.031 69.145 113.644 69.2095C113.268 69.2847 112.812 69.3223 112.274 69.3223C111.544 69.3223 110.873 69.1772 110.26 68.8872C109.648 68.5972 109.159 68.1138 108.794 67.437C108.439 66.7495 108.262 65.8257 108.262 64.6655V47.3276ZM122.893 67.1953L127.743 51.5654H130.934L123.94 71.6909C123.779 72.1206 123.564 72.5825 123.296 73.0767C123.038 73.5815 122.705 74.0596 122.297 74.5107C121.889 74.9619 121.395 75.3271 120.814 75.6064C120.245 75.8965 119.563 76.0415 118.768 76.0415C118.532 76.0415 118.231 76.0093 117.866 75.9448C117.5 75.8804 117.243 75.8267 117.092 75.7837L117.076 73.3667C117.162 73.3774 117.296 73.3882 117.479 73.3989C117.672 73.4204 117.807 73.4312 117.882 73.4312C118.559 73.4312 119.133 73.3398 119.606 73.1572C120.079 72.9854 120.476 72.6899 120.798 72.271C121.131 71.8628 121.416 71.2988 121.652 70.5791L122.893 67.1953ZM119.332 51.5654L123.86 65.1006L124.633 68.2427L122.49 69.3384L116.077 51.5654H119.332ZM154.765 63.0703C154.765 62.5225 154.679 62.0391 154.507 61.6201C154.346 61.1904 154.056 60.8037 153.637 60.46C153.229 60.1162 152.66 59.7886 151.929 59.4771C151.209 59.1655 150.296 58.8486 149.19 58.5264C148.03 58.1826 146.982 57.8013 146.048 57.3823C145.113 56.9526 144.313 56.4639 143.647 55.916C142.981 55.3682 142.471 54.7397 142.116 54.0308C141.762 53.3218 141.584 52.5107 141.584 51.5977C141.584 50.6846 141.772 49.8413 142.148 49.0679C142.524 48.2944 143.062 47.623 143.76 47.0537C144.469 46.4736 145.312 46.0225 146.29 45.7002C147.267 45.3779 148.357 45.2168 149.561 45.2168C151.322 45.2168 152.815 45.5552 154.04 46.2319C155.275 46.8979 156.215 47.7734 156.86 48.8584C157.504 49.9326 157.827 51.082 157.827 52.3066H154.733C154.733 51.4258 154.545 50.647 154.169 49.9702C153.793 49.2827 153.224 48.7456 152.461 48.3589C151.698 47.9614 150.731 47.7627 149.561 47.7627C148.454 47.7627 147.541 47.9292 146.821 48.2622C146.102 48.5952 145.564 49.0464 145.21 49.6157C144.866 50.1851 144.694 50.835 144.694 51.5654C144.694 52.0596 144.796 52.5107 145 52.9189C145.215 53.3164 145.543 53.687 145.983 54.0308C146.435 54.3745 147.004 54.6914 147.691 54.9814C148.39 55.2715 149.222 55.5508 150.189 55.8193C151.521 56.1953 152.67 56.6143 153.637 57.0762C154.604 57.5381 155.399 58.0591 156.022 58.6392C156.656 59.2085 157.123 59.8584 157.424 60.5889C157.735 61.3086 157.891 62.125 157.891 63.0381C157.891 63.9941 157.698 64.8589 157.311 65.6323C156.924 66.4058 156.371 67.0664 155.651 67.6143C154.932 68.1621 154.067 68.5864 153.057 68.8872C152.058 69.1772 150.941 69.3223 149.706 69.3223C148.621 69.3223 147.552 69.1719 146.499 68.8711C145.457 68.5703 144.506 68.1191 143.647 67.5176C142.798 66.916 142.116 66.1748 141.601 65.2939C141.096 64.4023 140.843 63.3711 140.843 62.2002H143.937C143.937 63.0059 144.093 63.6987 144.404 64.2788C144.716 64.8481 145.14 65.3208 145.677 65.6968C146.225 66.0728 146.843 66.3521 147.53 66.5347C148.229 66.7065 148.954 66.7925 149.706 66.7925C150.791 66.7925 151.709 66.6421 152.461 66.3413C153.213 66.0405 153.782 65.6108 154.169 65.0522C154.566 64.4937 154.765 63.833 154.765 63.0703ZM168.639 69.3223C167.425 69.3223 166.324 69.1182 165.335 68.71C164.358 68.291 163.515 67.7056 162.806 66.9536C162.107 66.2017 161.57 65.3101 161.194 64.2788C160.818 63.2476 160.63 62.1196 160.63 60.895V60.2183C160.63 58.8003 160.84 57.5381 161.259 56.4316C161.678 55.3145 162.247 54.3691 162.967 53.5957C163.687 52.8223 164.503 52.2368 165.416 51.8394C166.329 51.4419 167.274 51.2432 168.252 51.2432C169.498 51.2432 170.572 51.458 171.475 51.8877C172.388 52.3174 173.134 52.9189 173.714 53.6924C174.294 54.4551 174.724 55.3574 175.003 56.3994C175.283 57.4307 175.422 58.5586 175.422 59.7832V61.1206H162.403V58.6875H172.441V58.4619C172.398 57.6885 172.237 56.9365 171.958 56.2061C171.689 55.4756 171.26 54.874 170.669 54.4014C170.078 53.9287 169.272 53.6924 168.252 53.6924C167.575 53.6924 166.952 53.8374 166.383 54.1274C165.813 54.4067 165.325 54.8257 164.917 55.3843C164.508 55.9429 164.191 56.625 163.966 57.4307C163.74 58.2363 163.627 59.1655 163.627 60.2183V60.895C163.627 61.7222 163.74 62.501 163.966 63.2314C164.202 63.9512 164.541 64.585 164.981 65.1328C165.432 65.6807 165.975 66.1104 166.608 66.4219C167.253 66.7334 167.983 66.8892 168.8 66.8892C169.853 66.8892 170.744 66.6743 171.475 66.2446C172.205 65.8149 172.844 65.2402 173.392 64.5205L175.197 65.9546C174.821 66.5239 174.343 67.0664 173.763 67.582C173.183 68.0977 172.468 68.5166 171.62 68.8389C170.782 69.1611 169.788 69.3223 168.639 69.3223ZM181.884 54.3047V69H178.903V51.5654H181.803L181.884 54.3047ZM187.33 51.4688L187.314 54.2402C187.067 54.1865 186.831 54.1543 186.605 54.1436C186.39 54.1221 186.143 54.1113 185.864 54.1113C185.176 54.1113 184.569 54.2188 184.043 54.4336C183.517 54.6484 183.071 54.9492 182.706 55.3359C182.34 55.7227 182.05 56.1846 181.835 56.7217C181.631 57.248 181.497 57.8281 181.433 58.4619L180.595 58.9453C180.595 57.8926 180.697 56.9043 180.901 55.9805C181.116 55.0566 181.443 54.2402 181.884 53.5312C182.324 52.8115 182.883 52.2529 183.56 51.8555C184.247 51.4473 185.063 51.2432 186.009 51.2432C186.224 51.2432 186.471 51.27 186.75 51.3237C187.029 51.3667 187.223 51.415 187.33 51.4688ZM195.677 66.3091L200.446 51.5654H203.492L197.224 69H195.226L195.677 66.3091ZM191.697 51.5654L196.611 66.3896L196.95 69H194.952L188.635 51.5654H191.697ZM209.599 51.5654V69H206.602V51.5654H209.599ZM206.376 46.9409C206.376 46.4575 206.521 46.0493 206.811 45.7163C207.112 45.3833 207.552 45.2168 208.132 45.2168C208.702 45.2168 209.137 45.3833 209.438 45.7163C209.749 46.0493 209.905 46.4575 209.905 46.9409C209.905 47.4028 209.749 47.8003 209.438 48.1333C209.137 48.4556 208.702 48.6167 208.132 48.6167C207.552 48.6167 207.112 48.4556 206.811 48.1333C206.521 47.8003 206.376 47.4028 206.376 46.9409ZM221.361 66.873C222.07 66.873 222.726 66.728 223.327 66.438C223.929 66.1479 224.423 65.7505 224.81 65.2456C225.196 64.73 225.417 64.1445 225.47 63.4893H228.306C228.252 64.5205 227.903 65.4819 227.259 66.3735C226.625 67.2544 225.792 67.9688 224.761 68.5166C223.73 69.0537 222.597 69.3223 221.361 69.3223C220.051 69.3223 218.907 69.0913 217.929 68.6294C216.962 68.1675 216.157 67.5337 215.512 66.728C214.878 65.9224 214.4 64.9985 214.078 63.9565C213.767 62.9038 213.611 61.792 213.611 60.6211V59.9443C213.611 58.7734 213.767 57.667 214.078 56.625C214.4 55.5723 214.878 54.6431 215.512 53.8374C216.157 53.0317 216.962 52.3979 217.929 51.936C218.907 51.4741 220.051 51.2432 221.361 51.2432C222.726 51.2432 223.918 51.5225 224.938 52.0811C225.959 52.6289 226.759 53.3809 227.339 54.3369C227.93 55.2822 228.252 56.3564 228.306 57.5596H225.47C225.417 56.8398 225.212 56.1899 224.858 55.6099C224.514 55.0298 224.042 54.5679 223.44 54.2241C222.849 53.8696 222.156 53.6924 221.361 53.6924C220.448 53.6924 219.68 53.875 219.057 54.2402C218.445 54.5947 217.956 55.0781 217.591 55.6904C217.236 56.292 216.979 56.9634 216.817 57.7046C216.667 58.4351 216.592 59.1816 216.592 59.9443V60.6211C216.592 61.3838 216.667 62.1357 216.817 62.877C216.968 63.6182 217.22 64.2896 217.575 64.8911C217.94 65.4927 218.429 65.9761 219.041 66.3413C219.664 66.6958 220.438 66.873 221.361 66.873ZM238.893 69.3223C237.679 69.3223 236.578 69.1182 235.589 68.71C234.612 68.291 233.769 67.7056 233.06 66.9536C232.361 66.2017 231.824 65.3101 231.448 64.2788C231.072 63.2476 230.884 62.1196 230.884 60.895V60.2183C230.884 58.8003 231.094 57.5381 231.513 56.4316C231.932 55.3145 232.501 54.3691 233.221 53.5957C233.94 52.8223 234.757 52.2368 235.67 51.8394C236.583 51.4419 237.528 51.2432 238.506 51.2432C239.752 51.2432 240.826 51.458 241.729 51.8877C242.642 52.3174 243.388 52.9189 243.968 53.6924C244.548 54.4551 244.978 55.3574 245.257 56.3994C245.537 57.4307 245.676 58.5586 245.676 59.7832V61.1206H232.657V58.6875H242.695V58.4619C242.652 57.6885 242.491 56.9365 242.212 56.2061C241.943 55.4756 241.514 54.874 240.923 54.4014C240.332 53.9287 239.526 53.6924 238.506 53.6924C237.829 53.6924 237.206 53.8374 236.637 54.1274C236.067 54.4067 235.579 54.8257 235.17 55.3843C234.762 55.9429 234.445 56.625 234.22 57.4307C233.994 58.2363 233.881 59.1655 233.881 60.2183V60.895C233.881 61.7222 233.994 62.501 234.22 63.2314C234.456 63.9512 234.794 64.585 235.235 65.1328C235.686 65.6807 236.229 66.1104 236.862 66.4219C237.507 66.7334 238.237 66.8892 239.054 66.8892C240.106 66.8892 240.998 66.6743 241.729 66.2446C242.459 65.8149 243.098 65.2402 243.646 64.5205L245.451 65.9546C245.075 66.5239 244.597 67.0664 244.017 67.582C243.437 68.0977 242.722 68.5166 241.874 68.8389C241.036 69.1611 240.042 69.3223 238.893 69.3223ZM259.308 64.3755C259.308 63.9458 259.211 63.5483 259.018 63.1831C258.835 62.8071 258.454 62.4688 257.874 62.168C257.305 61.8564 256.445 61.5879 255.296 61.3623C254.329 61.1582 253.454 60.9165 252.669 60.6372C251.896 60.3579 251.235 60.0195 250.688 59.6221C250.15 59.2246 249.737 58.7573 249.447 58.2202C249.157 57.6831 249.012 57.0547 249.012 56.335C249.012 55.6475 249.162 54.9976 249.463 54.3853C249.774 53.7729 250.209 53.2305 250.768 52.7578C251.337 52.2852 252.02 51.9146 252.814 51.646C253.609 51.3774 254.496 51.2432 255.473 51.2432C256.87 51.2432 258.062 51.4902 259.05 51.9844C260.039 52.4785 260.796 53.1392 261.322 53.9663C261.849 54.7827 262.112 55.6904 262.112 56.6895H259.131C259.131 56.2061 258.986 55.7388 258.696 55.2876C258.417 54.8257 258.003 54.4443 257.455 54.1436C256.918 53.8428 256.257 53.6924 255.473 53.6924C254.646 53.6924 253.975 53.8213 253.459 54.0791C252.954 54.3262 252.583 54.6431 252.347 55.0298C252.122 55.4165 252.009 55.8247 252.009 56.2544C252.009 56.5767 252.062 56.8667 252.17 57.1245C252.288 57.3716 252.492 57.6025 252.782 57.8174C253.072 58.0215 253.48 58.2148 254.007 58.3975C254.533 58.5801 255.205 58.7627 256.021 58.9453C257.45 59.2676 258.626 59.6543 259.55 60.1055C260.474 60.5566 261.161 61.1099 261.612 61.7651C262.063 62.4204 262.289 63.2153 262.289 64.1499C262.289 64.9126 262.128 65.6108 261.806 66.2446C261.494 66.8784 261.038 67.4263 260.436 67.8882C259.845 68.3394 259.136 68.6938 258.309 68.9517C257.493 69.1987 256.574 69.3223 255.554 69.3223C254.018 69.3223 252.718 69.0483 251.654 68.5005C250.591 67.9526 249.785 67.2437 249.237 66.3735C248.689 65.5034 248.416 64.585 248.416 63.6182H251.413C251.456 64.4346 251.692 65.0845 252.122 65.5679C252.551 66.0405 253.078 66.3789 253.701 66.583C254.324 66.7764 254.941 66.873 255.554 66.873C256.37 66.873 257.052 66.7656 257.6 66.5508C258.159 66.3359 258.583 66.0405 258.873 65.6646C259.163 65.2886 259.308 64.8589 259.308 64.3755Z" fill="white"/>
</g>
<defs>
<clipPath id="clip0_294_324">
<rect width="298" height="75" fill="white"/>
</clipPath>
</defs>
</svg>
