<svg width="1354" height="889" viewBox="0 0 1354 889" fill="none" xmlns="http://www.w3.org/2000/svg">
<g clip-path="url(#clip0_285_54)">
<rect width="1354" height="889" fill="white"/>
<path opacity="0.1" d="M704.349 889C942.115 889 1134.86 879.845 1134.86 868.553C1134.86 857.26 942.115 848.105 704.349 848.105C466.583 848.105 273.836 857.26 273.836 868.553C273.836 879.845 466.583 889 704.349 889Z" fill="#6C63FF"/>
<path d="M948.207 788.387L944.505 793.152L921.611 823.044L902.173 828.188L887.672 815.734L888.375 807.513L891.991 764.831C891.991 764.831 802.268 718.51 794.245 709.846C786.223 701.182 755.369 693.33 755.369 693.33C755.369 693.33 708.163 674.107 690.576 640.533C672.989 606.959 719.887 601.815 719.887 601.815L896.064 749.669L948.207 788.387Z" fill="#FFC1C7"/>
<path d="M969.805 805.716L913.959 851.473C913.959 851.473 881.871 856.888 853.177 853.098C834.837 850.672 838.367 841.845 843.192 835.769L843.279 835.661C846.169 832.186 850.395 829.747 855.176 828.795C878.921 823.77 887.116 808.683 887.116 808.683L904.395 821.679L934.323 791.073L956.452 800.192L969.805 805.716Z" fill="#575988"/>
<path opacity="0.1" d="M956.452 800.214L943.308 794.799L944.542 793.152L948.244 788.387L896.064 749.669L719.887 601.836C719.887 601.836 672.989 606.959 690.576 640.533C708.163 674.106 755.369 693.33 755.369 693.33C755.369 693.33 786.223 701.182 794.245 709.846C802.268 718.51 892.053 764.81 892.053 764.81L888.437 807.492L888.264 809.528L887.116 808.672C887.116 808.672 878.921 823.759 855.176 828.784C850.395 829.736 846.169 832.175 843.279 835.65L843.192 835.759C838.256 841.823 834.837 850.65 853.177 853.087C881.871 856.878 913.959 851.462 913.959 851.462L969.805 805.705L956.452 800.214Z" fill="black"/>
<path opacity="0.1" d="M14.6248 465.678C36.0499 546.039 81.4054 615.504 153.073 649.197C302.049 719.182 638 683.085 888.721 641.616C1015.42 620.737 1130.42 563.044 1215.21 477.83L14.6248 465.678Z" fill="#6C63FF"/>
<path opacity="0.1" d="M1329.44 87.4217H1191.87C1188.78 87.3344 1185.85 86.1967 1183.7 84.2493C1181.56 82.3019 1180.35 79.6975 1180.35 76.9867C1180.35 74.276 1181.56 71.6715 1183.7 69.7241C1185.85 67.7767 1188.78 66.6391 1191.87 66.5518H1215.65C1212.5 66.5518 1209.48 65.453 1207.25 63.4971C1205.02 61.5412 1203.77 58.8884 1203.77 56.1223C1203.77 53.3562 1205.02 50.7034 1207.25 48.7475C1209.48 46.7916 1212.5 45.6928 1215.65 45.6928H1198.67C1195.58 45.6055 1192.65 44.4678 1190.5 42.5204C1188.36 40.573 1187.15 37.9686 1187.15 35.2578C1187.15 32.5471 1188.36 29.9426 1190.5 27.9952C1192.65 26.0478 1195.58 24.9102 1198.67 24.8229H1270.47C1254.54 18.3248 1235.92 13.7002 1214.45 11.2743C1018.67 -10.7869 948.763 3.80141 924.104 18.8554C893.682 37.3751 859.742 50.9996 823.47 57.5627C702.671 79.429 476.757 105.736 271.997 49.1368C170.228 20.9782 94.5986 68.5446 49.2554 147.995H1353.32C1351.62 124.905 1346.52 103.591 1337.17 84.9199C1335.01 86.5368 1332.27 87.4243 1329.44 87.4217V87.4217Z" fill="#6C63FF"/>
<path opacity="0.1" d="M2.94962 297.94C-2.33444 344.678 -0.541661 391.823 8.2812 438.148L1216.13 476.91C1249.76 442.972 1277.99 405.192 1300.05 364.6L2.94962 297.94ZM480.669 397.935H456.887C458.481 397.89 460.069 398.127 461.556 398.631C463.044 399.135 464.401 399.897 465.546 400.87C466.692 401.843 467.603 403.009 468.225 404.297C468.847 405.586 469.168 406.971 469.168 408.37C469.168 409.77 468.847 411.155 468.225 412.443C467.603 413.732 466.692 414.897 465.546 415.871C464.401 416.844 463.044 417.606 461.556 418.11C460.069 418.614 458.481 418.85 456.887 418.805H319.315C316.227 418.718 313.3 417.58 311.151 415.633C309.002 413.686 307.801 411.081 307.801 408.37C307.801 405.66 309.002 403.055 311.151 401.108C313.3 399.16 316.227 398.023 319.315 397.935H343.097C339.945 397.935 336.922 396.837 334.693 394.881C332.464 392.925 331.212 390.272 331.212 387.506C331.212 384.74 332.464 382.087 334.693 380.131C336.922 378.175 339.945 377.076 343.097 377.076H326.115C323.028 376.989 320.1 375.851 317.951 373.904C315.802 371.957 314.601 369.352 314.601 366.641C314.601 363.931 315.802 361.326 317.951 359.379C320.1 357.431 323.028 356.294 326.115 356.206H463.687C466.775 356.294 469.702 357.431 471.851 359.379C474 361.326 475.201 363.931 475.201 366.641C475.201 369.352 474 371.957 471.851 373.904C469.702 375.851 466.775 376.989 463.687 377.076H480.669C483.821 377.076 486.844 378.175 489.073 380.131C491.302 382.087 492.554 384.74 492.554 387.506C492.554 390.272 491.302 392.925 489.073 394.881C486.844 396.837 483.821 397.935 480.669 397.935V397.935Z" fill="#6C63FF"/>
<path opacity="0.1" d="M1353.38 148.688L34.7046 176.847C18.6605 213.031 8.08375 253.893 3.14709 296.337H1330.28C1338.94 271.429 1345.35 245.96 1349.45 220.168C1353.4 195.248 1354.98 171.139 1353.38 148.688ZM270.862 240.897H247.079C248.673 240.852 250.261 241.088 251.749 241.593C253.236 242.097 254.593 242.858 255.739 243.832C256.884 244.805 257.795 245.971 258.417 247.259C259.039 248.547 259.36 249.933 259.36 251.332C259.36 252.731 259.039 254.116 258.417 255.405C257.795 256.693 256.884 257.859 255.739 258.832C254.593 259.806 253.236 260.567 251.749 261.071C250.261 261.575 248.673 261.812 247.079 261.767H109.507C106.42 261.68 103.492 260.542 101.343 258.595C99.1945 256.647 97.9931 254.043 97.9931 251.332C97.9931 248.621 99.1945 246.017 101.343 244.069C103.492 242.122 106.42 240.984 109.507 240.897H133.29C130.137 240.897 127.114 239.798 124.886 237.842C122.657 235.886 121.405 233.234 121.405 230.467C121.405 227.701 122.657 225.049 124.886 223.093C127.114 221.137 130.137 220.038 133.29 220.038H116.307C113.22 219.951 110.292 218.813 108.144 216.866C105.995 214.918 104.793 212.314 104.793 209.603C104.793 206.892 105.995 204.288 108.144 202.34C110.292 200.393 113.22 199.255 116.307 199.168H253.88C256.967 199.255 259.895 200.393 262.044 202.34C264.192 204.288 265.394 206.892 265.394 209.603C265.394 212.314 264.192 214.918 262.044 216.866C259.895 218.813 256.967 219.951 253.88 220.038H270.862C274.014 220.038 277.037 221.137 279.266 223.093C281.495 225.049 282.747 227.701 282.747 230.467C282.747 233.234 281.495 235.886 279.266 237.842C277.037 239.798 274.014 240.897 270.862 240.897V240.897Z" fill="#6C63FF"/>
<g opacity="0.1">
<path opacity="0.1" d="M984.01 534.602C984.01 534.602 1018.81 459.332 1083.8 431.412C1111.15 419.855 1133.49 400.823 1147.45 377.174C1153.98 365.904 1159.32 354.133 1163.41 342.008" stroke="#535461" stroke-width="2" stroke-miterlimit="10"/>
<path opacity="0.1" d="M1204.25 324.203C1197.47 331.676 1162.41 342.615 1162.41 342.615C1162.41 342.615 1166.63 310.178 1173.4 302.705C1174.95 300.769 1176.93 299.13 1179.23 297.89C1181.52 296.651 1184.08 295.836 1186.75 295.497C1189.41 295.157 1192.13 295.301 1194.73 295.917C1197.33 296.534 1199.76 297.611 1201.87 299.083C1203.98 300.554 1205.72 302.389 1206.99 304.474C1208.26 306.559 1209.03 308.85 1209.26 311.206C1209.48 313.562 1209.15 315.934 1208.29 318.175C1207.43 320.415 1206.06 322.478 1204.26 324.236L1204.25 324.203Z" fill="#6C63FF"/>
<path opacity="0.1" d="M1192.21 383.39C1181.9 386.434 1145.71 378.863 1145.71 378.863C1145.71 378.863 1169.34 353.651 1179.66 350.607C1182.16 349.708 1184.84 349.269 1187.54 349.316C1190.24 349.364 1192.91 349.897 1195.36 350.882C1197.82 351.868 1200.02 353.285 1201.83 355.046C1203.63 356.808 1205.01 358.876 1205.87 361.123C1206.73 363.369 1207.05 365.747 1206.83 368.109C1206.6 370.47 1205.82 372.766 1204.54 374.853C1203.26 376.94 1201.51 378.775 1199.39 380.243C1197.27 381.711 1194.82 382.783 1192.21 383.39V383.39Z" fill="#6C63FF"/>
<path opacity="0.1" d="M1126.98 453.365C1116.32 451.415 1089.43 428.856 1089.43 428.856C1089.43 428.856 1124.35 417.56 1135 419.498C1139.84 420.662 1144 423.403 1146.63 427.164C1149.25 430.925 1150.14 435.422 1149.12 439.739C1148.1 444.057 1145.24 447.87 1141.12 450.401C1137.01 452.933 1131.95 453.993 1126.98 453.365V453.365Z" fill="#6C63FF"/>
<path opacity="0.1" d="M1064.03 496.545C1053.16 496.22 1022.31 477.96 1022.31 477.96C1022.31 477.96 1054.54 461.65 1065.42 461.985C1068.12 461.911 1070.81 462.325 1073.32 463.201C1075.83 464.076 1078.11 465.395 1080.02 467.076C1081.93 468.757 1083.42 470.763 1084.41 472.971C1085.4 475.18 1085.86 477.542 1085.77 479.913C1085.67 482.284 1085.02 484.613 1083.86 486.755C1082.7 488.897 1081.05 490.806 1079.01 492.365C1076.97 493.925 1074.59 495.1 1072.02 495.819C1069.44 496.538 1066.72 496.785 1064.03 496.545V496.545Z" fill="#6C63FF"/>
<path opacity="0.1" d="M1112.02 357.712C1113.4 367.188 1136.97 392.444 1136.97 392.444C1136.97 392.444 1152.5 362.77 1151.1 353.304C1150.14 348.988 1147.34 345.156 1143.27 342.584C1139.21 340.012 1134.18 338.893 1129.21 339.453C1124.24 340.014 1119.7 342.212 1116.5 345.603C1113.31 348.993 1111.71 353.322 1112.02 357.712Z" fill="#6C63FF"/>
<path opacity="0.1" d="M1039.13 409.036C1043.68 417.701 1074.8 435.625 1074.8 435.625C1074.8 435.625 1079.47 403.242 1074.92 394.567C1072.52 390.705 1068.55 387.785 1063.79 386.4C1059.04 385.015 1053.86 385.268 1049.31 387.108C1044.76 388.947 1041.18 392.236 1039.28 396.308C1037.39 400.38 1037.34 404.93 1039.13 409.036Z" fill="#6C63FF"/>
<path opacity="0.1" d="M976.087 467.455C978.913 476.682 1006.11 498.949 1006.11 498.949C1006.11 498.949 1016.97 467.725 1014.16 458.498C1012.56 454.316 1009.21 450.826 1004.78 448.74C1000.35 446.653 995.181 446.128 990.326 447.27C985.471 448.412 981.295 451.136 978.649 454.887C976.003 458.637 975.087 463.132 976.087 467.455V467.455Z" fill="#6C63FF"/>
<path opacity="0.25" d="M1204.25 324.203C1197.47 331.676 1162.41 342.615 1162.41 342.615C1162.41 342.615 1166.63 310.178 1173.4 302.705C1174.95 300.769 1176.93 299.13 1179.23 297.89C1181.52 296.651 1184.08 295.836 1186.75 295.497C1189.41 295.157 1192.13 295.301 1194.73 295.917C1197.33 296.534 1199.76 297.611 1201.87 299.083C1203.98 300.554 1205.72 302.389 1206.99 304.474C1208.26 306.559 1209.03 308.85 1209.26 311.206C1209.48 313.562 1209.15 315.934 1208.29 318.175C1207.43 320.415 1206.06 322.478 1204.26 324.236L1204.25 324.203Z" fill="black"/>
<path opacity="0.25" d="M1192.21 383.39C1181.9 386.434 1145.71 378.863 1145.71 378.863C1145.71 378.863 1169.34 353.651 1179.66 350.607C1182.16 349.708 1184.84 349.269 1187.54 349.316C1190.24 349.364 1192.91 349.897 1195.36 350.882C1197.82 351.868 1200.02 353.285 1201.83 355.046C1203.63 356.808 1205.01 358.876 1205.87 361.123C1206.73 363.369 1207.05 365.747 1206.83 368.109C1206.6 370.47 1205.82 372.766 1204.54 374.853C1203.26 376.94 1201.51 378.775 1199.39 380.243C1197.27 381.711 1194.82 382.783 1192.21 383.39V383.39Z" fill="black"/>
<path opacity="0.25" d="M1126.98 453.365C1116.32 451.415 1089.43 428.856 1089.43 428.856C1089.43 428.856 1124.35 417.56 1135 419.498C1139.84 420.662 1144 423.403 1146.63 427.164C1149.25 430.925 1150.14 435.422 1149.12 439.739C1148.1 444.057 1145.24 447.87 1141.12 450.401C1137.01 452.933 1131.95 453.993 1126.98 453.365V453.365Z" fill="black"/>
<path opacity="0.25" d="M1064.03 496.545C1053.16 496.22 1022.31 477.96 1022.31 477.96C1022.31 477.96 1054.54 461.65 1065.42 461.985C1068.12 461.911 1070.81 462.325 1073.32 463.201C1075.83 464.076 1078.11 465.395 1080.02 467.076C1081.93 468.757 1083.42 470.763 1084.41 472.971C1085.4 475.18 1085.86 477.542 1085.77 479.913C1085.67 482.284 1085.02 484.613 1083.86 486.755C1082.7 488.897 1081.05 490.806 1079.01 492.365C1076.97 493.925 1074.59 495.1 1072.02 495.819C1069.44 496.538 1066.72 496.785 1064.03 496.545V496.545Z" fill="black"/>
<path opacity="0.25" d="M1112.02 357.712C1113.4 367.188 1136.97 392.444 1136.97 392.444C1136.97 392.444 1152.5 362.77 1151.1 353.304C1150.14 348.988 1147.34 345.156 1143.27 342.584C1139.21 340.012 1134.18 338.893 1129.21 339.453C1124.24 340.014 1119.7 342.212 1116.5 345.603C1113.31 348.993 1111.71 353.322 1112.02 357.712Z" fill="black"/>
<path opacity="0.25" d="M1039.13 409.036C1043.68 417.701 1074.8 435.625 1074.8 435.625C1074.8 435.625 1079.47 403.242 1074.92 394.567C1072.52 390.705 1068.55 387.785 1063.79 386.4C1059.04 385.015 1053.86 385.268 1049.31 387.108C1044.76 388.947 1041.18 392.236 1039.28 396.308C1037.39 400.38 1037.34 404.93 1039.13 409.036Z" fill="black"/>
<path opacity="0.25" d="M976.087 467.455C978.913 476.682 1006.11 498.949 1006.11 498.949C1006.11 498.949 1016.97 467.725 1014.16 458.498C1012.56 454.316 1009.21 450.826 1004.78 448.74C1000.35 446.653 995.181 446.128 990.326 447.27C985.471 448.412 981.295 451.136 978.649 454.887C976.003 458.637 975.087 463.132 976.087 467.455V467.455Z" fill="black"/>
</g>
<g opacity="0.1">
<path opacity="0.1" d="M928.596 414.181C928.596 414.181 932.99 333.041 983.751 287.781C1005.18 268.921 1019.06 244.47 1023.31 218.099C1025.2 205.555 1025.78 192.885 1025.03 180.248" stroke="#535461" stroke-width="2" stroke-miterlimit="10"/>
<path opacity="0.1" d="M1056.86 151.548C1053.3 160.58 1024.34 181.071 1024.34 181.071C1024.34 181.071 1016.07 149.241 1019.63 140.219C1021.58 136.165 1025.21 132.912 1029.79 131.122C1034.37 129.332 1039.55 129.138 1044.29 130.579C1049.03 132.021 1052.96 134.989 1055.3 138.883C1057.63 142.777 1058.19 147.305 1056.86 151.548Z" fill="#6C63FF"/>
<path opacity="0.1" d="M1067.88 210.897C1059.24 216.767 1022.29 220.168 1022.29 220.168C1022.29 220.168 1035.07 189.497 1043.65 183.627C1047.79 181.148 1052.86 180.147 1057.81 180.827C1062.77 181.508 1067.25 183.819 1070.33 187.29C1073.42 190.762 1074.88 195.134 1074.43 199.519C1073.97 203.903 1071.63 207.972 1067.88 210.897V210.897Z" fill="#6C63FF"/>
<path opacity="0.1" d="M1032.78 295.893C1022 297.16 988.095 283.698 988.095 283.698C988.095 283.698 1016.77 262.882 1027.59 261.615C1032.59 261.315 1037.54 262.696 1041.42 265.48C1045.31 268.263 1047.84 272.24 1048.51 276.602C1049.17 280.965 1047.92 285.386 1045.01 288.969C1042.1 292.551 1037.74 295.027 1032.82 295.893H1032.78Z" fill="#6C63FF"/>
<path opacity="0.1" d="M989.712 354.95C979.333 357.809 943.332 349.535 943.332 349.535C943.332 349.535 967.571 324.777 977.963 321.929C980.486 321.064 983.185 320.664 985.892 320.753C988.599 320.843 991.256 321.42 993.697 322.449C996.139 323.479 998.314 324.938 1000.09 326.736C1001.86 328.534 1003.19 330.633 1004 332.902C1004.8 335.171 1005.07 337.561 1004.78 339.925C1004.49 342.288 1003.65 344.574 1002.31 346.64C1000.97 348.706 999.161 350.508 996.993 351.934C994.826 353.36 992.348 354.379 989.712 354.929V354.95Z" fill="#6C63FF"/>
<path opacity="0.1" d="M982.517 210.009C987.454 218.543 1019.2 235.514 1019.2 235.514C1019.2 235.514 1022.61 203.024 1017.73 194.479C1015.19 190.686 1011.1 187.883 1006.29 186.639C1001.48 185.394 996.315 185.801 991.836 187.776C987.357 189.752 983.902 193.149 982.171 197.277C980.441 201.406 980.564 205.958 982.517 210.009V210.009Z" fill="#6C63FF"/>
<path opacity="0.1" d="M933.15 279.647C940.728 286.503 976.84 294.355 976.84 294.355C976.84 294.355 969.028 262.427 961.45 255.572C957.734 252.606 952.871 250.995 947.849 251.065C942.827 251.135 938.025 252.882 934.419 255.95C930.813 259.018 928.675 263.176 928.439 267.578C928.203 271.981 929.888 276.297 933.15 279.647V279.647Z" fill="#6C63FF"/>
<path opacity="0.1" d="M895.755 353.098C901.926 360.983 935.989 374.076 935.989 374.076C935.989 374.076 934.422 341.456 928.288 333.571C925.186 330.136 920.716 327.86 915.778 327.202C910.839 326.543 905.801 327.551 901.676 330.023C897.551 332.495 894.647 336.246 893.548 340.522C892.45 344.798 893.238 349.28 895.755 353.066V353.098Z" fill="#6C63FF"/>
</g>
<path opacity="0.1" d="M531.936 92.5985C531.936 92.5985 502.526 91.0498 506.019 109.136C505.84 110.054 505.997 110.998 506.467 111.832C506.937 112.667 507.696 113.35 508.635 113.782C508.635 113.782 508.635 112.44 511.647 112.894C512.702 113.055 513.775 113.103 514.843 113.035C516.288 112.947 517.661 112.449 518.756 111.616V111.616C518.756 111.616 527.025 108.616 530.233 96.7574C530.233 96.7574 532.615 94.1689 532.517 93.5083L527.58 95.3711C527.58 95.3711 529.271 98.5119 527.938 101.122C527.938 101.122 527.777 95.4794 526.827 95.6093C526.63 95.6093 524.248 96.6924 524.248 96.6924C524.248 96.6924 527.173 102.172 524.963 106.147C524.963 106.147 525.803 99.3999 523.334 97.0931L519.842 98.8801C519.842 98.8801 523.248 104.533 520.94 109.147C520.94 109.147 521.533 102.075 519.114 99.3133L515.942 101.479C515.942 101.479 519.151 107.057 517.176 110.88C517.176 110.88 516.929 102.638 515.238 102.021C514.041 102.911 512.972 103.926 512.054 105.042C512.054 105.042 514.239 109.093 512.881 111.227C512.881 111.227 512.054 105.736 511.363 105.714C511.363 105.714 508.598 109.353 508.315 111.844C508.447 109.532 509.269 107.292 510.697 105.346C509.103 105.611 507.633 106.277 506.463 107.263C506.463 107.263 506.895 104.696 511.4 104.468C511.4 104.468 513.683 101.707 514.288 101.544C514.288 101.544 509.833 101.209 507.142 102.27C507.142 102.27 509.512 99.844 515.103 100.938L518.237 98.7068C518.237 98.7068 512.375 98.0028 509.882 98.7718C509.882 98.7718 512.745 96.6057 519.077 98.1978L522.483 96.4108C519.863 95.9017 517.178 95.6978 514.498 95.8043C514.498 95.8043 517.645 94.3205 523.482 95.9234L525.951 94.9704C525.951 94.9704 522.248 94.3422 521.212 94.2339C520.175 94.1256 520.089 93.8765 520.089 93.8765C522.407 93.5373 524.786 93.7698 526.963 94.548C526.963 94.548 532.035 92.891 531.936 92.5985Z" fill="#6C63FF"/>
<path opacity="0.1" d="M454.703 180.616C454.703 180.616 444.657 204.93 465.403 207.15C466.356 207.56 467.433 207.695 468.48 207.535C469.526 207.376 470.488 206.93 471.228 206.262C471.228 206.262 469.772 205.839 471.117 203.478C471.575 202.633 471.915 201.742 472.129 200.825C472.445 199.585 472.293 198.289 471.697 197.132V197.132C471.697 197.132 470.771 189.323 458.726 183.258C458.726 183.258 456.566 180.518 455.813 180.41L456.443 185.11C456.443 185.11 460.355 184.58 462.836 186.442C462.836 186.442 456.665 184.98 456.492 185.814C456.492 185.988 456.949 188.294 456.949 188.294C456.949 188.294 463.761 187.396 467.489 190.374C467.489 190.374 460.355 187.764 457.134 189.172L458.097 192.627C458.097 192.627 465.242 191.359 469.624 194.619C469.624 194.619 462.058 192.107 458.356 193.363L459.824 196.612C459.824 196.612 466.822 195.529 470.451 198.226C470.451 198.226 461.379 196.06 460.219 197.349C460.852 198.612 461.66 199.801 462.626 200.89C462.626 200.89 467.661 200.197 469.611 201.973C469.611 201.973 463.379 201.117 463.157 201.691C463.157 201.691 466.341 205.049 468.982 206.024C466.506 205.258 464.301 203.936 462.589 202.19C462.439 203.588 462.752 204.994 463.49 206.24C463.49 206.24 460.812 205.157 461.836 201.323C461.836 201.323 459.466 198.616 459.454 198.074C459.454 198.074 457.837 201.735 458.22 204.302C458.22 204.302 456.245 201.616 459.035 197.219L457.479 193.97C457.479 193.97 455.011 198.702 455.184 201.009C455.184 201.009 453.654 197.998 457.159 193.114L456.171 189.746C454.883 191.793 453.9 193.977 453.246 196.244C453.246 196.244 452.518 193.168 455.937 188.728L455.579 186.399C455.579 186.399 453.851 189.302 453.431 190.179C453.012 191.056 452.716 191.024 452.716 191.024C453.008 188.975 453.939 187.038 455.406 185.424C455.406 185.424 455.048 180.627 454.703 180.616Z" fill="#6C63FF"/>
<path opacity="0.1" d="M649.75 160.136C649.75 160.136 639.691 184.439 660.45 186.659C661.4 187.07 662.474 187.206 663.518 187.048C664.563 186.891 665.523 186.447 666.263 185.782C666.263 185.782 664.819 185.36 666.152 182.988C666.626 182.144 666.983 181.253 667.213 180.334C667.532 179.097 667.375 177.803 666.769 176.652V176.652C666.769 176.652 665.843 168.843 653.798 162.768C653.798 162.768 651.65 160.028 650.897 159.919L651.514 164.63C651.514 164.63 655.439 164.089 657.908 165.952C657.908 165.952 651.737 164.49 651.576 165.334C651.576 165.497 652.033 167.815 652.033 167.815C652.033 167.815 658.845 166.905 662.56 169.894C662.56 169.894 655.439 167.273 652.206 168.692L653.168 172.136C653.168 172.136 660.314 170.869 664.708 174.129C664.708 174.129 657.142 171.616 653.44 172.883L654.908 176.132C654.908 176.132 661.906 175.049 665.535 177.746C665.535 177.746 656.463 175.58 655.303 176.858C655.935 178.119 656.739 179.308 657.698 180.399C657.698 180.399 662.745 179.706 664.695 181.482C664.695 181.482 658.451 180.627 658.241 181.19C658.241 181.19 661.425 184.547 664.066 185.522C661.586 184.752 659.378 183.426 657.661 181.677C657.497 183.093 657.81 184.52 658.562 185.782C658.562 185.782 655.871 184.699 656.895 180.854C656.895 180.854 654.538 178.157 654.526 177.605C654.526 177.605 652.897 181.255 653.292 183.832C653.292 183.832 651.317 181.136 654.119 176.75L652.551 173.5C652.551 173.5 650.083 178.233 650.268 180.551C650.268 180.551 648.738 177.529 652.243 172.645L651.255 169.277C649.964 171.322 648.981 173.507 648.33 175.775C648.33 175.775 647.59 172.71 651.009 168.259L650.651 165.941C650.651 165.941 648.923 168.843 648.515 169.71C648.108 170.576 647.8 170.565 647.8 170.565C648.085 168.516 649.017 166.576 650.49 164.966C650.49 164.966 650.083 160.136 649.75 160.136Z" fill="#6C63FF"/>
<path opacity="0.1" d="M331.052 129.681C331.052 129.681 320.993 153.995 341.752 156.204C342.702 156.618 343.777 156.756 344.822 156.598C345.867 156.441 346.827 155.996 347.565 155.327C347.565 155.327 346.121 154.905 347.454 152.544C347.923 151.698 348.279 150.808 348.515 149.89C348.827 148.65 348.671 147.354 348.071 146.197C348.071 146.197 347.145 138.389 335.1 132.313C335.1 132.313 332.952 129.584 332.2 129.475L332.817 134.176C332.817 134.176 336.729 133.645 339.21 135.508C339.21 135.508 333.039 134.035 332.878 134.88C332.878 135.053 333.335 137.36 333.335 137.36C333.335 137.36 340.148 136.461 343.862 139.439C343.862 139.439 336.729 136.818 333.508 138.237L334.47 141.692C334.47 141.692 341.616 140.425 345.998 143.685C345.998 143.685 338.444 141.172 334.742 142.428L336.211 145.678C336.211 145.678 343.208 144.594 346.837 147.291C346.837 147.291 337.753 145.125 336.606 146.403C337.237 147.668 338.041 148.861 339 149.955C339 149.955 344.048 149.251 345.985 151.038C345.985 151.038 339.753 150.183 339.531 150.757C339.531 150.757 342.727 154.103 345.368 155.089C342.885 154.323 340.676 152.997 338.963 151.244C338.799 152.66 339.112 154.087 339.864 155.349C339.864 155.349 337.173 154.266 338.198 150.432C338.198 150.432 335.828 147.724 335.828 147.183C335.828 147.183 334.199 150.844 334.594 153.41C334.594 153.41 332.619 150.724 335.408 146.327L333.853 143.078C333.853 143.078 331.385 147.822 331.558 150.129C331.558 150.129 330.027 147.118 333.532 142.233L332.557 138.854C331.266 140.9 330.283 143.085 329.633 145.353C329.633 145.353 328.892 142.288 332.311 137.836L331.953 135.519C331.953 135.519 330.225 138.421 329.818 139.298C329.41 140.176 329.102 140.143 329.102 140.143C329.386 138.095 330.313 136.157 331.78 134.544C331.78 134.544 331.434 129.692 331.052 129.681Z" fill="#6C63FF"/>
<path opacity="0.1" d="M640.037 294.604C640.037 294.604 647.8 319.514 666.213 310.849C667.26 310.703 668.227 310.271 668.976 309.613C669.725 308.956 670.218 308.107 670.385 307.189C670.385 307.189 668.929 307.568 668.46 304.958C668.292 304.031 667.998 303.126 667.583 302.261C667.025 301.091 666.051 300.111 664.806 299.467V299.467C664.806 299.467 658.92 293.564 645.06 294.691C645.06 294.691 641.505 293.543 640.814 293.835L644.418 297.366C644.418 297.366 647.257 294.951 650.503 295.2C650.503 295.2 644.467 297.138 644.924 297.886C645.011 298.037 646.923 299.683 646.923 299.683C646.923 299.683 651.86 295.503 656.896 296.055C656.896 296.055 649.355 297.528 647.639 300.312L650.7 302.651C650.7 302.651 655.711 297.994 661.425 298.438C661.425 298.438 653.6 300.214 651.403 303.117L654.76 305.055C654.76 305.055 659.697 300.604 664.498 300.994C664.498 300.994 655.698 303.853 655.563 305.445C656.911 306.159 658.353 306.726 659.857 307.135C659.857 307.135 663.56 304.016 666.25 304.46C666.25 304.46 660.598 306.907 660.795 307.492C660.795 307.492 665.596 308.575 668.386 308.055C665.856 308.683 663.184 308.717 660.635 308.153C661.428 309.392 662.616 310.4 664.054 311.055C664.054 311.055 661.141 311.521 659.463 307.871C659.463 307.871 655.76 306.864 655.377 306.409C655.377 306.409 656.451 310.21 658.463 312.117C658.463 312.117 655.081 310.925 654.477 305.922L651.083 304.07C651.083 304.07 652.193 309.171 653.835 310.99C653.835 310.99 650.601 309.301 650.256 303.539L647.232 301.286C647.533 303.623 648.176 305.917 649.145 308.109C649.145 308.109 646.529 305.943 646.405 300.604L644.579 298.893C644.579 298.893 645.072 302.142 645.319 303.063C645.566 303.983 645.319 304.146 645.319 304.146C644.204 302.327 643.687 300.272 643.826 298.211C643.826 298.211 640.321 294.431 640.037 294.604Z" fill="#6C63FF"/>
<path d="M1006.45 435.116C1009.14 437.846 1012.11 440.354 1015.32 442.61L1039.36 460.588C1043.65 463.783 1048 467.086 1053.43 468.592C1056.65 469.478 1060.05 469.706 1063.38 469.257C1066.71 468.808 1069.87 467.695 1072.64 466.003L1072.23 465.884L1072.64 465.646C1068.58 464.498 1064.42 463.307 1061.07 461C1059.69 460.095 1058.54 458.958 1057.66 457.657C1056.79 456.355 1056.22 454.915 1055.99 453.419V453.419C1055.99 453.267 1055.99 453.126 1055.99 452.975C1056 452.564 1056.04 452.155 1056.12 451.751C1061.3 451.364 1066.29 449.824 1070.6 447.278L1070.18 447.148L1070.6 446.921C1057.79 443.314 1048.92 432.765 1044.89 421.599C1040.87 410.434 1040.86 398.542 1040.42 386.856C1039.99 375.17 1039 363.16 1033.25 352.589C1031.09 348.625 1028.32 344.856 1027.27 340.568C1026.98 339.295 1026.84 337.999 1026.86 336.701C1026.95 332.532 1028.33 328.34 1029.6 324.268C1032.43 315.174 1034.68 305.951 1036.36 296.64C1037.02 293.331 1037.39 289.981 1037.46 286.622C1037.58 283.344 1036.98 280.076 1035.7 276.994C1030.04 264.106 1010.4 258.03 1007.4 244.503C1007.05 242.683 1006.9 240.837 1006.95 238.991C1006.95 237.973 1006.95 236.966 1006.95 235.958C1006.95 234.951 1006.95 233.792 1006.85 232.796C1006 223.276 999.289 215.013 992.81 207.291C985.01 197.998 976.766 188.338 964.782 183.388C955.476 179.522 943.036 178.244 931.941 179.11C926.962 175.341 921.504 172.088 915.675 169.417C907.196 165.28 898.397 161.208 889.005 160.298C877.095 159.15 865.321 163.158 853.374 163.829C837.133 164.75 821.187 159.497 804.946 158.414C788.704 157.331 770.006 162.129 762.75 176.479C761.049 179.963 760.014 183.67 759.689 187.45V187.45C759.615 188.175 759.565 188.89 759.528 189.616V189.692C759.408 192.622 759.502 195.556 759.812 198.475V198.811C759.812 199.396 759.936 199.98 760.01 200.565C760.01 200.738 760.01 200.901 760.072 201.074C760.072 201.616 760.207 202.157 760.281 202.699L760.355 203.208C760.454 203.89 760.565 204.572 760.664 205.255C760.852 206.66 761.195 208.045 761.688 209.392C761.991 210.17 762.433 210.901 762.996 211.558C764.761 213.529 767.415 214.114 770.155 214.482L772.314 214.753C772.092 215.143 771.858 215.533 771.648 215.933C766.75 224.993 764.22 234.898 764.243 244.926C764.243 278.998 792.987 307.243 830.542 312.377L832.801 314.846C846.648 330.073 864.025 350.401 872.294 365.033C862.741 375.441 851.56 393.896 848.376 424.849L843.649 434.531C833.739 447.04 831.184 465.083 833.739 481.87C830.949 490.946 827.765 502.35 825.556 511.783C809.129 508.588 753.061 500.682 739.807 493.003L700.93 476.931C700.93 476.931 650.33 445.913 623.104 456.267C612.7 445.047 597.002 433.296 590.238 428.856C578.637 421.22 549.783 391.394 549.783 391.394L504.575 338.737C504.452 332.64 503.711 327.431 501.811 325.189C496.479 318.929 468.254 305.034 462.614 308.034C456.973 311.034 452.259 301.535 452.259 301.535L451.827 301.33C450.766 300.788 447.754 299.294 443.57 297.323C443.35 292.927 443.474 288.523 443.941 284.142C444.027 283.406 444.138 282.669 444.262 281.976C459.247 281.501 473.645 276.744 485.266 268.427C496.886 260.111 505.092 248.69 508.636 235.904C508.833 235.222 508.969 234.518 509.129 233.825C511.152 234.237 513.262 234.187 515.257 233.679C517.251 233.17 519.064 232.221 520.52 230.922C524.47 227.197 524.643 221.468 523.384 216.529C522.125 211.59 519.681 206.858 519.064 201.811C518.287 194.933 521.051 187.731 518.509 181.233C516.374 175.688 510.746 171.659 504.748 169.028C498.75 166.396 492.184 164.858 486.05 162.464C480.2 160.19 474.758 157.136 468.686 155.338C460.812 153.01 452.345 152.923 444.002 153.096C438.77 151.244 433.438 149.479 427.835 148.927C421.664 148.309 414.876 149.36 410.174 152.966C406.472 155.847 403.46 160.472 398.437 160.623C395.969 160.699 393.747 159.627 391.55 158.706C385.318 156.085 377.432 154.602 371.804 158.078C367.287 160.851 365.633 165.952 364.856 170.706C364.078 175.461 363.942 180.453 361.326 184.71C359.709 187.331 357.253 189.464 355.217 191.847C350.062 197.895 347.632 205.399 348.392 212.922V213.139C348.096 212.056 347.812 211.049 347.602 209.987C347.602 210.789 347.602 211.58 347.725 212.381C348.262 216.097 349.183 219.762 350.478 223.33L355.587 239.034C358.179 247.005 360.832 255.095 365.769 262.189C367.695 264.984 370.022 267.55 372.692 269.825C376.9 273.701 382.282 276.44 388.206 277.72C390.286 278.129 392.428 278.243 394.55 278.056C394.55 278.283 394.488 278.5 394.438 278.727C393.982 278.651 393.513 278.565 393.081 278.51C391.076 278.144 389.001 278.192 387.021 278.651C377.271 281.694 374.309 290.954 373.445 294.593C373.248 295.525 373.186 296.088 373.186 296.088C373.186 296.088 373.347 296.629 373.532 297.55L373.445 297.864C373.248 298.785 373.186 299.359 373.186 299.359C373.186 299.359 373.347 299.9 373.532 300.842L370.989 300.896L328.472 305.77C318.76 305.185 309.516 305.044 304.567 306.084C304.148 306.165 303.736 306.27 303.333 306.398C297.162 308.272 268.887 325.394 243.513 341.152C243.513 340.719 243.513 340.297 243.439 339.885L236.219 344.391C236.219 344.813 236.219 345.257 236.219 345.701C234.417 346.784 232.627 347.932 230.9 349.026C223.137 353.9 216.09 358.297 210.844 361.665C204.451 365.694 200.49 368.239 200.49 368.239C200.49 368.239 198.145 368.91 196.59 372.084C194.59 376.145 193.899 384.311 201.119 400.383C213.979 428.986 216.793 448.329 216.793 448.329C213.304 448.648 209.88 449.377 206.611 450.495C202.156 452.054 197.503 454.697 195.565 459.159C194.322 462.275 194.291 465.665 195.479 468.798C201.428 487.317 299.902 592.479 299.902 592.479L301.136 592.576C306.186 592.967 311.266 592.967 316.316 592.576C320.919 592.154 325.227 591.19 327.201 589.154C327.201 589.154 349.034 613.75 381.097 596.995C380.875 619.305 380.233 635.67 384.269 643.912C390.551 656.713 390.551 685.857 390.551 685.857L396.524 686.041C396.203 687.124 395.845 688.207 395.463 689.29C392.711 697.272 388.65 706.922 384.355 709.229C377.123 713.128 380.554 780.145 380.85 785.929C380.85 786.156 380.85 786.275 380.85 786.275L380.431 813.351V815.517C379.534 814.46 378.73 813.344 378.024 812.181C378.024 812.181 366.398 821.928 366.188 842.506C365.979 863.083 366.398 863.776 366.398 863.776C366.398 863.776 413.296 862.184 422.096 865.022C430.896 867.859 504.489 862.553 504.489 862.553C504.489 862.553 507.216 856.336 499.367 851.56C511.881 850.769 525.531 848.668 533.529 843.578C551.115 832.434 498.046 823.748 494.344 821.982C490.641 820.217 472.302 806.019 464.724 800.701C462.434 799.233 459.726 798.349 456.899 798.145L457.85 773.875C469.142 762.709 481.373 701.139 481.373 701.139C485.372 698.215 487.112 691.099 487.828 686.756C489.289 686.331 490.566 685.522 491.486 684.44C492.406 683.357 492.926 682.052 492.974 680.702V680.702C505.896 681.081 522.15 680.994 525.272 678.276C530.604 673.641 529.974 657.839 529.974 657.839L522.446 490.577L521.952 489.938C523.197 482.282 523.222 474.511 522.026 466.848C538.934 471.083 552.09 473.964 552.09 473.964C552.09 473.964 577.539 478.079 595.397 481.545C592.474 484.269 590.267 487.522 588.93 491.075C572.886 531.147 663.881 529.49 663.881 529.49L706.842 546.927L807.969 575.93C775.474 567.515 738.35 557.616 713.087 550.826C710.599 550.158 708.069 549.619 705.509 549.212C682.332 545.53 658.253 552.938 643.492 569.281C643.32 569.486 643.159 569.67 642.974 569.865C639.439 573.901 637.47 578.823 637.355 583.912C637.239 589 638.984 593.988 642.332 598.143C646.195 602.941 651.366 609.32 657.426 616.739C644.603 620.139 623.388 629.616 636.285 653.984C654.156 687.763 702.128 707.052 702.128 707.052C702.128 707.052 733.488 714.958 741.621 723.676C743.904 726.124 752.728 731.55 764.268 738.091C771.673 744.969 777.473 749.463 780.917 750.46C794.665 754.434 821.434 773.506 840.267 787.813L837.441 821.993L837.256 824.051L836.096 823.185C836.096 823.185 827.765 838.347 803.625 843.426C798.783 844.382 794.494 846.835 791.543 850.336L791.456 850.434L790.74 851.343L790.197 850.986C785.261 857.083 782.965 865.964 801.601 868.412C830.764 872.224 863.309 866.776 863.309 866.776L892.386 843.188C895.617 845.574 899.411 847.301 903.494 848.246C925.227 852.578 986.269 873.307 986.269 873.307C986.269 867.491 1040.21 792.676 1040.21 792.676C1113.03 671.724 1033.85 581.335 1025.1 571.923L1024.32 571.1L1023.64 561.05L1023.49 558.743C1023.49 558.743 1062.79 543.494 1047.73 536.238C1032.67 528.981 1024.28 494.097 1010.1 479.574C998.993 468.245 999.635 441.95 998.462 419.542C999.736 425.074 1002.47 430.268 1006.45 434.704C1006.53 434.802 1006.63 434.877 1006.72 434.975L1005.67 434.173C1005.93 434.52 1006.18 434.823 1006.45 435.116ZM522.248 425.823C527.308 430.599 536.145 436.708 541.995 440.585C534.985 437.585 529.53 435.051 525.321 433.004C524.334 430.599 523.297 428.195 522.248 425.823V425.823ZM372.557 312.485C371.348 315.665 369.145 318.483 366.201 320.618L363.732 311.272C366.966 311.727 369.977 312.149 372.557 312.485ZM865.827 569.281C866.802 567.439 867.814 565.631 868.838 563.866C873.166 562.63 876.982 560.302 879.81 557.172C881.961 563.724 883.553 570.406 884.574 577.165C884.574 577.479 884.574 577.652 884.574 577.652C884.521 580.377 884.052 583.084 883.179 585.699C882.044 588.862 879.97 591.84 876.206 592.197C874.639 592.338 866.925 590.703 855.386 587.941C852.041 587.14 848.363 586.241 844.439 585.266C850.597 584.909 859.162 581.865 865.827 569.281ZM962.4 340.763C960.092 337.514 955.279 335.434 949.392 334.21C948.318 333.582 946.652 332.586 944.53 331.232C934.163 324.571 913.466 309.572 903.975 290.413C906.62 289.766 909.204 288.936 911.701 287.933C915.577 286.373 919.238 284.429 922.611 282.139C923.746 281.359 924.857 280.546 925.918 279.702C928.638 277.549 931.118 275.174 933.323 272.608C934.2 271.525 935.051 270.496 935.792 269.359C937.002 267.692 938.098 265.963 939.074 264.182C941.321 260.024 943.055 255.667 944.246 251.186C944.727 249.388 945.147 247.558 945.48 245.716C945.813 243.875 946.134 242.023 946.368 240.161C947.135 233.588 947.428 226.979 947.245 220.374C947.245 220.06 947.245 219.735 947.245 219.421C947.245 219.301 947.245 219.182 947.245 219.074C947.209 212.378 946.382 205.703 944.776 199.157C945.332 199.341 945.887 199.525 946.418 199.742C947.31 200.126 948.16 200.579 948.96 201.096C948.763 200.847 948.54 200.598 948.331 200.349C951.91 202.385 954.576 205.558 956.97 208.72C967.938 223.725 974.943 240.693 977.471 258.381C979.999 276.069 977.987 294.03 971.582 310.947C969.78 315.593 967.621 320.218 967.139 325.102C965.399 342.55 984.418 355.86 991.489 372.257C995.031 380.477 995.587 389.585 996.056 398.596C990.724 375.777 971.237 353.315 962.437 340.806L962.4 340.763Z" fill="url(#paint0_linear_285_54)"/>
<path d="M490.641 685.771C490.641 685.771 489.716 699.308 483.853 703.641C483.853 703.641 471.82 764.831 460.713 775.932L458.862 782.16L412.581 777.557L421.837 723.406L430.476 673.587L490.641 685.771Z" fill="#FFC1C8"/>
<path opacity="0.03" d="M490.641 685.771C490.641 685.771 489.716 699.308 483.853 703.641C483.853 703.641 471.82 764.831 460.713 775.932L458.862 782.16L412.581 777.557L421.837 723.406L430.476 673.587L490.641 685.771Z" fill="black"/>
<path d="M440.769 776.69L460.713 775.921L459.652 803.474L444.385 812.452L416.888 807.167L426.922 770.344L440.769 776.69Z" fill="#FF748F"/>
<path opacity="0.03" d="M440.769 776.69L460.713 775.921L459.652 803.474L444.385 812.452L416.888 807.167L426.922 770.344L440.769 776.69Z" fill="black"/>
<path d="M444.385 801.362C444.385 801.362 460.047 797.311 467.476 802.596C474.906 807.882 492.974 821.972 496.59 823.737C500.206 825.502 552.35 834.134 535.133 845.224C517.916 856.314 473.709 853.152 473.709 853.152C473.709 853.152 444.792 845.744 443.99 845.397C443.188 845.051 425.478 837.47 424.922 836.939C424.367 836.408 429.933 801.199 429.933 801.199L444.385 801.362Z" fill="#5D618C"/>
<path opacity="0.03" d="M444.385 801.362C444.385 801.362 460.047 797.311 467.476 802.596C474.906 807.882 492.974 821.972 496.59 823.737C500.206 825.502 552.35 834.134 535.133 845.224C517.916 856.314 473.709 853.152 473.709 853.152C473.709 853.152 444.792 845.744 443.99 845.397C443.188 845.051 425.478 837.47 424.922 836.939C424.367 836.408 429.933 801.199 429.933 801.199L444.385 801.362Z" fill="black"/>
<path d="M399.005 435.321L398.079 485.66L395.981 593.042L394.747 593.984C358.031 621.872 332.113 592.36 332.113 592.36C330.163 594.385 325.942 595.349 321.401 595.761C316.433 596.151 311.435 596.151 306.467 595.761L305.233 595.663C305.233 595.663 208.327 491.075 202.464 472.664C201.302 469.55 201.332 466.188 202.551 463.09C204.464 458.693 209.043 456.072 213.424 454.523C216.638 453.409 220.009 452.68 223.445 452.357C223.445 452.357 220.668 433.134 208.018 404.704C200.909 388.73 201.601 380.618 203.563 376.546C205.093 373.394 207.401 372.723 207.401 372.723C207.401 372.723 211.301 370.199 217.583 366.224C222.803 362.878 229.678 358.502 237.33 353.661L244.426 349.199C270.603 332.716 302.148 313.308 308.602 311.293C309.005 311.164 309.418 311.059 309.837 310.979C323.079 308.174 367.521 314.001 367.521 314.001L399.005 435.321Z" fill="#1976D2"/>
<path opacity="0.1" d="M399.005 435.321L398.079 485.66C354.18 474.299 313.366 399.018 307.985 393.083C303.382 387.928 308.109 330.517 309.849 311.001C323.092 308.196 367.534 314.023 367.534 314.023L399.005 435.321Z" fill="black"/>
<path d="M902.852 337.286C902.852 337.286 868.604 352.719 864.284 413.368C864.284 413.368 858.73 444.235 855.645 449.65C852.56 455.065 837.75 506.238 839.601 512.465C839.601 512.465 836.516 518.693 825.1 515.985C813.684 513.277 751.975 504.884 738.091 496.761L699.832 480.787C699.832 480.787 625.165 434.487 609.43 474.289C593.694 514.09 683.171 512.487 683.171 512.487L725.441 529.815L853.485 566.887C853.485 566.887 870.455 573.656 881.871 551.995C889.175 538.35 897.849 525.303 907.788 513.007C907.788 513.007 933.706 449.108 933.397 438.278C933.089 427.448 961.166 401.726 961.166 401.726C961.166 401.726 966.72 333.495 921.056 334.849L902.852 337.286Z" fill="#FFC1C7"/>
<path opacity="0.03" d="M902.852 337.286C902.852 337.286 868.604 352.719 864.284 413.368C864.284 413.368 858.73 444.235 855.645 449.65C852.56 455.065 837.75 506.238 839.601 512.465C839.601 512.465 836.516 518.693 825.1 515.985C813.684 513.277 751.975 504.884 738.091 496.761L699.832 480.787C699.832 480.787 625.165 434.487 609.43 474.289C593.694 514.09 683.171 512.487 683.171 512.487L725.441 529.815L853.485 566.887C853.485 566.887 870.455 573.656 881.871 551.995C889.175 538.35 897.849 525.303 907.788 513.007C907.788 513.007 933.706 449.108 933.397 438.278C933.089 427.448 961.166 401.726 961.166 401.726C961.166 401.726 966.72 333.495 921.056 334.849L902.852 337.286Z" fill="black"/>
<path d="M540.625 389.964C542.476 391.86 551.115 395.769 551.115 395.769C551.115 395.769 579.501 425.412 590.917 432.993C602.333 440.574 639.667 469.545 632.114 480.516C624.56 491.487 616.069 489.039 616.069 489.039L549.264 448.426C549.264 448.426 525.815 433.675 521.039 426.636C516.263 419.596 510.388 404.856 510.388 404.856L540.625 389.964Z" fill="#FFC1C8"/>
<path opacity="0.03" d="M540.625 389.964C542.476 391.86 551.115 395.769 551.115 395.769C551.115 395.769 579.501 425.412 590.917 432.993C602.333 440.574 639.667 469.545 632.114 480.516C624.56 491.487 616.069 489.039 616.069 489.039L549.264 448.426C549.264 448.426 525.815 433.675 521.039 426.636C516.263 419.596 510.388 404.856 510.388 404.856L540.625 389.964Z" fill="black"/>
<path d="M503.143 339.333L551.115 395.78L507.92 410.542L490.024 363.289L503.143 339.333Z" fill="#DCE6F2"/>
<path opacity="0.03" d="M503.143 339.333L551.115 395.78L507.92 410.542L490.024 363.289L503.143 339.333Z" fill="black"/>
<path d="M515.633 483.245L524.272 494.346L531.677 660.59C531.677 660.59 532.294 676.294 527.049 680.897C521.804 685.5 478.917 682.521 478.917 682.521C478.917 682.521 480.46 513.028 481.077 509.779C481.694 506.53 515.633 483.245 515.633 483.245Z" fill="#575988"/>
<path opacity="0.1" d="M515.633 483.245L524.272 494.346L531.677 660.59C531.677 660.59 532.294 676.294 527.049 680.897C521.804 685.5 478.917 682.521 478.917 682.521C478.917 682.521 480.46 513.028 481.077 509.779C481.694 506.53 515.633 483.245 515.633 483.245Z" fill="black"/>
<path d="M457.862 693.395C455.052 699.457 451.753 705.335 447.989 710.983C447.989 710.983 439.967 751.153 436.548 754.857C434.08 757.564 432.944 777.774 432.537 788.311C432.389 792.124 432.327 794.669 432.327 794.669L385.157 814.401L384.948 788.322C384.948 788.322 384.948 788.203 384.948 787.976C384.651 782.225 381.245 715.619 388.391 711.742C392.587 709.456 396.586 699.828 399.289 691.933C401.35 685.836 402.646 680.735 402.646 680.735C402.646 680.735 455.048 677.745 459.417 682.673C461.021 684.428 459.911 688.695 457.862 693.395Z" fill="#FFC1C8"/>
<path opacity="0.1" d="M457.862 693.395C436.61 693.005 409.977 692.215 399.215 691.879C401.276 685.781 402.572 680.68 402.572 680.68C402.572 680.68 454.974 677.691 459.343 682.619C461.022 684.428 459.911 688.695 457.862 693.395Z" fill="black"/>
<path d="M395.919 446.964C395.919 446.964 381.418 514.653 384.195 558.245C386.972 601.836 382.035 634.035 388.206 646.782C394.377 659.529 394.377 688.478 394.377 688.478C394.377 688.478 478.3 691.186 486.939 690.103C495.578 689.02 495.27 683.334 495.27 683.334C495.27 683.334 489.407 638.367 494.961 624.287C500.515 610.208 499.589 567.158 499.589 567.158L523.038 497.844C523.038 497.844 530.135 466.707 515.325 453.982C500.515 441.256 395.919 446.964 395.919 446.964Z" fill="#575988"/>
<path d="M893.904 804.633L890.202 809.398L867.308 839.289L847.87 844.434L833.368 831.979L834.072 823.759L837.688 781.077C837.688 781.077 747.964 734.756 739.942 726.092C731.92 717.427 701.066 709.575 701.066 709.575C701.066 709.575 653.859 690.352 636.273 656.778C618.686 623.204 665.584 618.06 665.584 618.06L841.761 765.914L893.904 804.633Z" fill="#FFC1C7"/>
<path opacity="0.1" d="M890.263 809.387L867.37 839.278L847.932 844.423L833.43 831.968L834.134 823.748L850.091 835.759L880.02 805.163L890.263 809.387Z" fill="black"/>
<path d="M915.502 821.961L859.656 867.719C859.656 867.719 827.568 873.134 798.874 869.343C780.534 866.917 784.064 858.09 788.889 852.015L788.976 851.906C791.866 848.431 796.092 845.992 800.873 845.04C824.618 840.015 832.813 824.928 832.813 824.928L850.091 837.925L880.02 807.318L902.148 816.437L915.502 821.961Z" fill="#575988"/>
<path d="M915.502 822.481L859.656 868.26C859.656 868.26 827.568 873.675 798.874 869.885C780.534 867.459 782.829 858.632 787.655 852.556C793.204 856.417 799.865 858.85 806.896 859.585C822.631 860.939 846.389 859.585 846.389 859.585L902.148 816.99L915.502 822.481Z" fill="white"/>
<path d="M454.443 274.037C449.902 276.03 447.816 282.182 446.977 289.2C445.557 301.178 447.853 315.604 447.853 315.604C447.853 315.604 386.145 300.799 392.735 297.907C396.524 296.25 398.536 284.185 399.56 274.254C400.325 266.911 400.548 260.727 400.548 260.727C400.548 260.727 466.785 268.622 454.443 274.037Z" fill="#FFC1C8"/>
<path d="M945.64 339.745C945.64 339.745 870.764 401.834 873.232 383.791C873.577 381.278 872.59 377.802 870.64 373.697C863.717 359.055 844.575 336.322 829.604 319.698C818.62 307.503 809.858 298.59 809.858 298.59C809.858 298.59 902.852 230.002 895.447 268.991C893.904 277.881 895.313 286.973 899.507 295.178C908.776 314.326 929.312 329.391 939.568 336.041C943.271 338.434 945.64 339.745 945.64 339.745Z" fill="#FFC1C7"/>
<path opacity="0.1" d="M885.166 280.893C883.821 282.355 878.835 287.489 877.354 288.842C863.285 301.698 861.409 320.25 839.502 320.25C836.201 320.252 832.903 320.068 829.629 319.698C818.645 307.503 809.882 298.59 809.882 298.59C809.882 298.59 902.852 230.002 895.447 268.991C893.694 278.24 881.254 272.792 885.166 280.893Z" fill="black"/>
<path d="M916.835 250.211C916.837 263.636 912.303 276.76 903.805 287.923C895.307 299.087 883.228 307.788 869.094 312.926C854.961 318.065 839.408 319.41 824.404 316.791C809.399 314.173 795.616 307.708 784.799 298.215C773.981 288.722 766.614 276.628 763.63 263.461C760.647 250.293 762.179 236.646 768.035 224.243C773.89 211.84 783.806 201.24 796.527 193.783C809.248 186.326 824.204 182.347 839.502 182.349C849.669 182.314 859.742 184.046 869.142 187.444C878.543 190.843 887.083 195.84 894.272 202.148C901.461 208.457 907.156 215.952 911.028 224.201C914.901 232.45 916.874 241.29 916.835 250.211V250.211Z" fill="#FFC1C7"/>
<path opacity="0.1" d="M945.64 339.744C945.64 339.744 870.764 401.834 873.232 383.791C873.577 381.278 872.59 377.802 870.64 373.697L881.464 351.3C894.725 341.107 911.732 335.454 929.362 335.38C932.569 335.377 935.773 335.569 938.951 335.954L939.568 336.041C943.271 338.434 945.64 339.744 945.64 339.744Z" fill="black"/>
<path d="M1033.67 794.615C1033.67 794.615 980.604 868.975 980.604 874.758C980.604 874.758 920.537 854.181 899.149 849.849C877.761 845.517 857.595 806.17 857.595 806.17C857.595 806.17 800.824 759.232 778.609 752.734C759.763 747.221 669.2 635.118 642.221 601.295C638.919 597.156 637.201 592.203 637.316 587.151C637.431 582.099 639.374 577.21 642.863 573.19L643.369 572.616C650.509 564.734 659.964 558.71 670.716 555.195C681.468 551.68 693.11 550.806 704.386 552.667C706.889 553.071 709.361 553.606 711.791 554.27C750.643 564.808 817.929 582.916 851.869 591.093C863.223 593.833 870.813 595.425 872.356 595.327C876.058 594.992 878.095 592.078 879.218 588.883C880.075 586.284 880.535 583.596 880.588 580.891C880.588 580.891 880.588 580.717 880.588 580.403C879.547 573.518 877.914 566.711 875.7 560.042C871.739 548.129 864.877 534.147 853.485 527.465C844.032 521.931 836.516 509.725 832.579 495.538C827.284 476.379 828.506 453.581 840.317 438.657L851.733 415.026L870.825 375.495L881.464 353.466C894.725 343.273 911.732 337.62 929.362 337.546C932.569 337.543 935.774 337.735 938.951 338.12C947.134 339.116 954.205 341.272 957.155 345.517C966.201 358.513 986.775 382.34 990.885 406.166C994.994 429.993 990.07 468.982 1004.05 483.429C1018.04 497.877 1026.27 532.523 1041.08 539.747C1055.89 546.97 1017.22 562.122 1017.22 562.122L1017.37 564.407L1018.04 574.403C1018.04 574.403 1018.31 574.674 1018.8 575.216C1027.42 584.573 1105.25 674.41 1033.67 794.615Z" fill="#FF6584"/>
<path d="M1018.86 575.215C1002.65 578.194 967.176 584.681 951.354 587.53L948.578 588.028C947.652 588.19 946.615 588.342 945.492 588.483C929.596 590.4 895.114 589.457 879.329 588.894C880.186 586.295 880.646 583.607 880.699 580.901C880.699 580.901 880.699 580.728 880.699 580.414C892.707 579.732 921.167 577.739 945.554 573.342C947.541 572.984 949.503 572.605 951.416 572.259C954.181 571.696 956.871 571.1 959.438 570.472C981.308 565.057 1004.4 564.342 1017.44 564.45L1018.11 574.447C1018.11 574.447 1018.31 574.674 1018.86 575.215Z" fill="#575988"/>
<path d="M951.293 572.216V587.53L948.516 588.028C947.59 588.19 946.554 588.342 945.43 588.483V573.385C947.417 572.985 949.38 572.605 951.293 572.216Z" fill="#FF6584"/>
<path opacity="0.1" d="M966.411 601.544C966.411 601.544 933.397 667.879 913.342 674.377C893.287 680.875 843.303 703.89 843.303 703.89C843.303 703.89 871.998 726.092 901.926 701.724C931.855 677.355 975.05 612.374 966.411 601.544Z" fill="black"/>
<path opacity="0.1" d="M1002.51 592.631C1002.51 592.631 1005.6 617.811 1001.28 622.414C996.957 627.017 1002.51 592.631 1002.51 592.631Z" fill="black"/>
<path opacity="0.1" d="M1020.41 609.125C1020.41 609.125 1037.07 762.373 954.378 763.185C954.378 763.207 1031.82 695.767 1020.41 609.125Z" fill="black"/>
<path opacity="0.1" d="M1041.39 645.948C1041.39 645.948 1065.14 726.362 1033.98 735.568C1033.98 735.59 1050.33 693.893 1041.39 645.948Z" fill="black"/>
<path opacity="0.1" d="M893.596 625.37C892.053 625.37 829.419 634.847 842.995 642.428C856.571 650.009 893.596 625.37 893.596 625.37Z" fill="black"/>
<path opacity="0.1" d="M936.791 516.819C936.791 516.819 988.009 556.62 978.136 560.952Z" fill="black"/>
<path opacity="0.1" d="M932.472 529.544C932.472 529.544 962.092 561.494 958.698 563.389Z" fill="black"/>
<path opacity="0.1" d="M995.723 524.649C995.723 524.649 1009.3 539.541 1007.14 542.79Z" fill="black"/>
<path opacity="0.1" d="M1009.3 516.819C1009.3 516.819 1028.74 530.064 1024.42 535.23Z" fill="black"/>
<path d="M901.309 355.448C901.309 355.448 964.56 359.78 961.783 404.455C959.006 449.13 911.799 460.502 911.799 460.502L850.4 445.069C850.4 445.069 877.86 358.427 901.309 355.448Z" fill="#FFC1C7"/>
<path opacity="0.1" d="M711.84 554.27C750.692 564.808 817.978 582.916 851.918 591.093C849.693 592.087 847.257 592.664 844.764 592.785C842.271 592.906 839.777 592.57 837.441 591.797L709.397 554.725L704.386 552.667C706.905 553.069 709.395 553.605 711.84 554.27Z" fill="black"/>
<path opacity="0.1" d="M928.522 443.845C922.512 450.884 917.217 458.466 917.415 463.209C917.514 466.621 914.947 475.317 911.516 485.617C902.678 511.485 890.677 536.439 875.725 560.042C871.763 548.129 864.901 534.147 853.51 527.465C844.056 521.931 836.54 509.725 832.603 495.537C835.602 485.27 838.453 476.639 839.626 474.581C842.711 469.166 848.265 438.3 848.265 438.3C848.787 430.478 849.954 422.699 851.757 415.026C856.237 396.257 863.852 383.618 870.85 375.495C879.292 365.618 886.894 362.217 886.894 362.217L905.098 359.78C926.079 359.163 936.199 373.167 941.074 388.513C947.047 407.585 942.049 427.989 928.522 443.845Z" fill="black"/>
<path d="M883.105 357.863C883.105 357.863 848.857 373.297 844.538 433.946C844.538 433.946 838.984 464.812 835.898 470.227C832.813 475.642 818.003 526.815 819.854 533.043C819.854 533.043 816.769 539.27 805.353 536.562C793.937 533.855 732.229 525.461 718.344 517.339L680.085 501.364C680.085 501.364 605.419 455.065 589.683 494.866C573.947 534.667 663.424 533.064 663.424 533.064L705.694 550.393L833.739 587.465C833.739 587.465 850.708 594.233 862.124 572.573C864.975 567.158 868.024 562.013 870.998 557.335C886.4 533.26 898.738 507.771 907.788 481.328C911.281 471.029 913.787 462.332 913.688 458.92C913.552 454.177 918.859 446.585 924.795 439.556C938.371 423.701 943.308 403.296 937.26 384.213C932.385 368.867 922.216 354.864 901.284 355.492L883.105 357.863Z" fill="#FFC1C7"/>
<path opacity="0.1" d="M454.443 274.038C449.902 276.03 447.816 282.182 446.977 289.2C446.175 289.2 445.372 289.2 444.57 289.2C427.978 289.227 411.955 283.891 399.56 274.211C400.325 266.868 400.547 260.684 400.547 260.684C400.547 260.684 466.785 268.622 454.443 274.038Z" fill="black"/>
<path d="M512.449 227.467C512.449 239.249 508.468 250.765 501.009 260.561C493.551 270.356 482.95 277.991 470.546 282.5C458.143 287.008 444.495 288.188 431.328 285.889C418.16 283.591 406.066 277.918 396.572 269.587C387.079 261.257 380.615 250.643 377.995 239.088C375.376 227.534 376.721 215.557 381.858 204.672C386.996 193.788 395.696 184.485 406.859 177.94C418.021 171.395 431.145 167.901 444.57 167.901C462.561 167.936 479.803 174.222 492.525 185.386C505.246 196.549 512.41 211.68 512.449 227.467V227.467Z" fill="#FFC1C8"/>
<path opacity="0.1" d="M535.38 460.751C535.38 460.751 499.898 473.206 488.79 477.538C477.683 481.87 414.123 471.852 414.123 471.852C414.123 471.852 381.109 457.231 383.886 442.61C386.663 427.989 357.352 380.087 357.352 380.087C357.352 380.087 356.426 337.578 369.385 329.456C382.344 321.333 377.407 304.276 377.407 304.276C377.407 304.276 377.469 303.712 377.666 302.792C378.468 299.174 381.369 289.969 390.983 286.947C392.929 286.488 394.972 286.44 396.944 286.806C406.163 288.03 421.306 294.052 433.833 299.608C444.2 304.211 452.777 308.488 454.74 309.485L455.159 309.691C455.159 309.691 459.787 319.167 465.341 316.189C470.895 313.21 498.664 327.019 503.909 333.246C509.154 339.474 505.451 368.715 504.526 376.026C503.6 383.336 509.771 404.997 516.559 417.43C523.347 429.863 535.38 460.751 535.38 460.751Z" fill="black"/>
<path d="M535.38 457.502C535.38 457.502 499.898 469.956 488.79 474.289C477.683 478.621 414.123 468.603 414.123 468.603C414.123 468.603 381.109 453.982 383.886 439.361C386.663 424.74 357.352 376.838 357.352 376.838C357.352 376.838 356.426 334.329 369.385 326.207C382.344 318.084 377.407 301.026 377.407 301.026C377.407 301.026 377.469 300.463 377.666 299.543C378.468 295.925 381.369 286.72 390.983 283.698C392.929 283.239 394.972 283.19 396.944 283.557C406.163 284.781 421.306 290.803 433.833 296.359C444.2 300.961 452.777 305.239 454.74 306.236L455.159 306.442C455.159 306.442 459.787 315.918 465.341 312.94C470.895 309.961 498.664 323.77 503.909 329.997C509.154 336.225 505.451 365.466 504.526 372.777C503.6 380.087 509.771 401.748 516.559 414.181C523.347 426.614 535.38 457.502 535.38 457.502Z" fill="#DCE6F2"/>
<path d="M420.504 415.914C420.504 415.914 390.057 459.234 385.12 461.585L386.972 476.747C386.972 476.747 430.377 468.798 433.055 458.151C435.734 447.505 434.29 415.372 434.29 415.372L420.504 415.914Z" fill="#575988"/>
<path opacity="0.2" d="M420.504 415.914C420.504 415.914 390.057 459.234 385.12 461.585L386.972 476.747C386.972 476.747 430.377 468.798 433.055 458.151C435.734 447.505 434.29 415.372 434.29 415.372L420.504 415.914Z" fill="black"/>
<path opacity="0.1" d="M463.342 360.723C463.342 360.723 468.735 379.004 477.226 385.232C485.717 391.459 463.342 360.723 463.342 360.723Z" fill="black"/>
<path d="M410.421 408.917C411.198 410.141 437.264 441.278 464.724 452.78C492.184 464.282 553.436 477.83 553.436 477.83C553.436 477.83 603.111 485.953 611.589 489.061C620.068 492.169 630.879 478.231 577.65 458.336C524.42 438.441 514.091 429.636 514.091 429.636C514.091 429.636 467.809 409.849 460.404 400.101C452.999 390.354 410.421 408.917 410.421 408.917Z" fill="#FFC1C8"/>
<path opacity="0.1" d="M429.859 560.389C430.785 559.847 452.999 538.999 455.776 547.934C458.553 556.869 429.859 560.389 429.859 560.389Z" fill="black"/>
<path opacity="0.1" d="M442.818 519.234C442.509 520.046 439.424 543.061 430.476 545.768Z" fill="black"/>
<path opacity="0.1" d="M452.074 525.483C452.074 525.483 444.052 550.122 433.87 551.725Z" fill="black"/>
<path opacity="0.1" d="M411.346 599.378C411.346 599.378 424.922 599.649 426.773 592.067Z" fill="black"/>
<path opacity="0.1" d="M429.859 648.677C431.71 648.948 460.713 665.193 453.308 668.442C445.903 671.691 429.859 648.677 429.859 648.677Z" fill="black"/>
<path opacity="0.1" d="M432.488 785.81V788.311C432.34 792.124 432.278 794.669 432.278 794.669L385.108 814.401L384.898 788.322C384.898 788.322 384.898 788.203 384.898 787.976V786.21L403.781 786.741L432.488 785.81Z" fill="black"/>
<path d="M441.312 823.726L401.967 836.939L384.306 827.777L384.491 815.235L384.898 788.311L403.781 788.842L432.488 787.965V806.82L441.312 823.726Z" fill="#FF748F"/>
<path opacity="0.1" d="M441.275 823.737L401.93 836.95L384.269 827.787L384.454 815.246C387.016 818.193 390.291 820.605 394.043 822.309C397.794 824.014 401.929 824.967 406.151 825.102C406.151 825.102 419.998 809.939 428.427 805.542C429.026 805.227 429.691 805.023 430.383 804.941C431.075 804.859 431.778 804.901 432.451 805.066V806.831L441.275 823.737Z" fill="black"/>
<path d="M406.188 827.257C406.188 827.257 390.144 827.441 382.097 814.044C382.097 814.044 370.656 823.737 370.446 844.174C370.236 864.61 370.656 865.314 370.656 865.314C370.656 865.314 416.826 863.733 425.465 866.549C434.104 869.365 506.574 864.08 506.574 864.08C506.574 864.08 511.388 852.979 489.506 849.102C467.624 845.224 449.556 824.788 448.951 823.91C448.347 823.033 436.906 803.333 428.477 807.665C420.047 811.997 406.188 827.257 406.188 827.257Z" fill="#5D618C"/>
<path opacity="0.1" d="M448.742 161.663L444.138 161.111L447.014 161.046L448.742 161.663Z" fill="black"/>
<path opacity="0.1" d="M512.449 227.467C512.451 232.088 511.843 236.692 510.635 241.189C509.605 240.956 508.619 240.591 507.71 240.106C506.389 239.359 505.069 238.33 503.514 238.449C502.602 238.575 501.748 238.92 501.045 239.446C493.739 244.135 488.309 251.846 479.423 253.341C480.313 251.058 480.433 248.599 479.768 246.258C477.884 247.921 475.572 249.163 473.027 249.879C470.482 250.595 467.779 250.765 465.144 250.373C465.786 249.021 465.86 247.513 465.353 246.117C459.096 249.192 452.581 251.846 445.866 254.056C445.631 252.973 445.409 251.976 445.175 250.937C435.721 254.987 436.462 268.731 427.008 272.781C421.38 275.196 413.432 273.463 409.545 277.817C409.396 277.991 409.261 278.164 409.125 278.348C399.023 272.925 390.714 265.278 385.022 256.166C379.33 247.054 376.454 236.793 376.679 226.404C376.903 216.014 380.222 205.857 386.303 196.941C392.385 188.025 401.019 180.66 411.348 175.578C421.677 170.496 433.341 167.873 445.182 167.971C457.023 168.068 468.629 170.882 478.848 176.134C489.066 181.385 497.541 188.891 503.431 197.905C509.322 206.92 512.422 217.13 512.424 227.522L512.449 227.467Z" fill="black"/>
<path d="M448.742 159.486C443.04 157.417 437.252 155.338 431.118 154.721C424.984 154.103 418.369 155.154 413.741 158.739C410.038 161.598 407.138 166.19 402.201 166.32C399.795 166.396 397.573 165.334 395.413 164.414C389.243 161.815 381.529 160.342 375.963 163.786C371.52 166.547 369.854 171.616 369.126 176.349C368.398 181.082 368.225 186.096 365.658 190.266C364.066 192.865 361.647 194.988 359.647 197.359C354.566 203.386 352.177 210.838 352.934 218.305C353.449 221.998 354.35 225.641 355.624 229.189L360.659 244.796C363.214 252.724 365.818 260.76 370.681 267.81C375.543 274.861 383.022 280.926 392.155 282.745C397.66 283.828 404.324 282.94 407.409 278.792C408.199 277.709 408.705 276.55 409.569 275.543C413.395 271.211 421.405 272.933 427.033 270.518C436.486 266.467 435.746 252.724 445.2 248.673L445.903 251.781C452.611 249.569 459.121 246.919 465.378 243.854C465.882 245.249 465.812 246.755 465.181 248.11C467.814 248.496 470.514 248.323 473.056 247.607C475.598 246.891 477.908 245.653 479.793 243.994C480.458 246.335 480.338 248.795 479.448 251.077C488.334 249.572 493.764 241.861 501.07 237.171C501.776 236.653 502.629 236.313 503.538 236.186C505.106 236.067 506.414 237.096 507.735 237.832C510.022 239.051 512.712 239.552 515.367 239.255C518.021 238.958 520.482 237.88 522.347 236.197C526.235 232.493 526.407 226.796 525.161 221.879C523.914 216.962 521.458 212.273 520.928 207.258C520.15 200.424 522.865 193.287 520.372 186.789C518.262 181.276 512.733 177.28 506.797 174.659C500.86 172.038 494.455 170.511 488.395 168.161C482.644 165.898 477.288 162.865 471.314 161.078C462.675 158.49 453.283 158.695 444.163 158.912" fill="#794F6A"/>
<path d="M449.914 361.221C449.914 361.221 459.787 302.922 375.247 305.803L332.669 310.774C332.669 310.774 373.285 317.185 383.059 318.127L384.096 318.257C393.143 319.709 424.416 317.9 449.914 361.221Z" fill="#1976D2"/>
<path opacity="0.1" d="M395.919 593.714V593.042C430.587 566.735 395.919 593.714 395.919 593.714Z" fill="black"/>
<path d="M321.339 595.76C316.371 596.151 311.373 596.151 306.406 595.76L202.551 463.112C204.464 458.715 209.042 456.094 213.424 454.545L321.339 595.76Z" fill="#575988"/>
<path d="M253.991 453.733L249.054 458.877C249.054 458.877 211.61 404.293 203.563 376.567C205.093 373.416 207.401 372.744 207.401 372.744C207.401 372.744 211.301 370.221 217.583 366.246C219.915 379.286 227.876 411.17 253.991 453.733Z" fill="#575988"/>
<path d="M281.451 436.924L271.578 441.798C244.623 414.116 242.328 367.611 242.575 349.08L249.684 344.596C250.646 368.932 281.451 436.924 281.451 436.924Z" fill="#575988"/>
<path opacity="0.1" d="M307.368 432.072C307.06 435.592 295.644 471.332 312.305 477.289C328.966 483.245 307.368 432.072 307.368 432.072Z" fill="black"/>
<path opacity="0.1" d="M343.159 493.534C343.776 495.429 349.33 557.162 361.363 552.288C373.396 547.414 366.917 477.018 366.917 477.018L343.159 493.534Z" fill="black"/>
<path opacity="0.1" d="M916.835 250.211C916.86 267.741 909.125 284.594 895.262 297.214C889.615 298.264 883.791 298.352 878.107 297.474C875.201 297.151 872.438 296.178 870.085 294.647C867.819 292.813 866.044 290.56 864.889 288.052C860.384 279.55 858.076 269.727 851.757 262.449C845.439 255.171 832.616 251.976 826.519 259.438C823.199 263.489 822.644 269.716 818.213 272.521C812.894 275.9 805.871 271.926 801.737 267.106C789.519 253.027 793.702 225.345 770.401 221.457L769.463 221.316C776.935 207.335 789.617 196.007 805.415 189.204C821.212 182.401 839.181 180.528 856.355 183.895C873.529 187.263 888.881 195.669 899.877 207.725C910.873 219.782 916.855 234.769 916.835 250.211V250.211Z" fill="black"/>
<path d="M771.636 220.449C767.859 219.811 763.478 219.897 760.948 217.038C759.454 215.348 759.022 213.009 758.665 210.789C757.147 201.193 756.32 190.894 760.676 182.197C767.822 167.934 786.211 163.168 802.193 164.23C818.176 165.291 833.862 170.522 849.844 169.645C861.594 168.973 873.183 164.988 884.895 166.125C894.163 167.035 902.802 171.074 911.133 175.201C918.933 179.056 926.906 183.204 932.435 189.897C940.555 199.699 942.086 213.237 942.308 225.94C942.579 240.854 941.382 256.341 934.249 269.467C923.907 288.518 900.84 299.857 879.341 296.445C876.435 296.122 873.673 295.149 871.319 293.619C869.06 291.781 867.291 289.529 866.135 287.023C861.618 278.51 859.311 268.698 852.992 261.409C846.673 254.121 833.85 250.947 827.753 258.409C824.433 262.449 823.878 268.687 819.447 271.492C814.128 274.861 807.105 270.886 802.971 266.077C790.753 251.987 794.937 224.327 771.636 220.449Z" fill="#945B79"/>
<path d="M959.45 188.966C971.212 193.894 979.37 203.489 987.034 212.728C993.415 220.406 1000.02 228.615 1000.86 238.081C1001.19 241.958 1000.54 245.901 1001.37 249.713C1004.32 263.175 1023.59 269.207 1029.22 282.03C1031.83 288.073 1031.01 294.799 1029.86 301.189C1028.21 310.432 1025.99 319.59 1023.21 328.622C1021.54 334.037 1019.65 339.669 1020.92 345.17C1021.9 349.438 1024.63 353.185 1026.8 357.084C1032.46 367.6 1033.44 379.524 1033.87 391.145C1034.3 402.766 1034.29 414.592 1038.25 425.682C1042.21 436.773 1050.95 447.256 1063.55 450.841C1059.32 453.373 1054.41 454.903 1049.31 455.282C1048.56 458.91 1050.91 462.603 1054.25 464.899C1057.58 467.195 1061.65 468.386 1065.63 469.523C1062.91 471.203 1059.79 472.307 1056.51 472.751C1053.23 473.194 1049.88 472.964 1046.72 472.079C1041.45 470.563 1037.09 467.314 1032.88 464.13L1009.22 446.271C1006.06 444.025 1003.14 441.531 1000.5 438.82C985.195 422.13 994.328 396.842 985.788 376.795C978.827 360.495 960.117 347.261 961.832 329.922C962.301 325.07 964.424 320.478 966.201 315.842C972.505 299.025 974.485 281.191 971.999 263.622C969.513 246.054 962.622 229.187 951.823 214.233C949.121 210.551 945.986 206.847 941.481 204.951C934.631 202.081 924.845 203.316 920.957 197.587C918.896 194.565 918.489 189.248 918.304 185.858C930.867 183.334 947.701 184.038 959.45 188.966Z" fill="#945B79"/>
<path opacity="0.1" d="M358.426 372.333C364.201 339.019 411.655 326.987 436.844 352.448C444.126 359.835 450.581 367.925 454.234 376.015C466.575 403.361 467.501 405.798 467.501 405.798C467.501 405.798 391.291 418.794 391.908 428.542L357.352 380.076C357.352 380.076 357.611 377.044 358.426 372.333Z" fill="black"/>
<path d="M358.426 369.084C364.201 335.77 411.655 323.737 436.844 349.199C444.126 356.586 450.581 364.676 454.234 372.766C466.575 400.112 467.501 402.549 467.501 402.549C467.501 402.549 391.291 415.545 391.908 425.293L357.352 376.827C357.352 376.827 357.611 373.795 358.426 369.084Z" fill="#DCE6F2"/>
<path opacity="0.1" d="M379.875 326.337C380.801 327.691 417.209 366.679 436.338 372.235C455.468 377.791 379.875 326.337 379.875 326.337Z" fill="black"/>
<path opacity="0.1" d="M223.445 452.379C223.445 452.379 319.71 552.017 332.052 592.36Z" fill="black"/>
<path opacity="0.1" d="M227.148 360.322C227.148 360.322 248.128 455.628 288.856 495.7C329.583 535.772 371.545 604.002 371.545 604.002" stroke="black" stroke-width="2" stroke-miterlimit="10"/>
<g opacity="0.1">
<path opacity="0.1" d="M524.593 221.662C524.676 224.83 523.429 227.914 521.088 230.327C519.223 232.01 516.762 233.088 514.108 233.385C511.453 233.682 508.763 233.181 506.476 231.962C505.155 231.226 503.847 230.197 502.28 230.316C501.37 230.443 500.517 230.783 499.811 231.301C492.863 235.763 487.605 242.955 479.448 244.937C479.736 246.85 479.517 248.796 478.806 250.623C487.692 249.117 493.122 241.406 500.428 236.717C501.135 236.198 501.988 235.858 502.897 235.731C504.464 235.612 505.772 236.641 507.093 237.377C509.38 238.596 512.07 239.098 514.725 238.801C517.379 238.503 519.84 237.425 521.705 235.742C525.519 232.059 525.753 226.514 524.593 221.662Z" fill="black"/>
<path opacity="0.1" d="M519.669 201.345C519.768 202.233 519.94 203.11 520.138 203.987C520.138 198.572 521.607 192.941 520.138 187.742C520.163 192.161 519.151 196.84 519.669 201.345Z" fill="black"/>
<path opacity="0.1" d="M478.559 238.081C476.673 239.739 474.363 240.978 471.821 241.694C469.28 242.41 466.58 242.582 463.946 242.197C464.578 240.842 464.648 239.336 464.144 237.94C457.887 241.006 451.377 243.656 444.669 245.868L443.965 242.76C434.512 246.81 435.252 260.554 425.798 264.604C420.171 267.019 412.223 265.276 408.335 269.63C407.471 270.615 406.965 271.796 406.175 272.879C403.09 277.027 396.425 277.925 390.921 276.832C381.764 275.012 374.297 268.947 369.447 261.897C364.596 254.846 361.98 246.81 359.425 238.883L354.39 223.276C353.563 220.677 352.724 218.078 352.181 215.424C352.181 216.226 352.181 217.016 352.316 217.807C352.832 221.5 353.732 225.143 355.007 228.691L360.042 244.298C362.597 252.225 365.201 260.261 370.064 267.312C374.926 274.362 382.405 280.427 391.538 282.247C397.042 283.33 403.707 282.442 406.792 278.294C407.582 277.211 408.088 276.052 408.952 275.045C412.778 270.713 420.788 272.435 426.416 270.019C435.869 265.969 435.129 252.225 444.582 248.175L445.286 251.283C451.981 249.069 458.479 246.419 464.724 243.355C465.228 244.751 465.158 246.257 464.526 247.612C467.031 247.975 469.596 247.835 472.029 247.201C474.462 246.566 476.699 245.455 478.571 243.951C479.098 242.021 479.094 240.009 478.559 238.081V238.081Z" fill="black"/>
</g>
<path opacity="0.1" d="M454.74 309.485C448.1 312.842 432.673 320.315 429.55 319.037C426.218 317.683 389.86 306.517 377.715 302.792C378.518 299.174 381.418 289.969 391.032 286.947C392.979 286.488 395.021 286.44 396.993 286.806L433.87 299.608C444.2 304.211 452.777 308.488 454.74 309.485Z" fill="black"/>
<path d="M454.74 306.236C448.1 309.593 432.673 317.066 429.55 315.788C426.218 314.434 389.86 303.268 377.715 299.543C378.518 295.925 381.418 286.72 391.032 283.698C392.979 283.239 395.021 283.19 396.993 283.557L433.87 296.359C444.2 300.961 452.777 305.239 454.74 306.236Z" fill="#DCE6F2"/>
<path opacity="0.1" d="M942.345 224.652C941.987 236.857 940.099 249.063 934.311 259.731C923.968 278.781 900.902 290.12 879.403 286.709C876.497 286.386 873.734 285.412 871.381 283.882C869.122 282.044 867.352 279.792 866.197 277.287C861.68 268.774 859.372 258.962 853.053 251.673C846.735 244.384 833.912 241.211 827.815 248.673C824.495 252.713 823.939 258.951 819.509 261.756C814.19 265.124 807.167 261.15 803.033 256.341C790.815 242.262 794.998 214.569 771.697 210.691C767.921 210.052 763.54 210.139 761.01 207.28C759.516 205.59 759.084 203.251 758.726 201.031C758.307 198.421 757.949 195.757 757.739 193.081C757.31 198.994 757.641 204.93 758.726 210.778C759.084 212.998 759.516 215.338 761.01 217.027C763.54 219.886 767.921 219.8 771.697 220.439C794.998 224.316 790.815 251.976 803.033 266.088C807.155 270.843 814.14 274.817 819.509 271.503C823.939 268.698 824.446 262.46 827.815 258.42C833.912 250.958 846.735 254.142 853.053 261.42C859.372 268.698 861.693 278.521 866.197 287.034C867.352 289.54 869.122 291.791 871.381 293.629C873.734 295.16 876.497 296.133 879.403 296.456C900.902 299.868 923.968 288.528 934.311 269.478C941.444 256.352 942.641 240.864 942.37 225.951C942.345 225.475 942.345 225.042 942.345 224.652Z" fill="black"/>
<g opacity="0.1">
<path opacity="0.1" d="M1023.05 276.637C1025.66 282.68 1024.84 289.406 1023.69 295.795C1022.04 305.031 1019.82 314.182 1017.04 323.207C1015.37 328.622 1013.48 334.254 1014.75 339.755C1015.73 344.022 1018.46 347.77 1020.63 351.669C1026.29 362.185 1027.27 374.109 1027.7 385.73C1028.13 397.351 1028.12 409.177 1032.08 420.267C1034.65 427.825 1039.55 434.611 1046.25 439.87C1042.71 435.71 1040.01 431.051 1038.25 426.094C1034.29 415.004 1034.29 403.177 1033.87 391.556C1033.45 379.936 1032.46 368.011 1026.8 357.506C1024.68 353.575 1021.86 349.828 1020.92 345.593C1019.69 340.091 1021.54 334.449 1023.21 329.033C1025.99 319.984 1028.21 310.808 1029.86 301.546C1031.01 295.156 1031.83 288.42 1029.22 282.377C1027.11 277.536 1023.05 273.713 1018.64 269.998C1020.49 272.001 1021.97 274.24 1023.05 276.637V276.637Z" fill="black"/>
<path opacity="0.1" d="M1063.55 451.274C1060.25 450.317 1057.15 448.898 1054.37 447.072C1050.88 448.666 1047.06 449.638 1043.14 449.931C1042.39 453.559 1044.74 457.253 1048.08 459.549C1048.74 460.016 1049.44 460.44 1050.17 460.816C1049.32 459.228 1049.03 457.449 1049.35 455.715C1054.44 455.32 1059.33 453.792 1063.55 451.274V451.274Z" fill="black"/>
<path opacity="0.1" d="M935.273 199.623C930.571 197.652 924.487 197.608 919.871 195.93C920.132 196.682 920.484 197.409 920.92 198.096C924.808 203.814 934.594 202.58 941.444 205.46C942.309 205.841 943.135 206.287 943.912 206.793C941.772 203.799 938.799 201.332 935.273 199.623V199.623Z" fill="black"/>
<path opacity="0.1" d="M1055.43 466.166C1050.7 467.935 1045.41 468.154 1040.51 466.783C1035.24 465.267 1030.88 462.018 1026.68 458.834L1003.02 440.975C1001.89 440.13 1000.78 439.274 999.696 438.408C999.943 438.7 1000.19 439.004 1000.46 439.296C1003.1 442.01 1006.02 444.505 1009.19 446.747L1032.85 464.617C1037.05 467.79 1041.41 471.05 1046.68 472.567C1049.84 473.45 1053.2 473.678 1056.48 473.233C1059.76 472.788 1062.88 471.681 1065.59 470C1062.02 469.141 1058.6 467.851 1055.43 466.166Z" fill="black"/>
<path opacity="0.1" d="M980.863 207.323C987.244 215.002 993.847 223.211 994.686 232.677C995.019 236.554 994.365 240.496 995.204 244.308C996.537 250.406 1001.24 254.987 1006.5 259.352C1003.96 256.677 1002.2 253.498 1001.38 250.092C1000.54 246.269 1001.19 242.327 1000.86 238.449C1000.02 228.984 993.452 220.774 987.034 213.107C982.394 207.507 977.556 201.789 971.866 197.045C975.038 200.338 977.988 203.847 980.863 207.323Z" fill="black"/>
</g>
<path opacity="0.1" d="M926.721 184.872C926.721 184.872 919.316 195.702 940.296 204.724L941.531 201.832L926.721 184.872Z" fill="black"/>
<path d="M925.486 184.872C925.486 184.872 918.081 195.702 939.062 204.724L940.296 201.832L925.486 184.872Z" fill="#FF6584"/>
<path d="M1217.63 797.853C1217.63 797.853 1224.41 805.64 1214.5 817.347C1204.59 829.055 1196.42 839.008 1199.69 846.34C1199.69 846.34 1214.65 824.517 1226.84 824.214C1239.04 823.91 1231.02 810.979 1217.63 797.853Z" fill="#6C63FF"/>
<path opacity="0.1" d="M1217.63 797.853C1218.22 798.604 1218.69 799.424 1219.02 800.29C1230.89 812.539 1237.21 823.964 1225.8 824.246C1215.17 824.517 1202.42 841.195 1199.36 845.408C1199.46 845.733 1199.58 846.047 1199.72 846.372C1199.72 846.372 1214.68 824.549 1226.87 824.246C1239.06 823.943 1231.02 810.979 1217.63 797.853Z" fill="black"/>
<path d="M1230.24 807.773C1230.24 810.513 1229.88 812.733 1229.45 812.733C1229.02 812.733 1228.67 810.567 1228.67 807.773C1228.67 804.979 1229.1 806.322 1229.53 806.322C1229.97 806.322 1230.24 805.033 1230.24 807.773Z" fill="#FFD037"/>
<path d="M1234.56 811.044C1231.82 812.354 1229.42 813.145 1229.23 812.809C1229.03 812.474 1231.07 811.141 1233.8 809.831C1236.54 808.52 1235.47 809.474 1235.68 809.831C1235.89 810.188 1237.31 809.733 1234.56 811.044Z" fill="#FFD037"/>
<path d="M1181.77 797.853C1181.77 797.853 1174.98 805.64 1184.9 817.347C1194.81 829.055 1202.98 839.008 1199.71 846.34C1199.71 846.34 1184.76 824.517 1172.55 824.214C1160.35 823.91 1168.43 810.979 1181.77 797.853Z" fill="#6C63FF"/>
<path opacity="0.1" d="M1181.77 797.853C1181.18 798.604 1180.71 799.424 1180.38 800.29C1168.51 812.539 1162.19 823.964 1173.6 824.246C1184.23 824.517 1196.98 841.195 1200.04 845.408C1199.94 845.736 1199.81 846.058 1199.67 846.372C1199.67 846.372 1184.72 824.549 1172.52 824.246C1160.31 823.943 1168.43 810.979 1181.77 797.853Z" fill="black"/>
<path d="M1169.21 807.773C1169.21 810.513 1169.57 812.733 1170 812.733C1170.43 812.733 1170.78 810.567 1170.78 807.773C1170.78 804.979 1170.34 806.322 1169.91 806.322C1169.48 806.322 1169.21 805.033 1169.21 807.773Z" fill="#FFD037"/>
<path d="M1164.89 811.044C1167.63 812.354 1170.01 813.145 1170.22 812.809C1170.43 812.474 1168.38 811.141 1165.64 809.831C1162.9 808.52 1163.98 809.474 1163.77 809.831C1163.56 810.188 1162.15 809.733 1164.89 811.044Z" fill="#FFD037"/>
<path d="M1171.37 845.354C1171.37 845.354 1190.33 844.834 1196.05 841.271C1201.78 837.708 1225.22 833.43 1226.63 839.105C1228.05 844.78 1255.12 867.578 1233.72 867.73C1212.32 867.881 1183.99 864.805 1178.29 861.762C1172.59 858.719 1171.37 845.354 1171.37 845.354Z" fill="#A8A8A8"/>
<path opacity="0.2" d="M1234.09 865.802C1212.69 865.953 1184.36 862.877 1178.66 859.834C1174.32 857.506 1172.59 849.177 1172.01 845.343H1171.37C1171.37 845.343 1172.6 858.762 1178.28 861.816C1183.96 864.87 1212.31 867.935 1233.71 867.784C1239.88 867.784 1242.01 865.812 1241.9 862.953C1241.01 864.719 1238.68 865.802 1234.09 865.802Z" fill="black"/>
<path d="M324.141 826.26C326.406 824.643 328.059 822.46 328.88 820.001C329.484 817.51 328.275 814.52 325.572 813.611C322.536 812.593 319.29 814.445 316.834 816.307C314.378 818.17 311.552 820.304 308.331 819.903C309.987 818.587 311.227 816.916 311.928 815.054C312.628 813.192 312.767 811.202 312.33 809.279C312.189 808.482 311.805 807.733 311.219 807.113C309.54 805.531 306.48 806.214 304.456 807.459C298.038 811.412 296.248 819.069 296.224 825.946C295.57 823.466 296.113 820.878 296.1 818.365C296.088 815.853 295.286 812.95 292.842 811.629C291.333 810.895 289.631 810.522 287.906 810.546C285.018 810.448 281.809 810.708 279.834 812.56C277.366 814.856 278.02 818.723 280.155 821.224C282.29 823.726 285.524 825.351 288.498 827.094C290.892 828.343 292.933 830.05 294.471 832.087C294.651 832.374 294.8 832.675 294.916 832.986H312.922C316.991 831.2 320.765 828.937 324.141 826.26V826.26Z" fill="#1976D2"/>
<path d="M180.447 843.34C180.447 843.34 163.169 791.679 183.693 753.644C192.443 737.742 195.085 719.779 191.221 702.449C189.304 694.234 186.536 686.19 182.952 678.417" stroke="#535461" stroke-width="2" stroke-miterlimit="10"/>
<path d="M195.775 654.385C195.775 660.709 182.705 679.078 182.705 679.078C182.705 679.078 169.636 660.666 169.636 654.385C169.636 651.343 171.013 648.426 173.464 646.275C175.915 644.124 179.239 642.915 182.705 642.915C186.172 642.915 189.496 644.124 191.947 646.275C194.398 648.426 195.775 651.343 195.775 654.385V654.385Z" fill="#6C63FF"/>
<path d="M217.373 689.453C213.448 694.771 191.11 703.955 191.11 703.955C191.11 703.955 191.505 682.294 195.43 676.998C197.348 674.517 200.297 672.793 203.645 672.196C206.994 671.599 210.475 672.177 213.344 673.805C216.214 675.434 218.242 677.983 218.995 680.908C219.748 683.833 219.166 686.9 217.373 689.453V689.453Z" fill="#6C63FF"/>
<path d="M216.423 749.398C209.98 752.247 185.408 750.276 185.408 750.276C185.408 750.276 198.219 731.777 204.661 728.918C206.198 728.204 207.881 727.766 209.613 727.63C211.344 727.494 213.089 727.663 214.746 728.126C216.403 728.589 217.937 729.338 219.26 730.328C220.583 731.318 221.667 732.53 222.449 733.892C223.232 735.255 223.697 736.74 223.817 738.262C223.937 739.785 223.709 741.312 223.148 742.756C222.587 744.2 221.703 745.531 220.548 746.672C219.393 747.812 217.991 748.739 216.423 749.398Z" fill="#6C63FF"/>
<path d="M204.069 794.604C198.268 798.373 173.671 800.019 173.671 800.019C173.671 800.019 182.73 779.885 188.481 776.116C189.851 775.132 191.434 774.401 193.134 773.969C194.835 773.537 196.618 773.413 198.375 773.604C200.132 773.796 201.826 774.298 203.355 775.081C204.884 775.864 206.216 776.912 207.27 778.161C208.324 779.409 209.077 780.833 209.485 782.344C209.893 783.856 209.946 785.425 209.643 786.956C209.339 788.486 208.683 789.947 207.717 791.248C206.75 792.55 205.492 793.666 204.019 794.528L204.069 794.604Z" fill="#6C63FF"/>
<path d="M163.675 705.178C168.846 709.597 192.961 714.167 192.961 714.167C192.961 714.167 187.05 693.146 181.854 688.727C180.634 687.633 179.177 686.764 177.568 686.172C175.959 685.58 174.232 685.276 172.487 685.279C170.743 685.282 169.017 685.591 167.41 686.189C165.804 686.787 164.351 687.66 163.135 688.758C161.92 689.857 160.968 691.157 160.334 692.584C159.701 694.01 159.399 695.533 159.447 697.064C159.495 698.594 159.892 700.1 160.613 701.494C161.335 702.888 162.368 704.14 163.65 705.178H163.675Z" fill="#6C63FF"/>
<path d="M150.012 758.214C156.455 761.062 181.027 759.102 181.027 759.102C181.027 759.102 168.229 740.593 161.774 737.745C160.242 737.067 158.574 736.661 156.863 736.549C155.153 736.437 153.434 736.622 151.805 737.093C150.176 737.564 148.668 738.313 147.369 739.295C146.069 740.277 145.003 741.475 144.23 742.819C143.458 744.163 142.995 745.627 142.868 747.128C142.74 748.629 142.951 750.138 143.488 751.567C144.025 752.997 144.877 754.32 145.997 755.46C147.116 756.6 148.481 757.536 150.012 758.214V758.214Z" fill="#6C63FF"/>
<path d="M144.755 811.369C150.555 815.127 175.152 816.784 175.152 816.784C175.152 816.784 166.094 796.64 160.342 792.871C157.551 791.237 154.151 790.608 150.846 791.113C147.541 791.619 144.583 793.22 142.587 795.586C140.59 797.952 139.706 800.902 140.119 803.823C140.532 806.745 142.21 809.416 144.804 811.282L144.755 811.369Z" fill="#6C63FF"/>
<path d="M195.775 654.385C195.775 660.709 182.705 679.078 182.705 679.078C182.705 679.078 169.636 660.666 169.636 654.385C169.636 651.343 171.013 648.426 173.464 646.275C175.915 644.124 179.239 642.915 182.705 642.915C186.172 642.915 189.496 644.124 191.947 646.275C194.398 648.426 195.775 651.343 195.775 654.385V654.385Z" fill="#1976D2"/>
<path d="M217.373 689.453C213.448 694.771 191.11 703.955 191.11 703.955C191.11 703.955 191.505 682.294 195.43 676.998C197.348 674.517 200.297 672.793 203.645 672.196C206.994 671.599 210.475 672.177 213.344 673.805C216.214 675.434 218.242 677.983 218.995 680.908C219.748 683.833 219.166 686.9 217.373 689.453V689.453Z" fill="#1976D2"/>
<path d="M216.423 749.398C209.98 752.247 185.408 750.276 185.408 750.276C185.408 750.276 198.219 731.777 204.661 728.918C206.198 728.204 207.881 727.766 209.613 727.63C211.344 727.494 213.089 727.663 214.746 728.126C216.403 728.589 217.937 729.338 219.26 730.328C220.583 731.318 221.667 732.53 222.449 733.892C223.232 735.255 223.697 736.74 223.817 738.262C223.937 739.785 223.709 741.312 223.148 742.756C222.587 744.2 221.703 745.531 220.548 746.672C219.393 747.812 217.991 748.739 216.423 749.398Z" fill="#1976D2"/>
<path d="M204.069 794.604C198.268 798.373 173.671 800.019 173.671 800.019C173.671 800.019 182.73 779.885 188.481 776.116C189.851 775.132 191.434 774.401 193.134 773.969C194.835 773.537 196.618 773.413 198.375 773.604C200.132 773.796 201.826 774.298 203.355 775.081C204.884 775.864 206.216 776.912 207.27 778.161C208.324 779.409 209.077 780.833 209.485 782.344C209.893 783.856 209.946 785.425 209.643 786.956C209.339 788.486 208.683 789.947 207.717 791.248C206.75 792.55 205.492 793.666 204.019 794.528L204.069 794.604Z" fill="#1976D2"/>
<path d="M163.675 705.178C168.846 709.597 192.961 714.167 192.961 714.167C192.961 714.167 187.05 693.146 181.854 688.727C180.634 687.633 179.177 686.764 177.568 686.172C175.959 685.58 174.232 685.276 172.487 685.279C170.743 685.282 169.017 685.591 167.41 686.189C165.804 686.787 164.351 687.66 163.135 688.758C161.92 689.857 160.968 691.157 160.334 692.584C159.701 694.01 159.399 695.533 159.447 697.064C159.495 698.594 159.892 700.1 160.613 701.494C161.335 702.888 162.368 704.14 163.65 705.178H163.675Z" fill="#1976D2"/>
<path d="M150.012 758.214C156.455 761.062 181.027 759.102 181.027 759.102C181.027 759.102 168.229 740.593 161.774 737.745C160.242 737.067 158.574 736.661 156.863 736.549C155.153 736.437 153.434 736.622 151.805 737.093C150.176 737.564 148.668 738.313 147.369 739.295C146.069 740.277 145.003 741.475 144.23 742.819C143.458 744.163 142.995 745.627 142.868 747.128C142.74 748.629 142.951 750.138 143.488 751.567C144.025 752.997 144.877 754.32 145.997 755.46C147.116 756.6 148.481 757.536 150.012 758.214V758.214Z" fill="#1976D2"/>
<path d="M144.755 811.369C150.555 815.127 175.152 816.784 175.152 816.784C175.152 816.784 166.094 796.64 160.342 792.871C157.551 791.237 154.151 790.608 150.846 791.113C147.541 791.619 144.583 793.22 142.587 795.586C140.59 797.952 139.706 800.902 140.119 803.823C140.532 806.745 142.21 809.416 144.804 811.282L144.755 811.369Z" fill="#1976D2"/>
<path d="M139.46 840.091C139.46 840.091 160.577 836.408 166.205 831.502C171.832 826.596 197.182 818.008 199.996 824.138C202.81 830.268 238.008 851.127 214.078 854.809C190.147 858.491 157.763 859.715 150.716 857.257C143.669 854.798 139.46 840.091 139.46 840.091Z" fill="#A8A8A8"/>
<path opacity="0.2" d="M214.078 852.524C190.135 856.206 157.763 857.43 150.716 854.982C145.36 853.109 141.633 844.152 140.164 839.961L139.46 840.091C139.46 840.091 143.681 854.809 150.716 857.257C157.751 859.704 190.135 858.491 214.078 854.809C220.977 853.726 222.951 851.246 222.211 848.094C221.594 850.152 219.212 851.722 214.078 852.524Z" fill="black"/>
</g>
<defs>
<linearGradient id="paint0_linear_285_54" x1="633.607" y1="873.307" x2="633.607" y2="148.678" gradientUnits="userSpaceOnUse">
<stop stop-color="#808080" stop-opacity="0.25"/>
<stop offset="0.54" stop-color="#808080" stop-opacity="0.12"/>
<stop offset="1" stop-color="#808080" stop-opacity="0.1"/>
</linearGradient>
<clipPath id="clip0_285_54">
<rect width="1354" height="889" fill="white"/>
</clipPath>
</defs>
</svg>
